Source-HROTd_VROTx.ufo
<glyph name="quotedbl" format="2">
  <advance width="518"/>
  <unicode hex="0022"/>
  <outline>
    <contour>
      <point x="107.85772983398499" y="356.3326255931433" type="line"/>
      <point x="98.0" y="364.651803615609" type="line"/>
      <point x="199.0" y="364.651803615609" type="line"/>
      <point x="189.142270166015" y="356.3326255931433" type="line"/>
      <point x="223.142270166015" y="555.7367378877497" type="line"/>
      <point x="233.0" y="544.0559159102154" type="line"/>
      <point x="64.0" y="544.0559159102154" type="line"/>
      <point x="73.85772983398499" y="555.7367378877497" type="line"/>
    </contour>
    <contour>
      <point x="328.857729833985" y="356.3326255931433" type="line"/>
      <point x="319.0" y="364.651803615609" type="line"/>
      <point x="420.0" y="364.651803615609" type="line"/>
      <point x="410.142270166015" y="356.3326255931433" type="line"/>
      <point x="444.142270166015" y="555.7367378877497" type="line"/>
      <point x="454.0" y="544.0559159102154" type="line"/>
      <point x="285.0" y="544.0559159102154" type="line"/>
      <point x="294.857729833985" y="555.7367378877497" type="line"/>
    </contour>
    <contour>
      <point x="88.14227016601501" y="352.97098163807476" type="curve" smooth="yes"/>
      <point x="54.14227016601501" y="552.3750939326811" type="line" smooth="yes"/>
      <point x="53.10108065230835" y="558.4814901300673"/>
      <point x="57.80547418094773" y="564.0559159102154"/>
      <point x="64.0" y="564.0559159102154" type="curve" smooth="yes"/>
      <point x="233.0" y="564.0559159102154" type="line" smooth="yes"/>
      <point x="239.19452581905253" y="564.0559159102154"/>
      <point x="243.8989193476917" y="558.4814901300675"/>
      <point x="242.857729833985" y="552.3750939326811" type="curve" smooth="yes"/>
      <point x="208.857729833985" y="352.97098163807476" type="line" smooth="yes"/>
      <point x="208.03845145705995" y="348.16605583004815"/>
      <point x="203.87427215895224" y="344.651803615609"/>
      <point x="199.0" y="344.651803615609" type="curve" smooth="yes"/>
      <point x="98.0" y="344.651803615609" type="line" smooth="yes"/>
      <point x="93.12572784104766" y="344.651803615609"/>
      <point x="88.96154854294006" y="348.1660558300481"/>
    </contour>
    <contour>
      <point x="309.142270166015" y="352.97098163807476" type="curve" smooth="yes"/>
      <point x="275.142270166015" y="552.3750939326811" type="line" smooth="yes"/>
      <point x="274.1010806523083" y="558.4814901300673"/>
      <point x="278.8054741809477" y="564.0559159102154"/>
      <point x="285.0" y="564.0559159102154" type="curve" smooth="yes"/>
      <point x="454.0" y="564.0559159102154" type="line" smooth="yes"/>
      <point x="460.1945258190525" y="564.0559159102154"/>
      <point x="464.8989193476917" y="558.4814901300675"/>
      <point x="463.857729833985" y="552.3750939326811" type="curve" smooth="yes"/>
      <point x="429.857729833985" y="352.97098163807476" type="line" smooth="yes"/>
      <point x="429.0384514570599" y="348.16605583004815"/>
      <point x="424.87427215895224" y="344.651803615609"/>
      <point x="420.0" y="344.651803615609" type="curve" smooth="yes"/>
      <point x="319.0" y="344.651803615609" type="line" smooth="yes"/>
      <point x="314.12572784104765" y="344.651803615609"/>
      <point x="309.9615485429401" y="348.16605583004804"/>
    </contour>
    <contour>
      <point x="138.0" y="316.4680374315355" type="curve" smooth="yes"/>
      <point x="138.0" y="439.50461735799473" type="line" smooth="yes"/>
      <point x="138.0" y="454.50461735799473"/>
      <point x="158.0" y="454.50461735799473"/>
      <point x="158.0" y="439.50461735799473" type="curve" smooth="yes"/>
      <point x="158.0" y="316.4680374315355" type="line" smooth="yes"/>
      <point x="158.0" y="301.4680374315355"/>
      <point x="138.0" y="301.4680374315355"/>
    </contour>
    <contour>
      <point x="204.99334442390824" y="346.64681625669283" type="curve" smooth="yes"/>
      <point x="153.99334442390824" y="308.4630500726193" type="line" smooth="yes"/>
      <point x="150.4122439814847" y="305.7818755240863"/>
      <point x="145.48606423514173" y="305.8053405724574"/>
      <point x="141.93066838476554" y="308.5205086493092" type="curve" smooth="yes"/>
      <point x="91.93066838476553" y="346.7042748333827" type="line" smooth="yes"/>
      <point x="80.00937521142609" y="355.80827225623443"/>
      <point x="92.14803844189504" y="371.70332982068703"/>
      <point x="104.06933161523447" y="362.5993323978353" type="curve" smooth="yes"/>
      <point x="154.06933161523446" y="324.4155662137618" type="line"/>
      <point x="142.00665557609176" y="324.4730247904517" type="line"/>
      <point x="193.00665557609176" y="362.6567909745252" type="line" smooth="yes"/>
      <point x="205.01413661446608" y="371.64680761038755"/>
      <point x="217.00082546228256" y="355.63683289255516"/>
    </contour>
    <contour>
      <point x="72.06419382970823" y="559.9693563535526" type="curve" smooth="yes"/>
      <point x="156.06419382970824" y="445.4180578013319" type="line"/>
      <point x="139.9693661666056" y="445.46355352428657" type="line"/>
      <point x="224.9693661666056" y="560.0148520765073" type="line" smooth="yes"/>
      <point x="233.9077704160434" y="572.0608028265989"/>
      <point x="249.9690380828322" y="560.1429304940151"/>
      <point x="241.0306338333944" y="548.0969797439235" type="curve" smooth="yes"/>
      <point x="156.0306338333944" y="433.5456811917029" type="line" smooth="yes"/>
      <point x="152.01845353624427" y="428.13861692035954"/>
      <point x="143.91735397899942" y="428.16151653685745"/>
      <point x="139.93580617029176" y="433.5911769146576" type="curve" smooth="yes"/>
      <point x="55.93580617029177" y="548.1424754668782" type="line" smooth="yes"/>
      <point x="47.06564550528603" y="560.2387662114405"/>
      <point x="63.19403316470249" y="572.0656470981149"/>
    </contour>
    <contour>
      <point x="359.0" y="316.4680374315355" type="curve" smooth="yes"/>
      <point x="359.0" y="439.50461735799473" type="line" smooth="yes"/>
      <point x="359.0" y="454.50461735799473"/>
      <point x="379.0" y="454.50461735799473"/>
      <point x="379.0" y="439.50461735799473" type="curve" smooth="yes"/>
      <point x="379.0" y="316.4680374315355" type="line" smooth="yes"/>
      <point x="379.0" y="301.4680374315355"/>
      <point x="359.0" y="301.4680374315355"/>
    </contour>
    <contour>
      <point x="425.99334442390824" y="346.64681625669283" type="curve" smooth="yes"/>
      <point x="374.99334442390824" y="308.4630500726193" type="line" smooth="yes"/>
      <point x="371.4122439814847" y="305.78187552408633"/>
      <point x="366.48606423514167" y="305.8053405724574"/>
      <point x="362.9306683847655" y="308.5205086493092" type="curve" smooth="yes"/>
      <point x="312.9306683847655" y="346.7042748333827" type="line" smooth="yes"/>
      <point x="301.00937521142606" y="355.80827225623443"/>
      <point x="313.14803844189504" y="371.70332982068703"/>
      <point x="325.0693316152345" y="362.5993323978353" type="curve" smooth="yes"/>
      <point x="375.0693316152345" y="324.4155662137618" type="line"/>
      <point x="363.00665557609176" y="324.4730247904517" type="line"/>
      <point x="414.00665557609176" y="362.6567909745252" type="line" smooth="yes"/>
      <point x="426.01413661446605" y="371.64680761038755"/>
      <point x="438.00082546228253" y="355.63683289255516"/>
    </contour>
    <contour>
      <point x="293.06419382970824" y="559.9693563535526" type="curve" smooth="yes"/>
      <point x="377.06419382970824" y="445.4180578013319" type="line"/>
      <point x="360.9693661666056" y="445.46355352428657" type="line"/>
      <point x="445.9693661666056" y="560.0148520765073" type="line" smooth="yes"/>
      <point x="454.9077704160434" y="572.0608028265989"/>
      <point x="470.9690380828322" y="560.1429304940151"/>
      <point x="462.0306338333944" y="548.0969797439235" type="curve" smooth="yes"/>
      <point x="377.0306338333944" y="433.5456811917029" type="line" smooth="yes"/>
      <point x="373.0184535362443" y="428.13861692035965"/>
      <point x="364.91735397899936" y="428.1615165368575"/>
      <point x="360.93580617029176" y="433.5911769146576" type="curve" smooth="yes"/>
      <point x="276.93580617029176" y="548.1424754668782" type="line" smooth="yes"/>
      <point x="268.065645505286" y="560.2387662114405"/>
      <point x="284.1940331647025" y="572.0656470981149"/>
    </contour>
  </outline>
</glyph>
<glyph name="quotesingle" format="2">
  <advance width="297"/>
  <unicode hex="0027"/>
  <outline>
    <contour>
      <point x="107.88620556774733" y="286.85964603339943" type="line"/>
      <point x="103.77350269189625" y="293.5203048686046" type="line"/>
      <point x="204.77350269189625" y="222.10251996876332" type="line"/>
      <point x="189.18281689501333" y="215.84095004136773" type="line"/>
      <point x="223.18281689501333" y="391.20343177563154" type="line"/>
      <point x="227.22649730810375" y="381.1350700844726" type="line"/>
      <point x="58.226497308103745" y="500.6361161049992" type="line"/>
      <point x="73.88620556774733" y="510.3053888883485" type="line"/>
    </contour>
    <contour>
      <point x="88.11379443225267" y="283.8510320852553" type="curve" smooth="yes"/>
      <point x="54.113794432252675" y="507.2967749402044" type="line" smooth="yes"/>
      <point x="52.78727581239142" y="516.0145672468461"/>
      <point x="62.57352332384337" y="522.0572019591071"/>
      <point x="69.77350269189625" y="516.9660477235537" type="curve" smooth="yes"/>
      <point x="238.77350269189625" y="397.4650017030271" type="line" smooth="yes"/>
      <point x="241.98319588531396" y="395.19540588043316"/>
      <point x="243.56541854762787" y="391.25582895725336"/>
      <point x="242.81718310498667" y="387.39664001186816" type="curve" smooth="yes"/>
      <point x="208.81718310498667" y="212.0341582776044" type="line" smooth="yes"/>
      <point x="207.43505038191563" y="204.90550461866695"/>
      <point x="199.15540917303963" y="201.58021456545526"/>
      <point x="193.22649730810375" y="205.77258835020882" type="curve" smooth="yes"/>
      <point x="92.22649730810375" y="277.19037325005013" type="line" smooth="yes"/>
      <point x="90.00744727274416" y="278.75947857784513"/>
      <point x="88.52263049133492" y="281.1641886462105"/>
    </contour>
    <contour>
      <point x="138.0" y="282.5269119345812" type="curve" smooth="yes"/>
      <point x="138.0" y="405.56349186104046" type="line" smooth="yes"/>
      <point x="138.0" y="420.56349186104046"/>
      <point x="158.0" y="420.56349186104046"/>
      <point x="158.0" y="405.56349186104046" type="curve" smooth="yes"/>
      <point x="158.0" y="282.5269119345812" type="line" smooth="yes"/>
      <point x="158.0" y="267.5269119345812"/>
      <point x="138.0" y="267.5269119345812"/>
    </contour>
    <contour>
      <point x="190.9752453353837" y="207.9707030156482" type="curve" smooth="yes"/>
      <point x="139.9752453353837" y="276.56006079074336" type="line"/>
      <point x="147.4352175052751" y="272.54287363669533" type="line"/>
      <point x="97.4352175052751" y="275.3713007614415" type="line" smooth="yes"/>
      <point x="82.45916005844626" y="276.21847450352885"/>
      <point x="83.58872504789605" y="296.18655109930063"/>
      <point x="98.5647824947249" y="295.33937735721327" type="curve" smooth="yes"/>
      <point x="148.5647824947249" y="292.5109502324671" type="line" smooth="yes"/>
      <point x="151.52388328637466" y="292.3435582135879"/>
      <point x="154.25628048447163" y="290.8721652011242"/>
      <point x="156.0247546646163" y="288.4937630784191" type="curve" smooth="yes"/>
      <point x="207.0247546646163" y="219.90440530332393" type="line" smooth="yes"/>
      <point x="215.97503138037308" y="207.8672733063995"/>
      <point x="199.9255220511405" y="195.9335710187238"/>
    </contour>
    <contour>
      <point x="71.75674541733493" y="515.1124130362074" type="curve" smooth="yes"/>
      <point x="155.7567454173349" y="411.87482298297135" type="line"/>
      <point x="149.87925807752885" y="415.3853241278857" type="line"/>
      <point x="234.87925807752885" y="399.1218681605951" type="line" smooth="yes"/>
      <point x="249.61200647779674" y="396.3029810443018"/>
      <point x="245.85349032273905" y="376.6593165106113"/>
      <point x="231.12074192247115" y="379.4782036269046" type="curve" smooth="yes"/>
      <point x="146.12074192247115" y="395.7416595941952" type="line" smooth="yes"/>
      <point x="143.80957241563664" y="396.1838666942816"/>
      <point x="141.72837015379747" y="397.4269255901305"/>
      <point x="140.2432545826651" y="399.25216073910957" type="curve" smooth="yes"/>
      <point x="56.243254582665074" y="502.48975079234555" type="line" smooth="yes"/>
      <point x="46.7762578997687" y="514.1248689183479"/>
      <point x="62.289748734438554" y="526.7475311622097"/>
    </contour>
  </outline>
</glyph>
<glyph name="comma" format="2">
  <advance width="274"/>
  <unicode hex="002C"/>
  <outline>
    <contour>
      <point x="60.0" y="177.06749647439727" type="line"/>
      <point x="69.34360673852242" y="190.63078331604197" type="line"/>
      <point x="94.26696307700622" y="125.27706620598005"/>
      <point x="93.46501361856586" y="63.00724396339819"/>
      <point x="33.233569133896665" y="-24.375815992751964" type="curve"/>
      <point x="22.867760215778354" y="-8.93054340659616" type="line"/>
      <point x="177.9223890098921" y="24.90901815966333"/>
      <point x="226.6514607081268" y="110.67981992161732"/>
      <point x="217.08018732577403" y="185.8036465987134" type="curve"/>
      <point x="227.0" y="177.06749647439727" type="line"/>
    </contour>
    <contour>
      <point x="60.0" y="197.06749647439727" type="curve" smooth="yes"/>
      <point x="227.0" y="197.06749647439727" type="line" smooth="yes"/>
      <point x="232.03420868620177" y="197.06749647439727"/>
      <point x="236.2835642720037" y="193.3251870630894"/>
      <point x="236.91981267422597" y="188.33134635008113" type="curve" smooth="yes"/>
      <point x="247.34629996995824" y="106.49504378455985"/>
      <point x="196.04133397508454" y="8.392589058658434"/>
      <point x="27.132239784221646" y="-28.47061029517998" type="curve" smooth="yes"/>
      <point x="18.271891088789303" y="-30.404317902037253"/>
      <point x="11.619611460253825" y="-20.492281803969455"/>
      <point x="16.76643086610333" y="-13.025337709024175" type="curve" smooth="yes"/>
      <point x="72.52948793556436" y="67.87503917765675"/>
      <point x="73.73076170401319" y="122.99888574271391"/>
      <point x="50.65639326147757" y="183.50420963275258" type="curve" smooth="yes"/>
      <point x="48.16005572364234" y="190.05007508695718"/>
      <point x="52.99428407317607" y="197.06749647439727"/>
    </contour>
    <contour>
      <point x="22.19178173679455" y="-9.102977662226388" type="curve" smooth="yes"/>
      <point x="100.44133735750604" y="13.792522229182838"/>
      <point x="137.10530237089208" y="43.568129491751826"/>
      <point x="138.00472255044048" y="72.82349046410806" type="curve" smooth="yes"/>
      <point x="138.46566136333772" y="87.81640663844736"/>
      <point x="158.45621626245676" y="87.20182155458436"/>
      <point x="157.99527744955952" y="72.20890538024506" type="curve" smooth="yes"/>
      <point x="156.9021368144524" y="36.65241621000398"/>
      <point x="122.91145351752397" y="-0.4713584280567356"/>
      <point x="27.80821826320545" y="-28.29817603954975" type="curve" smooth="yes"/>
      <point x="13.411819480212928" y="-32.51050343435793"/>
      <point x="7.795382953802028" y="-13.315305057034562"/>
    </contour>
    <contour>
      <point x="67.93013197838918" y="193.15954102490159" type="curve" smooth="yes"/>
      <point x="155.9301319783892" y="78.60824247268086" type="line"/>
      <point x="139.76784206210704" y="78.1934838657931" type="line"/>
      <point x="218.76784206210704" y="192.7447824180138" type="line" smooth="yes"/>
      <point x="227.28377097753184" y="205.09301932485326"/>
      <point x="243.74808685331777" y="193.73844743762018"/>
      <point x="235.23215793789296" y="181.39021053078073" type="curve" smooth="yes"/>
      <point x="156.23215793789296" y="66.83891197856002" type="line" smooth="yes"/>
      <point x="152.38035265171038" y="61.25373100004707"/>
      <point x="144.20306998401617" y="61.04388459926179"/>
      <point x="140.0698680216108" y="66.42415337167226" type="curve" smooth="yes"/>
      <point x="52.069868021610816" y="180.97545192389296" type="line" smooth="yes"/>
      <point x="42.931801195854376" y="192.87064989147675"/>
      <point x="58.792065152632745" y="205.05473899248537"/>
    </contour>
  </outline>
</glyph>
<glyph name="slash" format="2">
  <advance width="490"/>
  <unicode hex="002F"/>
  <outline>
    <contour>
      <point x="25.0" y="10.190296114372046" type="line" smooth="yes"/>
      <point x="17.51654068586701" y="10.190296114372048"/>
      <point x="12.684619923746888" y="18.108571616819177"/>
      <point x="16.107027082001125" y="24.763591718172286" type="curve" smooth="yes"/>
      <point x="316.10702708200114" y="608.126686197074" type="line" smooth="yes"/>
      <point x="317.82059257295583" y="611.4587890883927"/>
      <point x="321.25310577009105" y="613.5533905932738"/>
      <point x="325.0" y="613.5533905932738" type="curve" smooth="yes"/>
      <point x="466.0" y="613.5533905932738" type="line" smooth="yes"/>
      <point x="473.4834593141329" y="613.5533905932738"/>
      <point x="478.31538007625306" y="605.6351150908265"/>
      <point x="474.89297291799886" y="598.9800949894735" type="curve" smooth="yes"/>
      <point x="174.89297291799886" y="15.61700051057181" type="line" smooth="yes"/>
      <point x="173.1794074270441" y="12.28489761925308"/>
      <point x="169.74689422990903" y="10.190296114372046"/>
      <point x="166.0" y="10.190296114372046" type="curve" smooth="yes"/>
    </contour>
    <contour>
      <point x="25.0" y="30.190296114372046" type="line"/>
      <point x="166.0" y="30.190296114372046" type="line"/>
      <point x="157.10702708200114" y="24.763591718172282" type="line"/>
      <point x="457.10702708200114" y="608.126686197074" type="line"/>
      <point x="466.0" y="593.5533905932738" type="line"/>
      <point x="325.0" y="593.5533905932738" type="line"/>
      <point x="333.89297291799886" y="598.9800949894735" type="line"/>
      <point x="33.892972917998875" y="15.617000510571806" type="line"/>
    </contour>
    <contour>
      <point x="382.88500668133446" y="484.41333880377374" type="curve" smooth="yes"/>
      <point x="126.88500668133449" y="-11.268514807996112" type="line" smooth="yes"/>
      <point x="120.00187682541548" y="-24.596024829997837"/>
      <point x="102.2318634627465" y="-15.41851835543917"/>
      <point x="109.11499331866551" y="-2.0910083334374434" type="curve" smooth="yes"/>
      <point x="365.11499331866554" y="493.5908452783324" type="line" smooth="yes"/>
      <point x="371.9981231745846" y="506.9183553003341"/>
      <point x="389.7681365372535" y="497.74084882577546"/>
    </contour>
    <contour>
      <point x="170.88465771892606" y="11.464465553964864" type="curve" smooth="yes"/>
      <point x="122.88465771892608" y="-15.40559213112396" type="line" smooth="yes"/>
      <point x="120.55167596549114" y="-16.711578678895965"/>
      <point x="117.79286873190496" y="-17.028940347924134"/>
      <point x="115.22428015856445" y="-16.286809991634673" type="curve" smooth="yes"/>
      <point x="22.224280158564447" y="10.583247693454151" type="line" smooth="yes"/>
      <point x="7.813707527187606" y="14.746827455607479"/>
      <point x="13.365147210058712" y="33.96092429744327"/>
      <point x="27.775719841435553" y="29.79734453528994" type="curve" smooth="yes"/>
      <point x="120.77571984143555" y="2.927286850201117" type="line"/>
      <point x="113.11534228107392" y="2.0460689896904043" type="line"/>
      <point x="161.11534228107394" y="28.91612667477923" type="line" smooth="yes"/>
      <point x="174.20408812168472" y="36.24311325316834"/>
      <point x="183.97340355953685" y="18.791452132353974"/>
    </contour>
    <contour>
      <point x="334.1941627678721" y="607.4862484597462" type="curve" smooth="yes"/>
      <point x="383.1941627678721" y="492.9349499075255" type="line"/>
      <point x="366.2032442299771" y="495.2639287893734" type="line"/>
      <point x="458.2032442299771" y="609.8152273415941" type="line" smooth="yes"/>
      <point x="467.59599935245757" y="621.5103609966285"/>
      <point x="483.1895108925034" y="608.9866874999879"/>
      <point x="473.7967557700229" y="597.2915538449535" type="curve" smooth="yes"/>
      <point x="381.7967557700229" y="482.74025529273274" type="line" smooth="yes"/>
      <point x="377.06960104070123" y="476.8543671111994"/>
      <point x="367.77481077942326" y="478.1284224356035"/>
      <point x="364.8058372321279" y="485.06923417458063" type="curve" smooth="yes"/>
      <point x="315.8058372321279" y="599.6205327268013" type="line" smooth="yes"/>
      <point x="309.90655043241924" y="613.4117768786095"/>
      <point x="328.29487596816347" y="621.2774926115544"/>
    </contour>
  </outline>
</glyph>
<glyph name="semicolon" format="2">
  <advance width="276"/>
  <unicode hex="003B"/>
  <outline>
    <contour>
      <point x="60.0" y="435.2233047033631" type="curve" smooth="yes"/>
      <point x="221.0" y="435.2233047033631" type="line" smooth="yes"/>
      <point x="221.41653289057547" y="435.2233047033631"/>
      <point x="221.0" y="434.8067718127877"/>
      <point x="221.0" y="435.2233047033631" type="curve" smooth="yes"/>
      <point x="221.0" y="549.0674964743973" type="line" smooth="yes"/>
      <point x="221.0" y="549.4840293649728"/>
      <point x="221.41653289057547" y="549.0674964743973"/>
      <point x="221.0" y="549.0674964743973" type="curve" smooth="yes"/>
      <point x="60.0" y="549.0674964743973" type="line" smooth="yes"/>
      <point x="59.58346710942448" y="549.0674964743973"/>
      <point x="60.0" y="549.4840293649728"/>
      <point x="60.0" y="549.0674964743973" type="curve" smooth="yes"/>
      <point x="60.0" y="435.2233047033631" type="line" smooth="yes"/>
      <point x="60.0" y="434.8067718127877"/>
      <point x="59.58346710942448" y="435.2233047033631"/>
    </contour>
    <contour>
      <point x="60.0" y="435.2233047033631" type="line"/>
      <point x="67.07106781186548" y="452.2943725152286" type="line"/>
      <point x="77.07106781186548" y="442.2943725152286" type="line"/>
      <point x="60.0" y="435.2233047033631" type="line"/>
      <point x="60.0" y="549.0674964743973" type="line"/>
      <point x="77.07106781186548" y="541.9964286625318" type="line"/>
      <point x="67.07106781186548" y="531.9964286625318" type="line"/>
      <point x="60.0" y="549.0674964743973" type="line"/>
      <point x="221.0" y="549.0674964743973" type="line"/>
      <point x="213.92893218813452" y="531.9964286625319" type="line"/>
      <point x="203.92893218813452" y="541.9964286625319" type="line"/>
      <point x="221.0" y="549.0674964743973" type="line"/>
      <point x="221.0" y="435.2233047033631" type="line"/>
      <point x="203.92893218813452" y="442.2943725152286" type="line"/>
      <point x="213.92893218813452" y="452.2943725152286" type="line"/>
      <point x="221.0" y="435.2233047033631" type="line"/>
    </contour>
    <contour>
      <point x="60.000000000000014" y="549.0674964743973" type="line" smooth="yes"/>
      <point x="59.39797673413553" y="550.0253096252784"/>
      <point x="59.397976734135504" y="550.0253096252784"/>
      <point x="60.0" y="549.0674964743973" type="curve" smooth="yes"/>
      <point x="140.00000000000003" y="421.7882758608187" type="line" smooth="yes"/>
      <point x="140.16173556926668" y="421.5309561457968"/>
      <point x="139.70016900671" y="421.73854452695775"/>
      <point x="140.0" y="421.78827586081866" type="curve" smooth="yes"/>
      <point x="220.99999999999997" y="435.22330470336306" type="line" smooth="yes"/>
      <point x="222.1160515562926" y="435.40841809655495"/>
      <point x="222.1160515562926" y="435.408418096555"/>
      <point x="221.0" y="435.22330470336317" type="curve" smooth="yes"/>
      <point x="140.0" y="421.78827586081877" type="line"/>
      <point x="142.46544100549693" y="440.7735720950157" type="line"/>
      <point x="152.56821903736207" y="436.2298735106873" type="line"/>
      <point x="140.0" y="421.7882758608187" type="line"/>
    </contour>
    <contour>
      <point x="59.99999999999998" y="435.2233047033631" type="line" smooth="yes"/>
      <point x="58.88432410937904" y="435.41066892548076"/>
      <point x="58.88432410937903" y="435.4106689254807"/>
      <point x="59.99999999999999" y="435.2233047033631" type="curve" smooth="yes"/>
      <point x="140.00000000000003" y="421.7882758608187" type="line" smooth="yes"/>
      <point x="140.29875767435703" y="421.73810313616974"/>
      <point x="139.8373523176072" y="421.5326996848981"/>
      <point x="140.0" y="421.7882758608187" type="curve" smooth="yes"/>
      <point x="221.0" y="549.0674964743972" type="line" smooth="yes"/>
      <point x="221.60738890909354" y="550.0219160664808"/>
      <point x="221.60738890909354" y="550.0219160664808"/>
      <point x="221.0" y="549.0674964743973" type="curve" smooth="yes"/>
      <point x="140.0" y="421.7882758608187" type="line"/>
      <point x="127.49659633350142" y="436.29288224544706" type="line"/>
      <point x="137.58927332579856" y="440.785831138346" type="line"/>
      <point x="140.0" y="421.7882758608187" type="line"/>
    </contour>
    <contour>
      <point x="60.06573444013771" y="128.3580384460218" type="line"/>
      <point x="60.0" y="144.64108960320442" type="line"/>
      <point x="227.0" y="26.554257145050997" type="line"/>
      <point x="212.62806072195127" y="13.283717100301837" type="line"/>
      <point x="208.4691728700275" y="20.287813371243857" type="line"/>
      <point x="227.0" y="26.554257145051004" type="line"/>
      <point x="236.9930414606402" y="-58.946126171063206"/>
      <point x="186.88727166237203" y="-115.51909705331857"/>
      <point x="25.0" y="-36.37824638055173" type="curve"/>
      <point x="39.34928708444557" y="-26.471898972422657" type="line"/>
      <point x="40.924867199760286" y="-43.48010272043787" type="line"/>
      <point x="24.999999999999993" y="-36.37824638055173" type="line"/>
      <point x="82.98573539361144" y="6.744658951234409"/>
      <point x="83.99409740425301" y="64.75767480825625"/>
      <point x="60.0" y="144.64108960320442" type="curve"/>
      <point x="75.41654011453629" y="139.39968073717043" type="line"/>
    </contour>
    <contour>
      <point x="60.00000000000001" y="144.6410896032044" type="line" smooth="yes"/>
      <point x="59.41443074706139" y="145.0551495928117"/>
      <point x="59.79369254718477" y="145.3279478563349"/>
      <point x="60.0" y="144.64108960320442" type="curve" smooth="yes"/>
      <point x="83.99470926903791" y="64.75563773023707"/>
      <point x="82.98721406684164" y="6.7457586128199925"/>
      <point x="24.999999999999993" y="-36.37824638055174" type="curve" smooth="yes"/>
      <point x="24.546667304867032" y="-36.71538141494118"/>
      <point x="24.49245112141757" y="-36.13012403222535"/>
      <point x="25.0" y="-36.37824638055173" type="curve" smooth="yes"/>
      <point x="187.04518868716437" y="-115.59629699343397"/>
      <point x="237.0027894251336" y="-59.029529677795"/>
      <point x="227.0" y="26.554257145051015" type="curve" smooth="yes"/>
      <point x="226.9751499027086" y="26.76687437997687"/>
      <point x="227.17478294333822" y="26.43066694058086"/>
      <point x="227.0" y="26.554257145050997" type="curve" smooth="yes"/>
    </contour>
    <contour>
      <point x="25.00000000000001" y="-36.37824638055173" type="curve" smooth="yes"/>
      <point x="23.883357380310056" y="-36.19673245674833"/>
      <point x="23.883357380310038" y="-36.19673245674833"/>
      <point x="25.000000000000007" y="-36.37824638055173" type="curve" smooth="yes"/>
      <point x="111.99178151014169" y="-50.5190460617747"/>
      <point x="147.00009446540068" y="-17.28108631560824"/>
      <point x="148.0" y="38.5750724252223" type="curve" smooth="yes"/>
      <point x="148.0202486390297" y="39.70619047266917"/>
      <point x="148.0202486390297" y="39.70619047266914"/>
      <point x="148.0" y="38.57507242522229" type="curve" smooth="yes"/>
      <point x="147.0000712170145" y="-17.282385003839476"/>
      <point x="111.99380411974123" y="-50.5193748436054"/>
    </contour>
    <contour>
      <point x="60.0" y="144.64108960320442" type="line" smooth="yes"/>
      <point x="59.27764287092283" y="145.5117435084469"/>
      <point x="59.27764287092283" y="145.5117435084469"/>
      <point x="59.99999999999999" y="144.64108960320442" type="curve" smooth="yes"/>
      <point x="148.00000000000003" y="38.575072425222274" type="line" smooth="yes"/>
      <point x="148.11803932792895" y="38.43280013677016"/>
      <point x="147.81723968013353" y="38.60288164099012"/>
      <point x="148.0" y="38.57507242522229" type="curve" smooth="yes"/>
      <point x="227.0" y="26.554257145050997" type="line" smooth="yes"/>
      <point x="228.11842571695644" y="26.384075006467103"/>
      <point x="228.11842571695644" y="26.384075006467103"/>
      <point x="227.0" y="26.554257145050997" type="curve" smooth="yes"/>
      <point x="148.0" y="38.57507242522229" type="line"/>
      <point x="154.42628998303175" y="57.16610902289271" type="line"/>
      <point x="160.6180359117955" y="53.665102725078356" type="line"/>
      <point x="148.0" y="38.57507242522229" type="line"/>
    </contour>
    <contour>
      <point x="60.0" y="415.2233047033631" type="line" smooth="yes"/>
      <point x="48.9586705315813" y="415.2233047033631"/>
      <point x="40.0" y="424.1819752349442"/>
      <point x="40.0" y="435.2233047033631" type="curve" smooth="yes"/>
      <point x="40.0" y="549.0674964743973" type="line" smooth="yes"/>
      <point x="40.0" y="560.1088259428158"/>
      <point x="48.9586705315813" y="569.0674964743973"/>
      <point x="60.0" y="569.0674964743973" type="curve" smooth="yes"/>
      <point x="221.0" y="569.0674964743973" type="line" smooth="yes"/>
      <point x="232.04132946841872" y="569.0674964743973"/>
      <point x="241.0" y="560.1088259428158"/>
      <point x="241.0" y="549.0674964743973" type="curve" smooth="yes"/>
      <point x="241.0" y="435.2233047033631" type="line" smooth="yes"/>
      <point x="241.0" y="424.1819752349442"/>
      <point x="232.04132946841872" y="415.2233047033631"/>
      <point x="221.0" y="415.2233047033631" type="curve" smooth="yes"/>
    </contour>
    <contour>
      <point x="60.0" y="455.2233047033631" type="curve" smooth="yes"/>
      <point x="221.0" y="455.2233047033631" type="line" smooth="yes"/>
      <point x="229.90904850559065" y="455.2233047033631"/>
      <point x="234.3707164240885" y="444.4518855037207"/>
      <point x="228.07106781186548" y="438.15223689149764" type="curve" smooth="yes"/>
      <point x="218.07106781186548" y="428.15223689149764" type="line" smooth="yes"/>
      <point x="211.77141919964245" y="421.8525882792746"/>
      <point x="201.0" y="426.31425619777247"/>
      <point x="201.0" y="435.2233047033631" type="curve" smooth="yes"/>
      <point x="201.0" y="549.0674964743973" type="line" smooth="yes"/>
      <point x="201.0" y="557.976544979988"/>
      <point x="211.77141919964242" y="562.4382128984859"/>
      <point x="218.07106781186548" y="556.1385642862627" type="curve" smooth="yes"/>
      <point x="228.07106781186548" y="546.1385642862627" type="line" smooth="yes"/>
      <point x="234.37071642408847" y="539.8389156740398"/>
      <point x="229.90904850559062" y="529.0674964743973"/>
      <point x="221.0" y="529.0674964743973" type="curve" smooth="yes"/>
      <point x="60.0" y="529.0674964743973" type="line" smooth="yes"/>
      <point x="51.090951494409346" y="529.0674964743973"/>
      <point x="46.629283575911494" y="539.8389156740399"/>
      <point x="52.928932188134524" y="546.1385642862629" type="curve" smooth="yes"/>
      <point x="62.928932188134524" y="556.1385642862629" type="line" smooth="yes"/>
      <point x="69.22858080035758" y="562.4382128984859"/>
      <point x="80.0" y="557.976544979988"/>
      <point x="80.0" y="549.0674964743973" type="curve" smooth="yes"/>
      <point x="80.0" y="435.2233047033631" type="line" smooth="yes"/>
      <point x="80.0" y="426.3142561977724"/>
      <point x="69.22858080035759" y="421.8525882792746"/>
      <point x="62.928932188134524" y="428.15223689149764" type="curve" smooth="yes"/>
      <point x="52.928932188134524" y="438.15223689149764" type="line" smooth="yes"/>
      <point x="46.62928357591147" y="444.4518855037207"/>
      <point x="51.09095149440931" y="455.2233047033631"/>
    </contour>
    <contour>
      <point x="76.93297563090475" y="559.7105381582012" type="curve" smooth="yes"/>
      <point x="156.93297563090476" y="432.4313175446226" type="line" smooth="yes"/>
      <point x="162.2008559023265" y="424.05017135421997"/>
      <point x="153.39290364358183" y="413.92933384638326"/>
      <point x="144.3647565935427" y="417.989719894754" type="curve" smooth="yes"/>
      <point x="134.26197856167755" y="422.5334184790824" type="line" smooth="yes"/>
      <point x="125.23383151163875" y="426.59380452745296"/>
      <point x="126.96164088611053" y="439.8989181916744"/>
      <point x="136.72741956717448" y="441.51871471327934" type="curve" smooth="yes"/>
      <point x="217.72741956717448" y="454.95374355582373" type="line" smooth="yes"/>
      <point x="245.46329011645307" y="459.55414134351065"/>
      <point x="252.0084509821041" y="420.0932636385894"/>
      <point x="224.27258043282555" y="415.4928658509025" type="curve" smooth="yes"/>
      <point x="143.27258043282552" y="402.0578370083581" type="line" smooth="yes"/>
      <point x="135.3207760901401" y="400.73891453065124"/>
      <point x="127.35640615697666" y="404.3208695410695"/>
      <point x="123.06702436909526" y="411.14523417701486" type="curve" smooth="yes"/>
      <point x="43.06702436909525" y="538.4244547905935" type="line" smooth="yes"/>
      <point x="28.10567309860672" y="562.2278189035152"/>
      <point x="61.971624360416186" y="583.5139022711229"/>
    </contour>
    <contour>
      <point x="63.31237236021045" y="454.9471022420551" type="curve" smooth="yes"/>
      <point x="143.31237236021042" y="441.5120733995107" type="line" smooth="yes"/>
      <point x="153.08403238061734" y="439.8710417218394"/>
      <point x="154.7751620852563" y="426.5442177441732"/>
      <point x="145.72309903441186" y="422.51451812198343" type="curve" smooth="yes"/>
      <point x="135.6304220421147" y="418.0215692290845" type="line" smooth="yes"/>
      <point x="126.57835899127022" y="413.99186960689474"/>
      <point x="117.80719568362902" y="424.16688072434806"/>
      <point x="123.12701837561609" y="432.52617561371284" type="curve" smooth="yes"/>
      <point x="204.1270183756161" y="559.8053962272913" type="line" smooth="yes"/>
      <point x="219.2217154446708" y="583.5244243550359"/>
      <point x="252.9676786934386" y="562.048624849248"/>
      <point x="237.8729816243839" y="538.3295967215032" type="curve" smooth="yes"/>
      <point x="156.8729816243839" y="411.0503761079246" type="line" smooth="yes"/>
      <point x="152.55940972513932" y="404.2722517943877"/>
      <point x="144.61096653912705" y="400.7338497391035"/>
      <point x="136.68762763978955" y="402.0644783221267" type="curve" smooth="yes"/>
      <point x="56.687627639789575" y="415.4995071646711" type="line" smooth="yes"/>
      <point x="28.96109305208497" y="420.1558420632913"/>
      <point x="35.58583777250584" y="459.6034371406754"/>
    </contour>
    <contour>
      <point x="48.38726017606978" y="144.59420914183255" type="curve" smooth="yes"/>
      <point x="63.73806585046837" y="155.63585143298118" type="line" smooth="yes"/>
      <point x="69.31336581757876" y="159.6460948826363"/>
      <point x="77.17897580007877" y="156.9718970669949"/>
      <point x="79.15460596500466" y="150.3944425669472" type="curve" smooth="yes"/>
      <point x="105.95689671633947" y="61.16172530856957"/>
      <point x="101.70720382369532" y="-4.25691591526897"/>
      <point x="36.935001174636234" y="-52.426789833508195" type="curve" smooth="yes"/>
      <point x="30.673914817055575" y="-57.08304248667081"/>
      <point x="21.729865632760493" y="-53.09435287268799"/>
      <point x="21.01013397487594" y="-45.324933493622055" type="curve" smooth="yes"/>
      <point x="19.43455385956122" y="-28.31672974560685" type="line" smooth="yes"/>
      <point x="18.714822201676665" y="-20.54731036654089"/>
      <point x="26.7739619001718" y="-14.98350519670224"/>
      <point x="33.78384094400679" y="-18.410382337477778" type="curve" smooth="yes"/>
      <point x="174.359678649318" y="-87.13284127938746"/>
      <point x="215.81273975836683" y="-50.01228132421835"/>
      <point x="207.13521891235996" y="24.2325180683805" type="curve" smooth="yes"/>
      <point x="205.88220144211186" y="34.95332558528797"/>
      <point x="220.15519964535574" y="39.77992831040933"/>
      <point x="225.66604604233245" y="30.498961842187647" type="curve" smooth="yes"/>
      <point x="229.82493389425622" y="23.494865571245633" type="line" smooth="yes"/>
      <point x="235.335780291233" y="14.213899103023843"/>
      <point x="224.2660821037769" y="3.99253160084582"/>
      <point x="215.4529946162075" y="10.224325526496473" type="curve" smooth="yes"/>
      <point x="48.45299461620749" y="128.31115798464992" type="line" smooth="yes"/>
      <point x="42.845498309252896" y="132.27625664877604"/>
      <point x="42.81196020895932" y="140.58396569217737"/>
    </contour>
    <contour>
      <point x="71.54700538379251" y="160.97102122175895" type="curve" smooth="yes"/>
      <point x="238.5470053837925" y="42.88418876360552" type="line" smooth="yes"/>
      <point x="243.18241599499285" y="39.606458486841625"/>
      <point x="246.20573277048675" y="34.51480838540467"/>
      <point x="246.86478108764004" y="28.87599622172147" type="curve" smooth="yes"/>
      <point x="258.14492163599937" y="-67.63679665951392"/>
      <point x="198.95443593941528" y="-143.6802658178271"/>
      <point x="16.21615905599321" y="-54.346110423625674" type="curve" smooth="yes"/>
      <point x="2.7689285740866656" y="-47.77224424747338"/>
      <point x="1.0541965289169093" y="-29.261911631557673"/>
      <point x="13.06499882536378" y="-20.329702927595257" type="curve" smooth="yes"/>
      <point x="64.12780088546019" y="17.64474655150671"/>
      <point x="61.97482937020765" y="68.5416253093219"/>
      <point x="40.84539403499534" y="138.88773663946165" type="curve" smooth="yes"/>
      <point x="35.38765677311424" y="157.05815089540334"/>
      <point x="56.05612956925239" y="171.92472455673894"/>
    </contour>
    <contour>
      <point x="28.208946176616653" y="-16.637358243601625" type="curve" smooth="yes"/>
      <point x="99.67801319945002" y="-28.254889723353706"/>
      <point x="127.18172031563601" y="-6.956205523254835"/>
      <point x="128.00320384463407" y="38.93304382176568" type="curve" smooth="yes"/>
      <point x="128.50641861796564" y="67.04334353242673"/>
      <point x="168.5000109286975" y="66.32740073933991"/>
      <point x="167.99679615536593" y="38.21710102867888" type="curve" smooth="yes"/>
      <point x="166.82204208650836" y="-27.40634786825658"/>
      <point x="123.99465781398732" y="-72.73266588381468"/>
      <point x="21.79105382338333" y="-56.119134517501834" type="curve" smooth="yes"/>
      <point x="-5.959505704893566" y="-51.6081899602224"/>
      <point x="0.4583866483397416" y="-12.126413686322207"/>
    </contour>
    <contour>
      <point x="75.3921058056716" y="157.41148814307036" type="curve" smooth="yes"/>
      <point x="163.39210580567158" y="51.34547096508824" type="line" smooth="yes"/>
      <point x="170.48327456280475" y="42.79851611047396"/>
      <point x="160.44133683825788" y="30.789266367332498"/>
      <point x="150.7740698938761" y="36.25544066523217" type="curve" smooth="yes"/>
      <point x="144.58232396511235" y="39.756446963046514" type="line" smooth="yes"/>
      <point x="134.9150570207308" y="45.22262126094603"/>
      <point x="140.02935565330634" y="60.018111862938895"/>
      <point x="151.0086139481441" y="58.34748356071694" type="curve" smooth="yes"/>
      <point x="230.0086139481441" y="46.32666828054565" type="line" smooth="yes"/>
      <point x="257.80348662188607" y="42.09733878501482"/>
      <point x="251.7862587255978" y="2.5525165140255277"/>
      <point x="223.9913860518559" y="6.781846009556348" type="curve" smooth="yes"/>
      <point x="144.9913860518559" y="18.802661289727638" type="line" smooth="yes"/>
      <point x="140.14440779507916" y="19.540188255445607"/>
      <point x="135.73840992298352" y="22.03147689613494"/>
      <point x="132.6078941943284" y="25.80467388535635" type="curve" smooth="yes"/>
      <point x="44.6078941943284" y="131.87069106333848" type="line" smooth="yes"/>
      <point x="26.65603192643743" y="153.5079925597349"/>
      <point x="57.44024353778066" y="179.04878963946678"/>
    </contour>
  </outline>
</glyph>
<glyph name="E" format="2">
  <advance width="549"/>
  <unicode hex="0045"/>
  <outline>
    <contour>
      <point x="57.0" y="63.22330470336311" type="line" smooth="yes"/>
      <point x="48.888074527927316" y="63.22330470336311"/>
      <point x="44.15161183577539" y="72.37344798257149"/>
      <point x="48.83503419072274" y="78.99680739525937" type="curve" smooth="yes"/>
      <point x="67.94888148979834" y="106.02786947474041"/>
      <point x="73.99999999999999" y="148.35632713276343"/>
      <point x="74.0" y="320.0035713374682" type="curve" smooth="yes"/>
      <point x="74.00000000000001" y="481.94900595463315"/>
      <point x="67.99026267927809" y="521.8688457416187"/>
      <point x="48.90481017927808" y="548.1849788669078" type="curve" smooth="yes"/>
      <point x="44.110157048707926" y="554.7961257639316"/>
      <point x="48.83324042618416" y="564.0559159102154"/>
      <point x="57.0" y="564.0559159102154" type="curve" smooth="yes"/>
      <point x="476.0" y="564.0559159102154" type="line" smooth="yes"/>
      <point x="481.52284749830795" y="564.0559159102154"/>
      <point x="486.0" y="559.5787634085233"/>
      <point x="486.0" y="554.0559159102154" type="curve" smooth="yes"/>
      <point x="486.0" y="443.747258045114" type="line" smooth="yes"/>
      <point x="486.0" y="436.8052534077066"/>
      <point x="479.1000632778142" y="431.9752133603817"/>
      <point x="472.57733537171964" y="434.35122873256296" type="curve" smooth="yes"/>
      <point x="439.93529579083446" y="446.24165079831636"/>
      <point x="401.2575901056034" y="457.76663849769426"/>
      <point x="231.12332319917098" y="455.6683287213846" type="curve"/>
      <point x="240.9692779611908" y="464.8843078119091" type="line"/>
      <point x="238.98008640912445" y="439.56603277209746"/>
      <point x="237.99199533391405" y="406.512741245887"/>
      <point x="236.99739955788087" y="362.90904534398925" type="curve"/>
      <point x="226.9558062577532" y="373.1369873350281" type="line"/>
      <point x="383.7277734215683" y="373.8298280917874"/>
      <point x="416.076607425655" y="376.9647249910799"/>
      <point x="445.47135126887014" y="388.05017709922873" type="curve" smooth="yes"/>
      <point x="452.0116827824767" y="390.51669057361767"/>
      <point x="459.0" y="385.6834002007059"/>
      <point x="459.0" y="378.69343417595167" type="curve" smooth="yes"/>
      <point x="459.0" y="263.4350288425444" type="line" smooth="yes"/>
      <point x="459.0" y="256.53318763981054"/>
      <point x="452.1737849561677" y="251.70632469247914"/>
      <point x="445.66666666666663" y="254.00693842672376" type="curve" smooth="yes"/>
      <point x="416.21305977535417" y="264.42036100834883"/>
      <point x="384.04170967808693" y="267.590140730173"/>
      <point x="226.9558062577532" y="268.2843689022814" type="curve"/>
      <point x="236.99807154563823" y="278.4806519193705" type="line"/>
      <point x="237.99366266389185" y="227.793427286921"/>
      <point x="238.983911124569" y="190.4765672077898"/>
      <point x="240.97509336107632" y="162.31699796754015" type="curve"/>
      <point x="231.11916683801505" y="171.61094228970802" type="line"/>
      <point x="404.9208469587552" y="169.5396555493431"/>
      <point x="453.89960105115273" y="179.26980796343756"/>
      <point x="489.0505026486057" y="199.29224645363263" type="curve" smooth="yes"/>
      <point x="496.38425756309005" y="203.46965442908177"/>
      <point x="505.27557480438725" y="197.2435206762146"/>
      <point x="503.85792714550837" y="188.92336601092472" type="curve" smooth="yes"/>
      <point x="483.85792714550837" y="71.54364033395784" type="line" smooth="yes"/>
      <point x="483.0391384829831" y="66.73818090422668"/>
      <point x="478.87471591015026" y="63.22330470336311"/>
      <point x="474.0" y="63.22330470336311" type="curve" smooth="yes"/>
    </contour>
    <contour>
      <point x="57.0" y="83.22330470336311" type="line"/>
      <point x="474.0" y="83.22330470336311" type="line"/>
      <point x="464.14207285449163" y="74.90296907276839" type="line"/>
      <point x="484.14207285449163" y="192.2826947497353" type="line"/>
      <point x="498.9494973513943" y="181.9138143070274" type="line"/>
      <point x="462.1408434837595" y="160.94709725345965"/>
      <point x="412.87917728529015" y="149.44339168397568"/>
      <point x="230.88083316198495" y="151.6123624136551" type="curve" smooth="yes"/>
      <point x="225.67789242052388" y="151.6743686161337"/>
      <point x="221.39191984329187" y="155.71595622394798"/>
      <point x="221.02490663892368" y="160.90630673582297" type="curve" smooth="yes"/>
      <point x="219.01553065441624" y="189.3231744277953"/>
      <point x="218.0066164466155" y="226.93752873000312"/>
      <point x="217.00192845436177" y="278.08789057555333" type="curve" smooth="yes"/>
      <point x="216.8916206761228" y="283.70384579230216"/>
      <point x="221.42721015835804" y="288.3089973875298"/>
      <point x="227.0441937422468" y="288.2841735926424" type="curve" smooth="yes"/>
      <point x="389.90162886933894" y="287.56443861298595"/>
      <point x="421.79756424700355" y="283.6591439532102"/>
      <point x="452.33333333333337" y="272.86311925836503" type="curve"/>
      <point x="439.0" y="263.4350288425444" type="line"/>
      <point x="439.0" y="378.69343417595167" type="line"/>
      <point x="452.52864873112986" y="369.3366912526746" type="line"/>
      <point x="421.9466313193852" y="357.80349024242946"/>
      <point x="390.14828660488536" y="353.8580077078075"/>
      <point x="227.0441937422468" y="353.1371826446671" type="curve" smooth="yes"/>
      <point x="221.41477744269446" y="353.11230390442"/>
      <point x="216.87422617854867" y="357.73711727307443"/>
      <point x="217.00260044211913" y="363.36512463570597" type="curve" smooth="yes"/>
      <point x="218.0082933735371" y="407.4553267147218"/>
      <point x="219.01933617597322" y="440.85006621439175"/>
      <point x="221.0307220388092" y="466.450828711885" type="curve" smooth="yes"/>
      <point x="221.43580309430553" y="471.6066688147748"/>
      <point x="225.70534138194807" y="475.6030283894592"/>
      <point x="230.87667680082902" y="475.66680780240944" type="curve" smooth="yes"/>
      <point x="404.72510313639924" y="477.810925264511"/>
      <point x="446.0680246918047" y="465.2932863095742"/>
      <point x="479.42266462828036" y="453.14328735766503" type="curve"/>
      <point x="466.0" y="443.747258045114" type="line"/>
      <point x="466.0" y="554.0559159102154" type="line"/>
      <point x="476.0" y="544.0559159102154" type="line"/>
      <point x="57.0" y="544.0559159102154" type="line"/>
      <point x="65.09518982072191" y="559.9268529535229" type="line"/>
      <point x="85.94816441218646" y="531.1735574575291"/>
      <point x="94.00000000000001" y="496.9469282358926"/>
      <point x="94.0" y="320.0035713374682" type="curve" smooth="yes"/>
      <point x="93.99999999999999" y="133.01913553537213"/>
      <point x="85.98669219226983" y="96.89616985431664"/>
      <point x="65.16496580927726" y="67.44980201146686" type="curve"/>
    </contour>
    <contour>
      <point x="413.502653722763" y="424.56724521309445" type="curve" smooth="yes"/>
      <point x="342.7449443067663" y="428.09071395600137"/>
      <point x="224.96944995426713" y="430.9161045927135"/>
      <point x="156.20491545139714" y="429.5067170955507" type="curve"/>
      <point x="166.0" y="439.50461735799473" type="line"/>
      <point x="166.0" y="46.35324701827432" type="line"/>
      <point x="156.19914550754334" y="56.351263874972716" type="line"/>
      <point x="226.92147606883194" y="54.94258107155852"/>
      <point x="340.68117841463237" y="57.05914014669071"/>
      <point x="411.4035089759211" y="61.285188556933264" type="curve" smooth="yes"/>
      <point x="426.3768000814508" y="62.17992509305162"/>
      <point x="427.5697821296086" y="42.21553695234536"/>
      <point x="412.5964910240789" y="41.320800416227" type="curve" smooth="yes"/>
      <point x="341.29929217348945" y="37.06040046240808"/>
      <point x="227.09805334304605" y="34.935096843636266"/>
      <point x="155.80085449245666" y="36.35523016157592" type="curve" smooth="yes"/>
      <point x="150.35670372895325" y="36.46366948334141"/>
      <point x="146.0" y="40.90801638750578"/>
      <point x="146.0" y="46.35324701827432" type="curve" smooth="yes"/>
      <point x="146.0" y="439.50461735799473" type="line" smooth="yes"/>
      <point x="146.0" y="444.94760356960444"/>
      <point x="150.35324122124968" y="449.39098242278874"/>
      <point x="155.79508454860286" y="449.50251762043877" type="curve" smooth="yes"/>
      <point x="225.04832939433382" y="450.9219216508616"/>
      <point x="343.23676100119485" y="448.0910046423407"/>
      <point x="414.497346277237" y="444.5424945662834" type="curve" smooth="yes"/>
      <point x="429.4787832921287" y="443.79647515042785"/>
      <point x="428.4840907376547" y="423.8212257972389"/>
    </contour>
    <contour>
      <point x="387.0" y="240.0" type="curve" smooth="yes"/>
      <point x="156.0" y="240.0" type="line" smooth="yes"/>
      <point x="141.0" y="240.0"/>
      <point x="141.0" y="260.0"/>
      <point x="156.0" y="260.0" type="curve" smooth="yes"/>
      <point x="387.0" y="260.0" type="line" smooth="yes"/>
      <point x="402.0" y="260.0"/>
      <point x="402.0" y="240.0"/>
    </contour>
    <contour>
      <point x="239.3817090983899" y="156.15757565713756" type="curve" smooth="yes"/>
      <point x="164.3817090983899" y="40.89917032373032" type="line" smooth="yes"/>
      <point x="162.01420830106701" y="37.26084543673021"/>
      <point x="157.5698490947733" y="35.56538152836723"/>
      <point x="153.38061815196815" y="36.70240048886555" type="curve" smooth="yes"/>
      <point x="54.38061815196816" y="63.572458173954345" type="line" smooth="yes"/>
      <point x="39.904348357855" y="67.50153094600209"/>
      <point x="45.143112053918685" y="86.80322400481963"/>
      <point x="59.61938184803184" y="82.87415123277188" type="curve" smooth="yes"/>
      <point x="158.61938184803185" y="56.004093547683084" type="line"/>
      <point x="147.6182909016101" y="51.80732371281832" type="line"/>
      <point x="222.6182909016101" y="167.06572904622556" type="line" smooth="yes"/>
      <point x="230.79940594342608" y="179.63829269381043"/>
      <point x="247.5628241402059" y="168.73013930472243"/>
    </contour>
    <contour>
      <point x="64.56596433076557" y="560.5947371912708" type="curve" smooth="yes"/>
      <point x="163.56596433076558" y="446.0434386390501" type="line"/>
      <point x="152.70626045597868" y="448.9466129000478" type="line"/>
      <point x="227.70626045597868" y="475.1095638039501" type="line" smooth="yes"/>
      <point x="241.8692537690583" y="480.05017311998205"/>
      <point x="248.45673285710095" y="461.1661820358759"/>
      <point x="234.29373954402132" y="456.22557271984397" type="curve" smooth="yes"/>
      <point x="159.29373954402132" y="430.06262181594167" type="line" smooth="yes"/>
      <point x="155.4210068552962" y="428.7116602799543"/>
      <point x="151.11600123552702" y="429.86253710430134"/>
      <point x="148.43403566923442" y="432.96579607693934" type="curve" smooth="yes"/>
      <point x="49.43403566923443" y="547.5170946291599" type="line" smooth="yes"/>
      <point x="39.62580374765132" y="558.8660411253084"/>
      <point x="54.75773240918245" y="571.9436836874193"/>
    </contour>
    <contour>
      <point x="484.8764372957795" y="549.450608001498" type="curve" smooth="yes"/>
      <point x="422.8764372957795" y="429.94956198097157" type="line"/>
      <point x="412.5333888725848" y="444.44673785286665" type="line"/>
      <point x="474.5333888725848" y="453.6391260082917" type="line" smooth="yes"/>
      <point x="489.37119081735136" y="455.83904269941456"/>
      <point x="492.3044130721818" y="436.0553067730591"/>
      <point x="477.4666111274152" y="433.85539008193626" type="curve" smooth="yes"/>
      <point x="415.4666111274152" y="424.6630019265112" type="line" smooth="yes"/>
      <point x="407.3957709915633" y="423.46638426088"/>
      <point x="401.36606168965056" y="431.91783422317565"/>
      <point x="405.1235627042205" y="439.16017779840627" type="curve" smooth="yes"/>
      <point x="467.1235627042205" y="558.6612238189327" type="line" smooth="yes"/>
      <point x="474.0315245672966" y="571.975879762602"/>
      <point x="491.7843991588556" y="562.7652639451672"/>
    </contour>
    <contour>
      <point x="502.6177519470705" y="185.53012673658094" type="curve" smooth="yes"/>
      <point x="420.6177519470705" y="46.23009084283105" type="line"/>
      <point x="408.6666666666667" y="60.73108490240077" type="line"/>
      <point x="470.6666666666667" y="82.65139511918375" type="line" smooth="yes"/>
      <point x="484.80880229039764" y="87.65139511918376"/>
      <point x="491.47546895706427" y="68.79521428754249"/>
      <point x="477.3333333333333" y="63.79521428754248" type="curve" smooth="yes"/>
      <point x="415.3333333333333" y="41.8749040707595" type="line" smooth="yes"/>
      <point x="406.5348732853444" y="38.76417868879357"/>
      <point x="398.64812501546623" y="48.33366021515767"/>
      <point x="403.3822480529295" y="56.37589813032921" type="curve" smooth="yes"/>
      <point x="485.3822480529295" y="195.67593402407908" type="line" smooth="yes"/>
      <point x="492.9916035185531" y="208.60256194468482"/>
      <point x="510.22710741269407" y="198.45675465718668"/>
    </contour>
    <contour>
      <point x="458.0090178829183" y="374.35320413766345" type="curve" smooth="yes"/>
      <point x="396.0090178829183" y="245.6597699617118" type="line"/>
      <point x="384.8822112484543" y="259.7731760857884" type="line"/>
      <point x="446.8822112484543" y="273.2082049283328" type="line" smooth="yes"/>
      <point x="461.54197537713696" y="276.38488805565134"/>
      <point x="465.7775528802283" y="256.83853588407453"/>
      <point x="451.1177887515457" y="253.661852756756" type="curve" smooth="yes"/>
      <point x="389.1177887515457" y="240.2268239142116" type="line" smooth="yes"/>
      <point x="380.979149054838" y="238.46322941317376"/>
      <point x="374.3766434238681" y="246.83794522047066"/>
      <point x="377.9909821170817" y="254.3402300382882" type="curve" smooth="yes"/>
      <point x="439.9909821170817" y="383.0336642142399" type="line" smooth="yes"/>
      <point x="446.501327174514" y="396.54719103861726"/>
      <point x="464.51936294035056" y="387.86673096204083"/>
    </contour>
    <contour>
      <point x="235.4702336066395" y="357.8215283257761" type="curve" smooth="yes"/>
      <point x="164.4702336066395" y="244.68444333592853" type="line"/>
      <point x="152.29915078897753" y="259.2899792850832" type="line"/>
      <point x="223.29915078897753" y="287.5742505325451" type="line" smooth="yes"/>
      <point x="237.2341197166023" y="293.1255243490788"/>
      <point x="244.63581813864724" y="274.5455657789124"/>
      <point x="230.70084921102247" y="268.9942919623787" type="curve" smooth="yes"/>
      <point x="159.70084921102247" y="240.71002071491682" type="line" smooth="yes"/>
      <point x="150.71533749967077" y="237.13046225659124"/>
      <point x="142.3884205203874" y="247.12292448107488"/>
      <point x="147.5297663933605" y="255.31555666407147" type="curve" smooth="yes"/>
      <point x="218.5297663933605" y="368.4526416539191" type="line" smooth="yes"/>
      <point x="226.50310138946767" y="381.1579920638784"/>
      <point x="243.4435686027467" y="370.5268787357354"/>
    </contour>
  </outline>
</glyph>
<glyph name="I" format="2">
  <advance width="319"/>
  <unicode hex="0049"/>
  <outline>
    <contour>
      <point x="61.0" y="63.22330470336311" type="line" smooth="yes"/>
      <point x="52.888074527927316" y="63.22330470336311"/>
      <point x="48.15161183577539" y="72.37344798257149"/>
      <point x="52.83503419072274" y="78.99680739525937" type="curve" smooth="yes"/>
      <point x="71.94888148979834" y="106.02786947474041"/>
      <point x="77.99999999999999" y="148.35632713276343"/>
      <point x="78.0" y="320.0035713374682" type="curve" smooth="yes"/>
      <point x="78.00000000000001" y="481.94900595463315"/>
      <point x="71.99026267927809" y="521.8688457416187"/>
      <point x="52.90481017927808" y="548.1849788669078" type="curve" smooth="yes"/>
      <point x="48.110157048707926" y="554.7961257639316"/>
      <point x="52.83324042618416" y="564.0559159102154"/>
      <point x="61.0" y="564.0559159102154" type="curve" smooth="yes"/>
      <point x="258.0" y="564.0559159102154" type="line" smooth="yes"/>
      <point x="266.1667595738159" y="564.0559159102154"/>
      <point x="270.88984295129217" y="554.7961257639316"/>
      <point x="266.09518982072194" y="548.1849788669078" type="curve" smooth="yes"/>
      <point x="247.0097373207219" y="521.8688457416187"/>
      <point x="241.00000000000003" y="481.94900595463315"/>
      <point x="241.0" y="320.0035713374682" type="curve" smooth="yes"/>
      <point x="240.99999999999997" y="148.35632713276343"/>
      <point x="247.0511185102017" y="106.02786947474041"/>
      <point x="266.16496580927725" y="78.99680739525937" type="curve" smooth="yes"/>
      <point x="270.8483881642246" y="72.37344798257149"/>
      <point x="266.1119254720727" y="63.22330470336311"/>
      <point x="258.0" y="63.22330470336311" type="curve" smooth="yes"/>
    </contour>
    <contour>
      <point x="61.0" y="83.22330470336311" type="line"/>
      <point x="258.0" y="83.22330470336311" type="line"/>
      <point x="249.83503419072275" y="67.44980201146686" type="line"/>
      <point x="229.01330780773017" y="96.89616985431664"/>
      <point x="220.99999999999997" y="133.01913553537213"/>
      <point x="221.0" y="320.0035713374682" type="curve" smooth="yes"/>
      <point x="221.00000000000003" y="496.9469282358926"/>
      <point x="229.05183558781349" y="531.1735574575291"/>
      <point x="249.9048101792781" y="559.9268529535229" type="curve"/>
      <point x="258.0" y="544.0559159102154" type="line"/>
      <point x="61.0" y="544.0559159102154" type="line"/>
      <point x="69.09518982072191" y="559.9268529535229" type="line"/>
      <point x="89.94816441218646" y="531.1735574575291"/>
      <point x="98.00000000000001" y="496.9469282358926"/>
      <point x="98.0" y="320.0035713374682" type="curve" smooth="yes"/>
      <point x="97.99999999999999" y="133.01913553537213"/>
      <point x="89.98669219226983" y="96.89616985431664"/>
      <point x="69.16496580927726" y="67.44980201146686" type="curve"/>
    </contour>
    <contour>
      <point x="170.0" y="439.50461735799473" type="curve" smooth="yes"/>
      <point x="170.0" y="46.35324701827432" type="line" smooth="yes"/>
      <point x="170.0" y="31.353247018274317"/>
      <point x="150.0" y="31.353247018274317"/>
      <point x="150.0" y="46.35324701827432" type="curve" smooth="yes"/>
      <point x="150.0" y="439.50461735799473" type="line" smooth="yes"/>
      <point x="150.0" y="454.50461735799473"/>
      <point x="170.0" y="454.50461735799473"/>
    </contour>
    <contour>
      <point x="260.64425015467447" y="63.57924222329258" type="curve" smooth="yes"/>
      <point x="162.64425015467444" y="36.709184538203786" type="line" smooth="yes"/>
      <point x="160.92179403520555" y="36.23691417810008"/>
      <point x="159.1042859213327" y="36.23457167681754"/>
      <point x="157.38061815196815" y="36.70240048886555" type="curve" smooth="yes"/>
      <point x="58.38061815196816" y="63.572458173954345" type="line" smooth="yes"/>
      <point x="43.904348357855" y="67.50153094600209"/>
      <point x="49.143112053918685" y="86.80322400481963"/>
      <point x="63.61938184803184" y="82.87415123277188" type="curve" smooth="yes"/>
      <point x="162.61938184803185" y="56.004093547683084" type="line"/>
      <point x="157.35574984532556" y="55.99730949834485" type="line"/>
      <point x="255.35574984532556" y="82.86736718343364" type="line" smooth="yes"/>
      <point x="269.8218435654314" y="86.83374241544527"/>
      <point x="275.11034387478026" y="67.54561745530421"/>
    </contour>
    <contour>
      <point x="68.56596433076557" y="560.5947371912708" type="curve" smooth="yes"/>
      <point x="167.56596433076558" y="446.0434386390501" type="line"/>
      <point x="152.40131370289095" y="446.00538397110483" type="line"/>
      <point x="250.40131370289095" y="560.5566825233255" type="line" smooth="yes"/>
      <point x="260.1524636225561" y="571.9547119689892"/>
      <point x="275.34983621677424" y="558.9531787427688"/>
      <point x="265.59868629710905" y="547.5551492971052" type="curve" smooth="yes"/>
      <point x="167.59868629710905" y="433.00385074488463" type="line" smooth="yes"/>
      <point x="163.62034602197647" y="428.35360539183324"/>
      <point x="156.4356646466315" y="428.33557591850473"/>
      <point x="152.43403566923442" y="432.96579607693934" type="curve" smooth="yes"/>
      <point x="53.43403566923443" y="547.5170946291599" type="line" smooth="yes"/>
      <point x="43.62580374765132" y="558.8660411253084"/>
      <point x="58.75773240918245" y="571.9436836874193"/>
    </contour>
  </outline>
</glyph>
<glyph name="K" format="2">
  <advance width="658"/>
  <unicode hex="004B"/>
  <outline>
    <contour>
      <point x="57.0" y="63.22330470336311" type="line" smooth="yes"/>
      <point x="48.888074527927316" y="63.22330470336311"/>
      <point x="44.15161183577539" y="72.37344798257149"/>
      <point x="48.83503419072274" y="78.99680739525937" type="curve" smooth="yes"/>
      <point x="67.94888148979834" y="106.02786947474041"/>
      <point x="73.99999999999999" y="148.35632713276343"/>
      <point x="74.0" y="320.0035713374682" type="curve" smooth="yes"/>
      <point x="74.00000000000001" y="481.94900595463315"/>
      <point x="67.99026267927809" y="521.8688457416187"/>
      <point x="48.90481017927808" y="548.1849788669078" type="curve" smooth="yes"/>
      <point x="44.110157048707926" y="554.7961257639316"/>
      <point x="48.83324042618416" y="564.0559159102154"/>
      <point x="57.0" y="564.0559159102154" type="curve" smooth="yes"/>
      <point x="254.0" y="564.0559159102154" type="line" smooth="yes"/>
      <point x="262.1729791729705" y="564.0559159102154"/>
      <point x="266.8944935432613" y="554.783669182006"/>
      <point x="262.08721810243867" y="548.1740026701558" type="curve" smooth="yes"/>
      <point x="244.97889836325118" y="524.6512631379309"/>
      <point x="238.89971705053483" y="490.2496887053734"/>
      <point x="236.99879263506955" y="367.93144313780317" type="curve"/>
      <point x="220.99462156805967" y="376.08279580781846" type="line"/>
      <point x="388.90407223996823" y="502.19140204927567"/>
      <point x="427.3853372236925" y="533.874160848754"/>
      <point x="437.8203878304214" y="558.0226173630758" type="curve" smooth="yes"/>
      <point x="439.40286467813286" y="561.6847340869986"/>
      <point x="443.01059755437274" y="564.0559159102154"/>
      <point x="447.0" y="564.0559159102154" type="curve" smooth="yes"/>
      <point x="660.0" y="564.0559159102154" type="line" smooth="yes"/>
      <point x="670.6230959910605" y="564.0559159102154"/>
      <point x="673.9178709392258" y="549.6806402669744"/>
      <point x="664.3551638661232" y="545.0541078863118" type="curve" smooth="yes"/>
      <point x="607.5496788420132" y="517.5710516916378"/>
      <point x="559.2158730139752" y="483.24230776956074"/>
      <point x="330.00075800440857" y="311.2970331157025" type="curve"/>
      <point x="330.2875242228637" y="327.07252005678464" type="line"/>
      <point x="552.4154075350799" y="147.46546262147524"/>
      <point x="618.759309492426" y="109.59849189785513"/>
      <point x="672.5481242855186" y="82.12917723127839" type="curve" smooth="yes"/>
      <point x="681.9047820778536" y="77.35084221657692"/>
      <point x="678.5061663110569" y="63.22330470336311"/>
      <point x="668.0" y="63.22330470336311" type="curve" smooth="yes"/>
      <point x="435.0" y="63.22330470336311" type="line" smooth="yes"/>
      <point x="431.0481814955443" y="63.22330470336311"/>
      <point x="427.46701529959995" y="65.55056001872146"/>
      <point x="425.86196141680716" y="69.16174701547057" type="curve" smooth="yes"/>
      <point x="415.4216906747072" y="92.65115777644152"/>
      <point x="373.6059359325465" y="129.13078707395047"/>
      <point x="220.79833688908542" y="249.93347098751528" type="curve"/>
      <point x="236.99876566067542" y="257.93529003754446" type="line"/>
      <point x="238.90823948369928" y="136.4171200492924"/>
      <point x="246.01218555027273" y="102.51378809567021"/>
      <point x="262.24271304597534" y="78.88525504239897" type="curve" smooth="yes"/>
      <point x="266.8005560240005" y="72.24991041257081"/>
      <point x="262.04995223395287" y="63.22330470336311"/>
      <point x="254.0" y="63.22330470336311" type="curve" smooth="yes"/>
    </contour>
    <contour>
      <point x="57.0" y="83.22330470336311" type="line"/>
      <point x="254.0" y="83.22330470336311" type="line"/>
      <point x="245.75728695402466" y="67.56135436432726" type="line"/>
      <point x="228.0411166364386" y="93.35269824007626"/>
      <point x="219.0854896708053" y="124.979862073279"/>
      <point x="217.00123433932458" y="257.6210591485596" type="curve" smooth="yes"/>
      <point x="216.86876549783307" y="266.0513245988714"/>
      <point x="226.58755332796505" y="270.8516902372624"/>
      <point x="233.20166311091458" y="265.62287819858875" type="curve" smooth="yes"/>
      <point x="401.91165854939663" y="132.2484885766609"/>
      <point x="432.61126870851405" y="103.2187714844083"/>
      <point x="444.13803858319284" y="77.28486239125566" type="curve"/>
      <point x="435.0" y="83.22330470336311" type="line"/>
      <point x="668.0" y="83.22330470336311" type="line"/>
      <point x="663.4518757144814" y="64.31743217544783" type="line"/>
      <point x="609.2536840960834" y="91.99581076869366"/>
      <point x="541.5309337568177" y="130.54639517686394"/>
      <point x="317.7124757771363" y="311.52040905577866" type="curve" smooth="yes"/>
      <point x="312.6462987877927" y="315.61679321041237"/>
      <point x="312.787533374238" y="323.38634286692394"/>
      <point x="317.99924199559143" y="327.2958959968608" type="curve" smooth="yes"/>
      <point x="548.8433914813613" y="500.46318770844994"/>
      <point x="598.4356338700118" y="535.3793453408736"/>
      <point x="655.6448361338768" y="563.0577239341189" type="curve"/>
      <point x="660.0" y="544.0559159102154" type="line"/>
      <point x="447.0" y="544.0559159102154" type="line"/>
      <point x="456.1796121695786" y="550.089214457355" type="line"/>
      <point x="444.6528422948998" y="523.4143365329695"/>
      <point x="418.48158459722805" y="499.3930093802798"/>
      <point x="233.00537843194033" y="360.0908691084884" type="curve" smooth="yes"/>
      <point x="226.35647686090311" y="355.097203136711"/>
      <point x="216.87199613033388" y="359.92790302133045"/>
      <point x="217.00120736493045" y="368.2422217785037" type="curve" smooth="yes"/>
      <point x="219.09384318231662" y="502.89646668801777"/>
      <point x="227.07905954108566" y="534.0427820522917"/>
      <point x="245.91278189756133" y="559.937829150275" type="curve"/>
      <point x="254.0" y="544.0559159102154" type="line"/>
      <point x="57.0" y="544.0559159102154" type="line"/>
      <point x="65.09518982072191" y="559.9268529535229" type="line"/>
      <point x="85.94816441218646" y="531.1735574575291"/>
      <point x="94.00000000000001" y="496.9469282358926"/>
      <point x="94.0" y="320.0035713374682" type="curve" smooth="yes"/>
      <point x="93.99999999999999" y="133.01913553537213"/>
      <point x="85.98669219226983" y="96.89616985431664"/>
      <point x="65.16496580927726" y="67.44980201146686" type="curve"/>
    </contour>
    <contour>
      <point x="166.0" y="439.50461735799473" type="curve" smooth="yes"/>
      <point x="166.0" y="243.63603896932108" type="line"/>
      <point x="166.0" y="46.35324701827432" type="line" smooth="yes"/>
      <point x="166.0" y="31.353247018274317"/>
      <point x="146.0" y="31.353247018274317"/>
      <point x="146.0" y="46.35324701827432" type="curve" smooth="yes"/>
      <point x="146.0" y="243.63603896932108" type="line"/>
      <point x="146.0" y="439.50461735799473" type="line" smooth="yes"/>
      <point x="146.0" y="454.50461735799473"/>
      <point x="166.0" y="454.50461735799473"/>
    </contour>
    <contour>
      <point x="502.02633434889026" y="431.52443601197353" type="curve" smooth="yes"/>
      <point x="296.02633434889026" y="275.96094415093313" type="line" smooth="yes"/>
      <point x="250.44836813460148" y="241.53505813016332"/>
      <point x="222.62765118263138" y="235.83896281156848"/>
      <point x="156.3312743791831" y="233.64152761129577" type="curve"/>
      <point x="155.6687256208169" y="253.63055032734638" type="line"/>
      <point x="222.66655395025305" y="255.85123558062062"/>
      <point x="252.49174219684429" y="249.28870703619862"/>
      <point x="290.17802063215214" y="219.67957032587577" type="curve" smooth="yes"/>
      <point x="502.1526986675139" y="54.23641256942015" type="line" smooth="yes"/>
      <point x="513.9774469942327" y="45.00736456814928"/>
      <point x="501.67204965920484" y="29.241033465857605"/>
      <point x="489.8473013324861" y="38.47008146712848" type="curve" smooth="yes"/>
      <point x="277.82197936784786" y="203.9528973059771" type="line" smooth="yes"/>
      <point x="243.5196698285312" y="230.90333695665578"/>
      <point x="217.31315800463494" y="235.66281058509665"/>
      <point x="156.3312743791831" y="233.64152761129577" type="curve" smooth="yes"/>
      <point x="143.00525923514937" y="233.19982843905166"/>
      <point x="142.34271047678317" y="253.18885115510224"/>
      <point x="155.6687256208169" y="253.63055032734638" type="curve" smooth="yes"/>
      <point x="217.32359208235883" y="255.6741397414764"/>
      <point x="241.5851521207177" y="259.90447390476976"/>
      <point x="283.97366565110974" y="291.9213068429755" type="curve" smooth="yes"/>
      <point x="489.97366565110974" y="447.48479870401593" type="line" smooth="yes"/>
      <point x="501.94393767014157" y="456.5243002273514"/>
      <point x="513.9966063679221" y="440.563937535309"/>
    </contour>
    <contour>
      <point x="235.6858789512647" y="363.1314811240928" type="curve" smooth="yes"/>
      <point x="164.6858789512647" y="238.6806876352604" type="line"/>
      <point x="154.04652472850847" y="253.44337980991958" type="line"/>
      <point x="225.04652472850847" y="267.5855154336505" type="line" smooth="yes"/>
      <point x="239.7575359894062" y="270.51572834088785"/>
      <point x="243.66448653238925" y="250.90104665969082"/>
      <point x="228.95347527149153" y="247.97083375245353" type="curve" smooth="yes"/>
      <point x="157.95347527149153" y="233.82869812872258" type="line" smooth="yes"/>
      <point x="149.54483120084615" y="232.15382228564164"/>
      <point x="143.06548869360944" y="241.1442682211601"/>
      <point x="147.3141210487353" y="248.59139030338176" type="curve" smooth="yes"/>
      <point x="218.3141210487353" y="373.0421837922141" type="line" smooth="yes"/>
      <point x="225.7471480498263" y="386.0710022191111"/>
      <point x="243.1189059523557" y="376.1602995509898"/>
    </contour>
    <contour>
      <point x="256.64425015467447" y="63.57924222329258" type="curve" smooth="yes"/>
      <point x="158.64425015467444" y="36.709184538203786" type="line" smooth="yes"/>
      <point x="156.92179403520555" y="36.23691417810008"/>
      <point x="155.1042859213327" y="36.23457167681754"/>
      <point x="153.38061815196815" y="36.70240048886555" type="curve" smooth="yes"/>
      <point x="54.38061815196816" y="63.572458173954345" type="line" smooth="yes"/>
      <point x="39.904348357855" y="67.50153094600209"/>
      <point x="45.143112053918685" y="86.80322400481963"/>
      <point x="59.61938184803184" y="82.87415123277188" type="curve" smooth="yes"/>
      <point x="158.61938184803185" y="56.004093547683084" type="line"/>
      <point x="153.35574984532556" y="55.99730949834485" type="line"/>
      <point x="251.35574984532556" y="82.86736718343364" type="line" smooth="yes"/>
      <point x="265.8218435654314" y="86.83374241544527"/>
      <point x="271.11034387478026" y="67.54561745530421"/>
    </contour>
    <contour>
      <point x="64.56596433076557" y="560.5947371912708" type="curve" smooth="yes"/>
      <point x="163.56596433076558" y="446.0434386390501" type="line"/>
      <point x="148.40131370289095" y="446.00538397110483" type="line"/>
      <point x="246.40131370289095" y="560.5566825233255" type="line" smooth="yes"/>
      <point x="256.1524636225561" y="571.9547119689892"/>
      <point x="271.34983621677424" y="558.9531787427688"/>
      <point x="261.59868629710905" y="547.5551492971052" type="curve" smooth="yes"/>
      <point x="163.59868629710905" y="433.00385074488463" type="line" smooth="yes"/>
      <point x="159.62034602197647" y="428.35360539183324"/>
      <point x="152.4356646466315" y="428.33557591850473"/>
      <point x="148.43403566923442" y="432.96579607693934" type="curve" smooth="yes"/>
      <point x="49.43403566923443" y="547.5170946291599" type="line" smooth="yes"/>
      <point x="39.62580374765132" y="558.8660411253084"/>
      <point x="54.75773240918245" y="571.9436836874193"/>
    </contour>
    <contour>
      <point x="669.543491667642" y="63.3431410674753" type="curve" smooth="yes"/>
      <point x="497.543491667642" y="36.473083382386505" type="line" smooth="yes"/>
      <point x="495.6538253879078" y="36.177877324584024"/>
      <point x="493.719136880718" y="36.43076503560349"/>
      <point x="491.96883622989145" y="37.20175978075035" type="curve" smooth="yes"/>
      <point x="430.96883622989145" y="64.07181746583915" type="line" smooth="yes"/>
      <point x="417.2416053736055" y="70.118563121002"/>
      <point x="425.3039329138226" y="88.42153759604993"/>
      <point x="439.03116377010855" y="82.37479194088708" type="curve" smooth="yes"/>
      <point x="500.03116377010855" y="55.50473425579828" type="line"/>
      <point x="494.456508332358" y="56.23341065416213" type="line"/>
      <point x="666.456508332358" y="83.10346833925092" type="line" smooth="yes"/>
      <point x="681.2767537861897" y="85.41870584071393"/>
      <point x="684.3637371214737" y="65.6583785689383"/>
    </contour>
    <contour>
      <point x="456.1941627678721" y="557.9887737766878" type="curve" smooth="yes"/>
      <point x="505.1941627678721" y="443.43747522446716" type="line"/>
      <point x="490.27372333972374" y="447.7027729804488" type="line"/>
      <point x="654.2737233397238" y="562.2540715326695" type="line" smooth="yes"/>
      <point x="666.570956773405" y="570.8434865230839"/>
      <point x="678.0235100939574" y="554.4471752781757"/>
      <point x="665.7262766602762" y="545.8577602877613" type="curve" smooth="yes"/>
      <point x="501.72627666027626" y="431.30646173554067" type="line" smooth="yes"/>
      <point x="496.52570956427735" y="427.67395128398806"/>
      <point x="489.3006777981691" y="429.7393671135473"/>
      <point x="486.8058372321279" y="435.5717594915223" type="curve" smooth="yes"/>
      <point x="437.8058372321279" y="550.123058043743" type="line" smooth="yes"/>
      <point x="431.90655043241924" y="563.9143021955512"/>
      <point x="450.29487596816347" y="571.780017928496"/>
    </contour>
    <contour>
      <point x="155.74754235410663" y="253.6328517182441" type="curve" smooth="yes"/>
      <point x="209.4271524574391" y="254.98846658665542"/>
      <point x="262.42171518978085" y="256.2928819745029"/>
      <point x="316.1013252931134" y="325.429240263479" type="curve" smooth="yes"/>
      <point x="325.3004888539094" y="337.2772523238089"/>
      <point x="341.0978382676826" y="325.0117009094142"/>
      <point x="331.8986747068866" y="313.1636888490843" type="curve" smooth="yes"/>
      <point x="273.59784083450734" y="238.0754508498174"/>
      <point x="214.55329151827254" y="235.11154461254054"/>
      <point x="156.25245764589337" y="233.63922622039806" type="curve" smooth="yes"/>
      <point x="141.25723852250883" y="233.26053975155799"/>
      <point x="140.75232323072208" y="253.25416524940402"/>
    </contour>
  </outline>
</glyph>
<glyph name="P" format="2">
  <advance width="588"/>
  <unicode hex="0050"/>
  <outline>
    <contour>
      <point x="51.226497308103745" y="24.753252366452656" type="line" smooth="yes"/>
      <point x="45.59116756396543" y="28.73803224275511"/>
      <point x="45.59116756396543" y="37.09840410870473"/>
      <point x="51.22649730810374" y="41.08318398500718" type="curve" smooth="yes"/>
      <point x="69.10751191952471" y="53.726970671238696"/>
      <point x="73.99999999999999" y="100.03051080265801"/>
      <point x="74.0" y="260.60660171779824" type="curve" smooth="yes"/>
      <point x="74.00000000000001" y="427.13805564314487"/>
      <point x="67.60856027932654" y="468.48897492651713"/>
      <point x="47.982640220748614" y="509.4279573498314" type="curve" smooth="yes"/>
      <point x="43.52474493219596" y="518.726970915479"/>
      <point x="54.35350729610182" y="527.8696310337853"/>
      <point x="62.773502691896255" y="521.9157951918595" type="curve" smooth="yes"/>
      <point x="321.7735026918963" y="338.7751388645437" type="line" smooth="yes"/>
      <point x="481.5170453498497" y="225.81939660034234"/>
      <point x="578.0" y="91.7775067852595"/>
      <point x="578.0" y="-5.97265478953014" type="curve" smooth="yes"/>
      <point x="578.0" y="-108.61032444305926"/>
      <point x="477.95721709895474" y="-114.35637366536864"/>
      <point x="310.2264973081037" y="4.247155712042785" type="curve" smooth="yes"/>
      <point x="222.22649730810375" y="66.47255245645896" type="line"/>
      <point x="237.99835674963973" y="74.8187979031309" type="line"/>
      <point x="239.95604717951036" y="-33.156304014055344"/>
      <point x="247.41722197342392" y="-68.27414179017747"/>
      <point x="263.0787454123882" y="-102.18939816160136" type="curve" smooth="yes"/>
      <point x="267.37000259128774" y="-111.48217788033584"/>
      <point x="256.5839547793837" y="-120.45639837871744"/>
      <point x="248.22649730810375" y="-114.5467835272972" type="curve" smooth="yes"/>
    </contour>
    <contour>
      <point x="411.0" y="96.55782848251923" type="curve" smooth="yes"/>
      <point x="411.0" y="136.3068048913254"/>
      <point x="373.12450062986744" y="189.58125492575763"/>
      <point x="312.2264973081037" y="232.64264603529767" type="curve" smooth="yes"/>
      <point x="225.22649730810375" y="294.1609359985273" type="line"/>
      <point x="240.9538340699408" y="301.36611677557806" type="line"/>
      <point x="237.97447934195264" y="270.4675284436756"/>
      <point x="237.0" y="225.53014935904625"/>
      <point x="237.0" y="163.73297269524122" type="curve"/>
      <point x="232.77350269189625" y="171.89793850451846" type="line"/>
      <point x="323.7735026918963" y="107.55122141654267" type="line" smooth="yes"/>
      <point x="376.6149615384356" y="70.18666753836484"/>
      <point x="411.0" y="62.067471056508936"/>
    </contour>
    <contour>
      <point x="62.773502691896255" y="41.08318398500718" type="line"/>
      <point x="259.7735026918963" y="-98.21685190874267" type="line"/>
      <point x="244.92125458761183" y="-110.5742372744385" type="line"/>
      <point x="228.5945308144594" y="-75.21847992236165"/>
      <point x="220.04248372200433" y="-38.10494804357658"/>
      <point x="218.00164325036027" y="74.45623862834154" type="curve" smooth="yes"/>
      <point x="217.853085447353" y="82.64984456090087"/>
      <point x="227.08235193890386" y="87.53384214639587"/>
      <point x="233.77350269189625" y="82.80248407501348" type="curve" smooth="yes"/>
      <point x="321.7735026918963" y="20.57708733059731" type="line" smooth="yes"/>
      <point x="465.18515889370383" y="-80.83026727089464"/>
      <point x="558.0" y="-93.72901934851356"/>
      <point x="558.0" y="-5.9726547895301385" type="curve" smooth="yes"/>
      <point x="558.0" y="87.1420639255546"/>
      <point x="462.39478840362136" y="214.84597673078014"/>
      <point x="310.2264973081037" y="322.4452072459892" type="curve" smooth="yes"/>
      <point x="51.226497308103745" y="505.58586357330495" type="line"/>
      <point x="66.0173597792514" y="518.0737014153331" type="line"/>
      <point x="86.37453917013792" y="475.6093376156088"/>
      <point x="94.00000000000001" y="433.3429968353209"/>
      <point x="94.0" y="260.60660171779824" type="curve" smooth="yes"/>
      <point x="93.99999999999999" y="64.86361530927769"/>
      <point x="84.57054096893108" y="40.16608594192672"/>
      <point x="62.77350269189626" y="24.75325236645266" type="curve"/>
    </contour>
    <contour>
      <point x="431.0" y="96.55782848251923" type="curve" smooth="yes"/>
      <point x="431.0" y="47.09023008092556"/>
      <point x="388.01405824545975" y="37.63139152959499"/>
      <point x="312.2264973081037" y="91.22128979798815" type="curve" smooth="yes"/>
      <point x="221.22649730810375" y="155.56800688596397" type="line" smooth="yes"/>
      <point x="218.5758653245757" y="157.4422867359466"/>
      <point x="217.0" y="160.4866247674687"/>
      <point x="217.0" y="163.73297269524122" type="curve" smooth="yes"/>
      <point x="217.0" y="226.3752096423509"/>
      <point x="218.02606930274135" y="271.96456836647616"/>
      <point x="221.0461659300592" y="303.285686840031" type="curve" smooth="yes"/>
      <point x="221.78319887543032" y="310.929381413268"/>
      <point x="230.50350618517234" y="314.9244246650022"/>
      <point x="236.77350269189625" y="310.4908676170818" type="curve" smooth="yes"/>
      <point x="323.7735026918963" y="248.97257765385217" type="line" smooth="yes"/>
      <point x="392.82596326625014" y="200.14511452410997"/>
      <point x="431.0" y="141.6293329099736"/>
    </contour>
    <contour>
      <point x="161.77350269189625" y="177.55479275401083" type="curve" smooth="yes"/>
      <point x="322.7735026918963" y="63.710600982976715" type="line" smooth="yes"/>
      <point x="421.37135947206013" y="-6.008612156737198"/>
      <point x="484.0" y="-15.2796586327523"/>
      <point x="484.0" y="45.64614023708779" type="curve" smooth="yes"/>
      <point x="484.0" y="111.72219796062545"/>
      <point x="418.15915632734044" y="202.28467170842552"/>
      <point x="311.2264973081037" y="277.8974800312367" type="curve" smooth="yes"/>
      <point x="150.22649730810375" y="391.74167180227084" type="line"/>
      <point x="166.0" y="399.9066376115481" type="line"/>
      <point x="166.0" y="6.755267271827617" type="line" smooth="yes"/>
      <point x="166.0" y="-8.244732728172384"/>
      <point x="146.0" y="-8.244732728172377"/>
      <point x="146.0" y="6.7552672718276225" type="curve" smooth="yes"/>
      <point x="146.0" y="399.9066376115481" type="line" smooth="yes"/>
      <point x="146.0" y="408.0185630836208"/>
      <point x="155.15014327920838" y="412.7550257757727"/>
      <point x="161.77350269189625" y="408.07160342082534" type="curve" smooth="yes"/>
      <point x="322.7735026918963" y="294.2274116497912" type="line" smooth="yes"/>
      <point x="437.756281210377" y="212.92230923970257"/>
      <point x="504.0" y="116.69654504590396"/>
      <point x="504.0" y="45.64614023708779" type="curve" smooth="yes"/>
      <point x="504.0" y="-30.061708538441415"/>
      <point x="433.74654249702496" y="-39.25408541994628"/>
      <point x="311.2264973081037" y="47.38066936442219" type="curve" smooth="yes"/>
      <point x="150.22649730810375" y="161.22486113545634" type="line" smooth="yes"/>
      <point x="137.97904859418784" y="169.88511517330073"/>
      <point x="149.52605397798035" y="186.21504679185523"/>
    </contour>
    <contour>
      <point x="226.2057768202235" y="153.76456211277093" type="curve" smooth="yes"/>
      <point x="155.2057768202235" y="159.4214163622633" type="line"/>
      <point x="163.96209775788486" y="175.44003349442139" type="line"/>
      <point x="235.96209775788486" y="80.687724815424" type="line" smooth="yes"/>
      <point x="245.03740758241653" y="68.74457817859673"/>
      <point x="229.1132120666468" y="56.64416507922115"/>
      <point x="220.03790224211514" y="68.58731171604843" type="curve" smooth="yes"/>
      <point x="148.03790224211514" y="163.33962039504578" type="line" smooth="yes"/>
      <point x="142.80988704719616" y="170.2197108051493"/>
      <point x="148.1804673408068" y="180.0445299401865"/>
      <point x="156.7942231797765" y="179.35823752720387" type="curve" smooth="yes"/>
      <point x="227.7942231797765" y="173.7013832777115" type="line" smooth="yes"/>
      <point x="242.74683905348195" y="172.51004850804674"/>
      <point x="241.15839269392893" y="152.57322734310617"/>
    </contour>
    <contour>
      <point x="246.44138538599455" y="-112.92913358919519" type="curve" smooth="yes"/>
      <point x="148.44138538599455" y="0.2079514006523624" type="line"/>
      <point x="153.4449926492109" y="-2.9128213416167963" type="line"/>
      <point x="54.44499264921088" y="23.2501295622855" type="line" smooth="yes"/>
      <point x="39.94285972904426" y="27.082640588469168"/>
      <point x="45.052874430622495" y="46.418817815358004"/>
      <point x="59.55500735078912" y="42.58630678917434" type="curve" smooth="yes"/>
      <point x="158.5550073507891" y="16.423355885272038" type="line" smooth="yes"/>
      <point x="160.49865513506973" y="15.909703748356762"/>
      <point x="162.24235899256865" y="14.822147674746326"/>
      <point x="163.55861461400545" y="13.302583143002877" type="curve" smooth="yes"/>
      <point x="261.5586146140054" y="-99.83450184684467" type="line" smooth="yes"/>
      <point x="271.3795884207683" y="-111.17242376785283"/>
      <point x="256.26235919275746" y="-124.26705551020335"/>
    </contour>
    <contour>
      <point x="64.54588945623942" y="520.3128071571723" type="curve" smooth="yes"/>
      <point x="163.54588945623942" y="406.4686153861382" type="line"/>
      <point x="238.92867791325696" y="308.4198386755306" type="line" smooth="yes"/>
      <point x="248.0695832148461" y="296.52682180564517"/>
      <point x="232.21222738833217" y="284.338948070193"/>
      <point x="223.07132208674304" y="296.23196494007846" type="curve" smooth="yes"/>
      <point x="148.45411054376058" y="393.344659836958" type="line"/>
      <point x="49.45411054376058" y="507.1888516079921" type="line" smooth="yes"/>
      <point x="39.61114388187538" y="518.5076857923513"/>
      <point x="54.70292279435422" y="531.6316413415315"/>
    </contour>
  </outline>
</glyph>
<glyph name="V" format="2">
  <advance width="652"/>
  <unicode hex="0056"/>
  <outline>
    <contour>
      <point x="298.986843438391" y="311.6616092638267" type="curve" smooth="yes"/>
      <point x="298.99102794637406" y="311.6530247989004" type="line"/>
      <point x="340.99102794637406" y="225.38599749414155" type="line"/>
      <point x="323.008972053626" y="225.38599749414158" type="line"/>
      <point x="365.00026085418045" y="311.6350867750549" type="line" smooth="yes"/>
      <point x="446.0638234389328" y="478.98486932618005"/>
      <point x="459.01520572586094" y="516.5886921874159"/>
      <point x="439.4481388950586" y="548.8727053567272" type="curve" smooth="yes"/>
      <point x="435.4089104248513" y="555.5370923214997"/>
      <point x="440.20709166929555" y="564.0559159102154"/>
      <point x="448.0" y="564.0559159102154" type="curve" smooth="yes"/>
      <point x="652.0" y="564.0559159102154" type="line" smooth="yes"/>
      <point x="660.9694135038401" y="564.0559159102154"/>
      <point x="665.4032497309911" y="553.1596596680856"/>
      <point x="658.9821745703364" y="546.8970585803513" type="curve" smooth="yes"/>
      <point x="630.410895287011" y="519.0309270928838"/>
      <point x="607.3178963913298" y="479.7947210308655"/>
      <point x="516.9061599619297" y="302.7280878710802" type="curve" smooth="yes"/>
      <point x="434.7409180333463" y="141.81178070100214"/>
      <point x="414.94627378643986" y="99.13760267396201"/>
      <point x="413.9934318547922" y="72.86092401455032" type="curve" smooth="yes"/>
      <point x="413.7984049639605" y="67.48263537073652"/>
      <point x="409.3818235036393" y="63.22330470336311"/>
      <point x="404.0" y="63.22330470336311" type="curve" smooth="yes"/>
      <point x="251.0" y="63.22330470336311" type="line" smooth="yes"/>
      <point x="246.29639176727918" y="63.22330470336311"/>
      <point x="242.22857746407604" y="66.50124571052436"/>
      <point x="241.22860163596323" y="71.09732868955217" type="curve" smooth="yes"/>
      <point x="235.29953750066343" y="98.34845815459508"/>
      <point x="220.30611798022218" y="135.84432084073862"/>
      <point x="135.09384003807025" y="302.7280878710802" type="curve" smooth="yes"/>
      <point x="44.68210360867015" y="479.7947210308655"/>
      <point x="21.589104712988977" y="519.0309270928838"/>
      <point x="-6.982174570336385" y="546.8970585803513" type="curve" smooth="yes"/>
      <point x="-13.403249730990815" y="553.1596596680854"/>
      <point x="-8.969413503839709" y="564.0559159102154"/>
      <point x="1.8369701987210296e-15" y="564.0559159102154" type="curve" smooth="yes"/>
      <point x="216.0" y="564.0559159102154" type="line" smooth="yes"/>
      <point x="223.79290833070428" y="564.0559159102154"/>
      <point x="228.5910895751486" y="555.5370923214996"/>
      <point x="224.55186110494137" y="548.8727053567272" type="curve" smooth="yes"/>
      <point x="204.94561117384995" y="516.5240433702637"/>
      <point x="216.8273199176267" y="480.0066869484853"/>
    </contour>
    <contour>
      <point x="281.013156561609" y="302.88968928839404" type="line"/>
      <point x="187.9476709521573" y="493.5811116981656"/>
      <point x="185.23932982916673" y="522.5964609810414"/>
      <point x="207.44813889505863" y="559.2391264637035" type="curve"/>
      <point x="216.0" y="544.0559159102154" type="line"/>
      <point x="-1.8369701987210296e-15" y="544.0559159102154" type="line"/>
      <point x="6.982174570336385" y="561.2147732400795" type="line"/>
      <point x="36.396978317532856" y="532.5259357270945"/>
      <point x="59.8251516828867" y="494.1174724439173"/>
      <point x="152.90615996192975" y="311.8232106811405" type="curve" smooth="yes"/>
      <point x="240.10820848580883" y="141.04258256195178"/>
      <point x="254.7038861355924" y="103.23674448799852"/>
      <point x="260.77139836403677" y="75.34928071717405" type="curve"/>
      <point x="251.0" y="83.22330470336311" type="line"/>
      <point x="404.0" y="83.22330470336311" type="line"/>
      <point x="394.0065681452078" y="73.5856853921759" type="line"/>
      <point x="395.05025978417274" y="102.36774137198974"/>
      <point x="409.094467459969" y="135.5641704475604"/>
      <point x="499.09384003807025" y="311.8232106811405" type="curve" smooth="yes"/>
      <point x="592.1748483171134" y="494.1174724439173"/>
      <point x="615.603021682467" y="532.5259357270945"/>
      <point x="645.0178254296636" y="561.2147732400795" type="curve"/>
      <point x="652.0" y="544.0559159102154" type="line"/>
      <point x="448.0" y="544.0559159102154" type="line"/>
      <point x="456.5518611049414" y="559.2391264637035" type="line"/>
      <point x="478.7940000438149" y="522.5414694962379"/>
      <point x="475.14574332115325" y="493.14488258810894"/>
      <point x="382.99973914581955" y="302.9162117771658" type="curve" smooth="yes"/>
      <point x="340.991027946374" y="216.6312464485615" type="line" smooth="yes"/>
      <point x="337.3411169599734" y="209.13441381228157"/>
      <point x="326.6588830400265" y="209.1344138122816"/>
      <point x="323.00897205362594" y="216.63124644856154" type="curve" smooth="yes"/>
      <point x="281.00897205362594" y="302.8982737533203" type="line"/>
    </contour>
    <contour>
      <point x="456.1009346326757" y="559.9189235067579" type="curve" smooth="yes"/>
      <point x="543.1009346326757" y="439.71077070504487" type="line"/>
      <point x="527.8339539642897" y="440.82255946496184" type="line"/>
      <point x="644.8339539642897" y="561.0307122666749" type="line" smooth="yes"/>
      <point x="655.2961484989788" y="571.7797813202404"/>
      <point x="669.6282405703995" y="557.8301886073215"/>
      <point x="659.1660460357103" y="547.0811195537559" type="curve" smooth="yes"/>
      <point x="542.1660460357103" y="426.8729667520429" type="line" smooth="yes"/>
      <point x="537.8354420056038" y="422.42361708559196"/>
      <point x="530.5393672526428" y="422.95493981914683"/>
      <point x="526.8990653673243" y="427.98475551195986" type="curve" smooth="yes"/>
      <point x="439.8990653673243" y="548.1929083136729" type="line" smooth="yes"/>
      <point x="431.10455397251053" y="560.3443102626865"/>
      <point x="447.30642323786196" y="572.0703254557715"/>
    </contour>
    <contour>
      <point x="6.989436761398606" y="561.2076830875227" type="curve" smooth="yes"/>
      <point x="129.9894367613986" y="440.99953028580967" type="line"/>
      <point x="115.09071301307215" y="439.9668463207502" type="line"/>
      <point x="208.09071301307216" y="560.1749991224633" type="line" smooth="yes"/>
      <point x="217.26933783144398" y="572.0389296028551"/>
      <point x="233.08791180529965" y="559.8007631783593"/>
      <point x="223.90928698692784" y="547.9368326979675" type="curve" smooth="yes"/>
      <point x="130.90928698692784" y="427.7286798962545" type="line" smooth="yes"/>
      <point x="127.25051293397868" y="422.9994920422346"/>
      <point x="120.28680843309235" y="422.5168127136588"/>
      <point x="116.01056323860139" y="426.69599593119506" type="curve" smooth="yes"/>
      <point x="-6.989436761398606" y="546.9041487329081" type="line" smooth="yes"/>
      <point x="-17.717087527359517" y="557.388303875006"/>
      <point x="-3.7382140045623053" y="571.6918382296207"/>
    </contour>
    <contour>
      <point x="132.02761355959055" y="438.1491807142106" type="curve" smooth="yes"/>
      <point x="226.02761355959055" y="240.86638876316385" type="line" smooth="yes"/>
      <point x="253.03811336334462" y="187.82035846179014"/>
      <point x="285.1460067519279" y="121.11574171196771"/>
      <point x="306.2444545892561" y="69.96537986641754" type="curve"/>
      <point x="297.0" y="76.15223689149764" type="line"/>
      <point x="361.0" y="76.15223689149764" type="line"/>
      <point x="351.7555454107439" y="69.96537986641754" type="line"/>
      <point x="372.8539932480721" y="121.11574171196771"/>
      <point x="404.9618866366553" y="187.82035846179014"/>
      <point x="432.088462427506" y="241.10198538423822" type="curve" smooth="yes"/>
      <point x="525.9723864404094" y="438.1491807142106" type="line" smooth="yes"/>
      <point x="532.4245128489719" y="451.6906010535964"/>
      <point x="550.479739968153" y="443.0877658421799"/>
      <point x="544.0276135595906" y="429.5463455027941" type="curve" smooth="yes"/>
      <point x="449.911537572494" y="232.02795693067299" type="line" smooth="yes"/>
      <point x="423.04401785974244" y="179.25516420136762"/>
      <point x="391.1414143658407" y="113.00097493671099"/>
      <point x="370.2444545892561" y="62.33909391657773" type="curve" smooth="yes"/>
      <point x="368.7001256743514" y="58.595075237337966"/>
      <point x="365.05001576143934" y="56.15223689149764"/>
      <point x="361.0" y="56.15223689149764" type="curve" smooth="yes"/>
      <point x="297.0" y="56.15223689149764" type="line" smooth="yes"/>
      <point x="292.94998423856066" y="56.15223689149764"/>
      <point x="289.2998743256486" y="58.595075237337966"/>
      <point x="287.7555454107439" y="62.33909391657773" type="curve" smooth="yes"/>
      <point x="266.8585856341593" y="113.00097493671099"/>
      <point x="234.95598214025776" y="179.25516420136762"/>
      <point x="207.97238644040945" y="232.26355355174735" type="curve" smooth="yes"/>
      <point x="113.97238644040945" y="429.5463455027941" type="line" smooth="yes"/>
      <point x="107.52026003184706" y="443.0877658421799"/>
      <point x="125.57548715102816" y="451.6906010535964"/>
    </contour>
    <contour>
      <point x="252.51934281365692" y="83.10721068301453" type="curve" smooth="yes"/>
      <point x="298.5193428136569" y="76.03614287114905" type="line"/>
      <point x="287.2460290335591" y="68.35678908771085" type="line"/>
      <point x="322.2460290335591" y="223.21317416756474" type="line" smooth="yes"/>
      <point x="324.6403012474261" y="233.80655530860997"/>
      <point x="339.8300185985158" y="233.52433498262042"/>
      <point x="341.8291305979391" y="222.8493260998461" type="curve" smooth="yes"/>
      <point x="370.8291305979391" y="67.99294101999222" type="line"/>
      <point x="359.3773587216292" y="76.01971049327267" type="line"/>
      <point x="402.3773587216292" y="83.09077830513814" type="line" smooth="yes"/>
      <point x="417.17856912429176" y="85.52474022269432"/>
      <point x="420.42385168103334" y="65.78979301914426"/>
      <point x="405.6226412783708" y="63.35583110158807" type="curve" smooth="yes"/>
      <point x="362.6226412783708" y="56.2847632897226" type="line" smooth="yes"/>
      <point x="357.2581129104685" y="55.40260180441765"/>
      <point x="352.17158244298025" y="58.96784986579469"/>
      <point x="351.1708694020609" y="64.31153276300306" type="curve" smooth="yes"/>
      <point x="322.1708694020609" y="219.16791784285698" type="line"/>
      <point x="341.7539709664409" y="218.80406977513834" type="line"/>
      <point x="306.7539709664409" y="63.94768469528443" type="line" smooth="yes"/>
      <point x="305.59606097223343" y="58.824548810975855"/>
      <point x="300.67203960645713" y="55.47031749597769"/>
      <point x="295.4806571863431" y="56.26833091184622" type="curve" smooth="yes"/>
      <point x="249.48065718634308" y="63.339398723711696" type="line" smooth="yes"/>
      <point x="234.65479821686594" y="65.61841294419703"/>
      <point x="237.69348384417978" y="85.38622490349987"/>
    </contour>
  </outline>
</glyph>
<glyph name="W" format="2">
  <advance width="934"/>
  <unicode hex="0057"/>
  <outline>
    <contour>
      <point x="578.0" y="63.22330470336311" type="line" smooth="yes"/>
      <point x="573.0316441860332" y="63.22330470336311"/>
      <point x="568.8167472539928" y="66.87094856590281"/>
      <point x="568.1035626617606" y="71.78785076460274" type="curve" smooth="yes"/>
      <point x="563.7990434227738" y="101.4644595150498"/>
      <point x="530.9331091801827" y="189.9202654360582"/>
      <point x="457.9546596626671" y="344.73093503900446" type="curve"/>
      <point x="476.13081729531206" y="344.9171833699331" type="line"/>
      <point x="407.54366560560896" y="191.33878984007808"/>
      <point x="362.9844703619459" y="101.40998242054113"/>
      <point x="363.9934318547922" y="73.58568539217589" type="curve" smooth="yes"/>
      <point x="364.1987181286779" y="67.9244720545617"/>
      <point x="359.66493414862225" y="63.22330470336311"/>
      <point x="354.0" y="63.22330470336311" type="curve" smooth="yes"/>
      <point x="242.0" y="63.22330470336311" type="line" smooth="yes"/>
      <point x="237.1652810613823" y="63.22330470336311"/>
      <point x="233.02293900416734" y="66.68213637556963"/>
      <point x="232.16042105510311" y="71.43929624286132" type="curve" smooth="yes"/>
      <point x="227.21713036402812" y="98.70368432133782"/>
      <point x="214.07811510068464" y="136.02010753694543"/>
      <point x="136.9214568901923" y="303.0827916582841" type="curve" smooth="yes"/>
      <point x="55.27137152673858" y="479.8748240755207"/>
      <point x="34.340872536778434" y="519.3127018023202"/>
      <point x="7.766620503493266" y="547.1509741248333" type="curve" smooth="yes"/>
      <point x="1.692001947267376" y="553.5145355681354"/>
      <point x="6.202505763211548" y="564.0559159102154"/>
      <point x="15.000000000000002" y="564.0559159102154" type="curve" smooth="yes"/>
      <point x="234.0" y="564.0559159102154" type="line" smooth="yes"/>
      <point x="241.97800111596024" y="564.0559159102154"/>
      <point x="246.74371954823786" y="555.1722106213572"/>
      <point x="242.33145396558655" y="548.5253757178551" type="curve" smooth="yes"/>
      <point x="220.7184671521822" y="515.9666023554541"/>
      <point x="230.4759413100295" y="478.75978078585564"/>
      <point x="318.15322606367704" y="279.4830581258727" type="curve"/>
      <point x="299.84677393632296" y="279.4830581258727" type="line"/>
      <point x="390.99551190886973" y="486.6498497161772"/>
      <point x="395.9796909925949" y="519.2101265459874"/>
      <point x="393.0372749278125" y="553.1932983031573" type="curve" smooth="yes"/>
      <point x="392.53150177215815" y="559.0346802288777"/>
      <point x="397.1367629003158" y="564.0559159102154"/>
      <point x="403.0" y="564.0559159102154" type="curve" smooth="yes"/>
      <point x="547.0" y="564.0559159102154" type="line" smooth="yes"/>
      <point x="552.8632370996844" y="564.0559159102154"/>
      <point x="557.4684982278419" y="559.034680228878"/>
      <point x="556.9627250721875" y="553.1932983031573" type="curve" smooth="yes"/>
      <point x="554.0173643830564" y="519.1761178698492"/>
      <point x="556.8302641679525" y="486.38555305077966"/>
      <point x="647.1546586346442" y="280.8940141067135" type="curve"/>
      <point x="628.8453413653558" y="280.8940141067135" type="line"/>
      <point x="715.2972886189732" y="477.5755838061168"/>
      <point x="725.2815328478179" y="515.9666023554541"/>
      <point x="703.6685460344135" y="548.5253757178551" type="curve" smooth="yes"/>
      <point x="699.2562804517622" y="555.1722106213572"/>
      <point x="704.0219988840398" y="564.0559159102154"/>
      <point x="712.0" y="564.0559159102154" type="curve" smooth="yes"/>
      <point x="919.0" y="564.0559159102154" type="line" smooth="yes"/>
      <point x="927.7974942367878" y="564.0559159102154"/>
      <point x="932.3079980527322" y="553.514535568135"/>
      <point x="926.2333794965067" y="547.1509741248333" type="curve" smooth="yes"/>
      <point x="899.6591274632217" y="519.3127018023202"/>
      <point x="878.7286284732617" y="479.8748240755206"/>
      <point x="797.0785431098077" y="303.0827916582841" type="curve" smooth="yes"/>
      <point x="723.3026151140702" y="143.34019989276376"/>
      <point x="702.0" y="99.29306431164002"/>
      <point x="702.0" y="73.22330470336311" type="curve" smooth="yes"/>
      <point x="702.0" y="67.70045720505517"/>
      <point x="697.5228474983079" y="63.22330470336311"/>
      <point x="692.0" y="63.22330470336311" type="curve" smooth="yes"/>
    </contour>
    <contour>
      <point x="578.0" y="83.22330470336311" type="line"/>
      <point x="692.0" y="83.22330470336311" type="line"/>
      <point x="682.0" y="73.22330470336311" type="line"/>
      <point x="682.0" y="102.2130553390591"/>
      <point x="696.8821213669581" y="133.83365445318142"/>
      <point x="778.9214568901923" y="311.4685068939366" type="curve" smooth="yes"/>
      <point x="863.1504290186331" y="493.84444814025096"/>
      <point x="884.3530308681345" y="532.2433241728902"/>
      <point x="911.7666205034933" y="560.9608576955975" type="curve"/>
      <point x="919.0" y="544.0559159102154" type="line"/>
      <point x="712.0" y="544.0559159102154" type="line"/>
      <point x="720.3314539655865" y="559.5864561025757" type="line"/>
      <point x="744.58254343378" y="523.0535264985781"/>
      <point x="744.159016507418" y="493.5348188712852"/>
      <point x="647.1546586346442" y="272.8461012634641" type="curve" smooth="yes"/>
      <point x="643.6522758744454" y="264.87804315896375"/>
      <point x="632.3477241255546" y="264.87804315896375"/>
      <point x="628.8453413653558" y="272.8461012634641" type="curve" smooth="yes"/>
      <point x="535.24911428082" y="485.7811876985245"/>
      <point x="533.9852240446211" y="519.6691442087667"/>
      <point x="537.0372749278125" y="554.9185335172734" type="curve"/>
      <point x="547.0" y="544.0559159102154" type="line"/>
      <point x="403.0" y="544.0559159102154" type="line"/>
      <point x="412.9627250721875" y="554.9185335172734" type="line"/>
      <point x="416.0178287692747" y="519.6338860071108"/>
      <point x="412.79274686352414" y="486.5294238096856"/>
      <point x="318.15322606367704" y="271.4286301195587" type="curve" smooth="yes"/>
      <point x="314.6493703757829" y="263.46491545710126"/>
      <point x="303.3506296242171" y="263.46491545710126"/>
      <point x="299.84677393632296" y="271.4286301195587" type="curve" smooth="yes"/>
      <point x="201.5180337993699" y="494.9144409864604"/>
      <point x="201.42991033840764" y="523.0722874199475"/>
      <point x="225.66854603441345" y="559.5864561025757" type="curve"/>
      <point x="234.0" y="544.0559159102154" type="line"/>
      <point x="14.999999999999998" y="544.0559159102154" type="line"/>
      <point x="22.233379496506736" y="560.9608576955975" type="line"/>
      <point x="49.646969131865504" y="532.2433241728902"/>
      <point x="70.84957098136702" y="493.844448140251"/>
      <point x="155.0785431098077" y="311.4685068939366" type="curve" smooth="yes"/>
      <point x="233.99846987763505" y="140.58792312728798"/>
      <point x="246.7833187545266" y="102.89477693468938"/>
      <point x="251.83957894489689" y="75.00731316386491" type="curve"/>
      <point x="242.0" y="83.22330470336311" type="line"/>
      <point x="354.0" y="83.22330470336311" type="line"/>
      <point x="344.0065681452078" y="72.86092401455033" type="line"/>
      <point x="342.8417224598067" y="104.98406505868664"/>
      <point x="378.68534042116715" y="175.7665145385353"/>
      <point x="457.86918270468794" y="353.0727153623002" type="curve" smooth="yes"/>
      <point x="461.3561837531936" y="360.8807086390762"/>
      <point x="472.39907362085154" y="360.9938634569452"/>
      <point x="476.0453403373329" y="353.25896369322885" type="curve" smooth="yes"/>
      <point x="550.6915734056372" y="194.9103909153402"/>
      <point x="583.4935465056068" y="105.0135697967654"/>
      <point x="587.8964373382394" y="74.65875864212349" type="curve"/>
    </contour>
    <contour>
      <point x="357.61900909955745" y="63.90113901414044" type="curve" smooth="yes"/>
      <point x="306.61900909955745" y="44.10214914091712" type="line" smooth="yes"/>
      <point x="304.4721055930289" y="43.26868794906327"/>
      <point x="302.10332250600936" y="43.20179940112518"/>
      <point x="299.9128077256071" y="43.91278267906503" type="curve" smooth="yes"/>
      <point x="238.9128077256071" y="63.71177255228835" type="line" smooth="yes"/>
      <point x="224.64550949899498" y="68.3425609638777"/>
      <point x="230.81989404778076" y="87.36562526602722"/>
      <point x="245.0871922743929" y="82.73483685443787" type="curve" smooth="yes"/>
      <point x="306.0871922743929" y="62.93584698121455" type="line"/>
      <point x="299.38099090044255" y="62.746480519362464" type="line"/>
      <point x="350.38099090044255" y="82.54547039258578" type="line" smooth="yes"/>
      <point x="364.36423943427656" y="87.97398404192192"/>
      <point x="371.60225763339145" y="69.32965266347658"/>
    </contour>
    <contour>
      <point x="21.93511960125686" y="561.2603670424157" type="curve" smooth="yes"/>
      <point x="140.93511960125687" y="446.7090684901951" type="line"/>
      <point x="126.46666434475216" y="446.08100344043936" type="line"/>
      <point x="226.46666434475216" y="560.63230199266" type="line" smooth="yes"/>
      <point x="236.33124346841913" y="571.9323054755317"/>
      <point x="251.3979147789148" y="558.7795333106425"/>
      <point x="241.53333565524784" y="547.4795298277708" type="curve" smooth="yes"/>
      <point x="141.53333565524784" y="432.9282312755501" type="line" smooth="yes"/>
      <point x="137.77565577961903" y="428.62376018258186"/>
      <point x="131.18143023250184" y="428.3375096794752"/>
      <point x="127.06488039874314" y="432.3001662257944" type="curve" smooth="yes"/>
      <point x="8.064880398743139" y="546.851464778015" type="line" smooth="yes"/>
      <point x="-2.741796299557384" y="557.2541441799003"/>
      <point x="11.128442902956339" y="571.663046444301"/>
    </contour>
    <contour>
      <point x="695.2811999332444" y="63.77694418737192" type="curve" smooth="yes"/>
      <point x="638.2811999332444" y="43.9779543141486" type="line" smooth="yes"/>
      <point x="636.1560106658073" y="43.23976833547019"/>
      <point x="633.8439893341927" y="43.23976833547019"/>
      <point x="631.7188000667556" y="43.9779543141486" type="curve" smooth="yes"/>
      <point x="574.7188000667556" y="63.77694418737192" type="line" smooth="yes"/>
      <point x="560.5492592927689" y="68.69874408723841"/>
      <point x="567.1116591592576" y="87.5914651192208"/>
      <point x="581.2811999332444" y="82.6696652193543" type="curve" smooth="yes"/>
      <point x="638.2811999332444" y="62.87067534613099" type="line"/>
      <point x="631.7188000667556" y="62.87067534613099" type="line"/>
      <point x="688.7188000667556" y="82.6696652193543" type="line" smooth="yes"/>
      <point x="702.8883408407424" y="87.59146511922079"/>
      <point x="709.4507407072311" y="68.6987440872384"/>
    </contour>
    <contour>
      <point x="411.6977465630117" y="558.9904072442454" type="curve" smooth="yes"/>
      <point x="480.6977465630117" y="437.36804088015936" type="line"/>
      <point x="463.48827694311717" y="437.68241329011516" type="line"/>
      <point x="538.4882769431172" y="559.3047796542012" type="line" smooth="yes"/>
      <point x="546.361572559096" y="572.0723642395254"/>
      <point x="563.3850186728616" y="561.5746367515538"/>
      <point x="555.5117230568828" y="548.8070521662296" type="curve" smooth="yes"/>
      <point x="480.51172305688283" y="427.18468580214346" type="line" smooth="yes"/>
      <point x="476.5209961083422" y="420.71319706888426"/>
      <point x="467.0539620932889" y="420.88613524560793"/>
      <point x="463.3022534369883" y="427.49905821209927" type="curve" smooth="yes"/>
      <point x="394.3022534369883" y="549.1214245761854" type="line" smooth="yes"/>
      <point x="386.90051643594325" y="562.168044420703"/>
      <point x="404.2960095619667" y="572.037027088763"/>
    </contour>
    <contour>
      <point x="719.6973735624424" y="560.4395230597988" type="curve" smooth="yes"/>
      <point x="814.6973735624424" y="445.88822450757823" type="line"/>
      <point x="799.8497550200841" y="446.4956113307562" type="line"/>
      <point x="911.8497550200841" y="561.0469098829769" type="line" smooth="yes"/>
      <point x="922.3362459792264" y="571.7722773528508"/>
      <point x="936.6367359390582" y="557.7902894073277"/>
      <point x="926.1502449799159" y="547.0649219374538" type="curve" smooth="yes"/>
      <point x="814.1502449799159" y="432.51362338523325" type="line" smooth="yes"/>
      <point x="810.0013167056256" y="428.2701848011264"/>
      <point x="803.0910903238175" y="428.5528685485242"/>
      <point x="799.3026264375576" y="433.12101020841123" type="curve" smooth="yes"/>
      <point x="704.3026264375576" y="547.672308760632" type="line" smooth="yes"/>
      <point x="694.7272157131824" y="559.2183691042956"/>
      <point x="710.1219628380672" y="571.9855834034624"/>
    </contour>
    <contour>
      <point x="816.1345226863663" y="435.43515851285815" type="curve" smooth="yes"/>
      <point x="644.1345226863663" y="49.35485598500319" type="line" smooth="yes"/>
      <point x="640.5867283681812" y="41.39128910319213"/>
      <point x="629.2578921301506" y="41.46465600489576"/>
      <point x="625.8135370913845" y="49.47350488423861" type="curve" smooth="yes"/>
      <point x="462.8135370913845" y="428.4827396002281" type="line"/>
      <point x="481.13317689756764" y="428.36107121497315" type="line"/>
      <point x="312.13317689756764" y="49.35183649898365" type="line" smooth="yes"/>
      <point x="308.59587502957544" y="41.418877481544875"/>
      <point x="297.3222247786218" y="41.45739326220231"/>
      <point x="293.8392098529667" y="49.41433679004816" type="curve" smooth="yes"/>
      <point x="124.83920985296668" y="435.4946393179031" type="line" smooth="yes"/>
      <point x="118.82424279282922" y="449.2358245384531"/>
      <point x="137.1458230868959" y="457.2557806186364"/>
      <point x="143.16079014703334" y="443.5145953980864" type="curve" smooth="yes"/>
      <point x="312.1607901470333" y="57.434292870231424" type="line"/>
      <point x="293.86682310243236" y="57.49679316129593" type="line"/>
      <point x="462.86682310243236" y="436.5060278772855" type="line" smooth="yes"/>
      <point x="466.4166092510137" y="444.4669848688785"/>
      <point x="477.7427293190851" y="444.39176337137826"/>
      <point x="481.1864629086155" y="436.3843594920305" type="curve" smooth="yes"/>
      <point x="644.1864629086155" y="57.37512477604098" type="line"/>
      <point x="625.8654773136337" y="57.493773675276394" type="line"/>
      <point x="797.8654773136337" y="443.5740762031313" type="line" smooth="yes"/>
      <point x="803.9696655813386" y="457.27586023268066"/>
      <point x="822.2387109540712" y="449.1369425424075"/>
    </contour>
    <contour>
      <point x="318.99635073479993" y="275.18571084659993" type="curve" smooth="yes"/>
      <point x="312.99635073479993" y="53.15418155402401" type="line" smooth="yes"/>
      <point x="312.59115082062624" y="38.15965545182412"/>
      <point x="292.5984493510264" y="38.69992200405569"/>
      <point x="293.00364926520007" y="53.69444810625558" type="curve" smooth="yes"/>
      <point x="299.00364926520007" y="275.72597739883145" type="line" smooth="yes"/>
      <point x="299.40884917937376" y="290.7205035010313"/>
      <point x="319.4015506489736" y="290.1802369487998"/>
    </contour>
    <contour>
      <point x="647.9990988239634" y="276.7358090031107" type="curve" smooth="yes"/>
      <point x="644.9990988239634" y="53.29006614816171" type="line" smooth="yes"/>
      <point x="644.7977258009963" y="38.291417912216545"/>
      <point x="624.7995281530694" y="38.5599152761727"/>
      <point x="625.0009011760366" y="53.55856351211787" type="curve" smooth="yes"/>
      <point x="628.0009011760366" y="277.0043063670669" type="line" smooth="yes"/>
      <point x="628.2022741990037" y="292.00295460301203"/>
      <point x="648.2004718469306" y="291.73445723905587"/>
    </contour>
    <contour>
      <point x="481.9820936002164" y="431.8353795397605" type="curve" smooth="yes"/>
      <point x="476.9820936002164" y="348.3967793597478" type="line" smooth="yes"/>
      <point x="476.0848385906632" y="333.4236389594233"/>
      <point x="456.1206513902304" y="334.61997897216094"/>
      <point x="457.0179063997836" y="349.5931193724855" type="curve" smooth="yes"/>
      <point x="462.0179063997836" y="433.03171955249815" type="line" smooth="yes"/>
      <point x="462.9151614093368" y="448.0048599528227"/>
      <point x="482.8793486097696" y="446.80851994008503"/>
    </contour>
  </outline>
</glyph>
<glyph name="backslash" format="2">
  <advance width="469"/>
  <unicode hex="005C"/>
  <outline>
    <contour>
      <point x="463.89297291799886" y="24.763591718172282" type="line" smooth="yes"/>
      <point x="467.3153800762531" y="18.10857161681916"/>
      <point x="462.48345931413303" y="10.190296114372044"/>
      <point x="455.0" y="10.190296114372046" type="curve" smooth="yes"/>
      <point x="314.0" y="10.190296114372046" type="line" smooth="yes"/>
      <point x="310.25310577009094" y="10.190296114372046"/>
      <point x="306.8205925729559" y="12.284897619253083"/>
      <point x="305.10702708200114" y="15.617000510571811" type="curve" smooth="yes"/>
      <point x="5.1070270820011245" y="598.9800949894735" type="line" smooth="yes"/>
      <point x="1.6846199237468165" y="605.6351150908267"/>
      <point x="6.516540685866844" y="613.5533905932738"/>
      <point x="14.000000000000002" y="613.5533905932738" type="curve" smooth="yes"/>
      <point x="155.0" y="613.5533905932738" type="line" smooth="yes"/>
      <point x="158.746894229909" y="613.5533905932738"/>
      <point x="162.17940742704414" y="611.4587890883928"/>
      <point x="163.89297291799886" y="608.126686197074" type="curve" smooth="yes"/>
    </contour>
    <contour>
      <point x="446.10702708200114" y="15.61700051057181" type="line"/>
      <point x="146.10702708200114" y="598.9800949894735" type="line"/>
      <point x="155.0" y="593.5533905932738" type="line"/>
      <point x="13.999999999999998" y="593.5533905932738" type="line"/>
      <point x="22.892972917998875" y="608.126686197074" type="line"/>
      <point x="322.89297291799886" y="24.76359171817228" type="line"/>
      <point x="314.0" y="30.190296114372046" type="line"/>
      <point x="455.0" y="30.190296114372046" type="line"/>
    </contour>
    <contour>
      <point x="114.88500668133449" y="493.5908452783324" type="curve" smooth="yes"/>
      <point x="370.88500668133446" y="-2.091008333437447" type="line" smooth="yes"/>
      <point x="377.76813653725344" y="-15.418518355439172"/>
      <point x="359.9981231745845" y="-24.596024829997834"/>
      <point x="353.11499331866554" y="-11.268514807996109" type="curve" smooth="yes"/>
      <point x="97.11499331866551" y="484.41333880377374" type="line" smooth="yes"/>
      <point x="90.2318634627465" y="497.74084882577546"/>
      <point x="108.00187682541548" y="506.9183553003341"/>
    </contour>
    <contour>
      <point x="457.77571984143555" y="10.583247693454151" type="curve" smooth="yes"/>
      <point x="364.77571984143555" y="-16.286809991634673" type="line" smooth="yes"/>
      <point x="362.20713126809505" y="-17.028940347924127"/>
      <point x="359.44832403450886" y="-16.71157867889595"/>
      <point x="357.11534228107394" y="-15.405592131123957" type="curve" smooth="yes"/>
      <point x="309.11534228107394" y="11.464465553964867" type="line" smooth="yes"/>
      <point x="296.02659644046315" y="18.791452132353974"/>
      <point x="305.7959118783153" y="36.24311325316833"/>
      <point x="318.88465771892606" y="28.916126674779225" type="curve" smooth="yes"/>
      <point x="366.88465771892606" y="2.0460689896904007" type="line"/>
      <point x="359.22428015856445" y="2.927286850201117" type="line"/>
      <point x="452.22428015856445" y="29.79734453528994" type="line" smooth="yes"/>
      <point x="466.6348527899413" y="33.96092429744327"/>
      <point x="472.1862924728124" y="14.746827455607484"/>
    </contour>
    <contour>
      <point x="21.7967557700229" y="609.8152273415941" type="curve" smooth="yes"/>
      <point x="113.7967557700229" y="495.2639287893734" type="line"/>
      <point x="96.80583723212789" y="492.9349499075255" type="line"/>
      <point x="145.80583723212789" y="607.4862484597462" type="line" smooth="yes"/>
      <point x="151.70512403183653" y="621.2774926115544"/>
      <point x="170.09344956758076" y="613.4117768786095"/>
      <point x="164.19416276787211" y="599.6205327268013" type="curve" smooth="yes"/>
      <point x="115.19416276787211" y="485.06923417458063" type="line" smooth="yes"/>
      <point x="112.22518922057661" y="478.1284224356032"/>
      <point x="102.93039895929897" y="476.85436711119917"/>
      <point x="98.2032442299771" y="482.74025529273274" type="curve" smooth="yes"/>
      <point x="6.203244229977099" y="597.2915538449535" type="line" smooth="yes"/>
      <point x="-3.1895108925033666" y="608.9866874999879"/>
      <point x="12.404000647542436" y="621.5103609966285"/>
    </contour>
  </outline>
</glyph>
<glyph name="asciicircum" format="2">
  <advance width="560"/>
  <unicode hex="005E"/>
  <outline>
    <contour>
      <point x="186.8465765204094" y="252.9930948965641" type="line" smooth="yes"/>
      <point x="184.95009337639505" y="250.59267609271012"/>
      <point x="182.05919249957014" y="249.19238815542514"/>
      <point x="179.0" y="249.19238815542514" type="curve" smooth="yes"/>
      <point x="33.0" y="249.19238815542514" type="line" smooth="yes"/>
      <point x="24.594617311072618" y="249.19238815542514"/>
      <point x="19.939253513127408" y="258.93285135078025"/>
      <point x="25.218657220422298" y="265.4733677403875" type="curve" smooth="yes"/>
      <point x="271.2186572204223" y="570.2363904317895" type="line" smooth="yes"/>
      <point x="275.22123825981424" y="575.1950843185065"/>
      <point x="282.77876174018576" y="575.1950843185065"/>
      <point x="286.7813427795777" y="570.2363904317895" type="curve" smooth="yes"/>
      <point x="532.7813427795777" y="265.4733677403875" type="line" smooth="yes"/>
      <point x="538.0607464868723" y="258.93285135078054"/>
      <point x="533.405382688927" y="249.19238815542514"/>
      <point x="525.0" y="249.19238815542514" type="curve" smooth="yes"/>
      <point x="379.0" y="249.19238815542514" type="line" smooth="yes"/>
      <point x="375.94080750042986" y="249.19238815542514"/>
      <point x="373.049906623605" y="250.59267609271012"/>
      <point x="371.15342347959063" y="252.9930948965641" type="curve" smooth="yes"/>
      <point x="271.15342347959063" y="379.5652087289561" type="line"/>
      <point x="286.84657652040937" y="379.5652087289561" type="line"/>
    </contour>
    <contour>
      <point x="171.1534234795906" y="265.39168141428615" type="line"/>
      <point x="271.15342347959063" y="391.96379524667816" type="line" smooth="yes"/>
      <point x="275.15715608288417" y="397.03140423486343"/>
      <point x="282.84284391711583" y="397.03140423486343"/>
      <point x="286.84657652040937" y="391.96379524667816" type="curve" smooth="yes"/>
      <point x="386.84657652040937" y="265.39168141428615" type="line"/>
      <point x="379.0" y="269.19238815542514" type="line"/>
      <point x="525.0" y="269.19238815542514" type="line"/>
      <point x="517.2186572204223" y="252.91140857046278" type="line"/>
      <point x="271.2186572204223" y="557.6744312618648" type="line"/>
      <point x="286.7813427795777" y="557.6744312618648" type="line"/>
      <point x="40.781342779577706" y="252.91140857046278" type="line"/>
      <point x="33.0" y="269.19238815542514" type="line"/>
      <point x="179.0" y="269.19238815542514" type="line"/>
    </contour>
    <contour>
      <point x="133.2032442299771" y="238.58416721865666" type="curve" smooth="yes"/>
      <point x="271.2032442299771" y="410.41111504698773" type="line" smooth="yes"/>
      <point x="275.20623704921894" y="415.3953327158939"/>
      <point x="282.79376295078106" y="415.3953327158939"/>
      <point x="286.7967557700229" y="410.41111504698773" type="curve" smooth="yes"/>
      <point x="424.7967557700229" y="238.58416721865663" type="line" smooth="yes"/>
      <point x="434.1895108925034" y="226.8890335636223"/>
      <point x="418.59599935245757" y="214.3653600669817"/>
      <point x="409.2032442299771" y="226.06049372201605" type="curve" smooth="yes"/>
      <point x="271.2032442299771" y="397.8874415503471" type="line"/>
      <point x="286.7967557700229" y="397.8874415503471" type="line"/>
      <point x="148.7967557700229" y="226.06049372201602" type="line" smooth="yes"/>
      <point x="139.40400064754246" y="214.36536006698168"/>
      <point x="123.81048910749662" y="226.88903356362232"/>
    </contour>
    <contour>
      <point x="184.77350269189625" y="251.0274223461479" type="curve" smooth="yes"/>
      <point x="146.77350269189625" y="224.1573646610591" type="line" smooth="yes"/>
      <point x="144.39805727550174" y="222.47767109878802"/>
      <point x="141.40888143170721" y="221.91574950614788"/>
      <point x="138.5856342536707" y="222.61816445552847" type="curve" smooth="yes"/>
      <point x="30.585634253670698" y="249.48822214061727" type="line" smooth="yes"/>
      <point x="16.029385231458917" y="253.10977076011122"/>
      <point x="20.858116724117522" y="272.518102789727"/>
      <point x="35.4143657463293" y="268.896554170233" type="curve" smooth="yes"/>
      <point x="143.4143657463293" y="242.0264964851442" type="line"/>
      <point x="135.22649730810375" y="240.4872962796136" type="line"/>
      <point x="173.22649730810375" y="267.3573539647024" type="line" smooth="yes"/>
      <point x="185.47394602201965" y="276.01760800254675"/>
      <point x="197.02095140581216" y="259.68767638399225"/>
    </contour>
    <contour>
      <point x="527.4143657463293" y="249.48822214061727" type="curve" smooth="yes"/>
      <point x="419.4143657463293" y="222.61816445552847" type="line" smooth="yes"/>
      <point x="416.5911185682928" y="221.91574950614788"/>
      <point x="413.6019427244982" y="222.47767109878808"/>
      <point x="411.2264973081037" y="224.1573646610591" type="curve" smooth="yes"/>
      <point x="373.2264973081037" y="251.0274223461479" type="line" smooth="yes"/>
      <point x="360.9790485941878" y="259.68767638399225"/>
      <point x="372.5260539779804" y="276.01760800254675"/>
      <point x="384.7735026918963" y="267.3573539647024" type="curve" smooth="yes"/>
      <point x="422.7735026918963" y="240.4872962796136" type="line"/>
      <point x="414.5856342536707" y="242.0264964851442" type="line"/>
      <point x="522.5856342536707" y="268.896554170233" type="line" smooth="yes"/>
      <point x="537.1418832758825" y="272.518102789727"/>
      <point x="541.970614768541" y="253.10977076011122"/>
    </contour>
    <contour>
      <point x="289" y="564" type="curve" smooth="yes"/>
      <point x="289" y="404" type="line"/>
      <point x="289" y="404" type="line"/>
      <point x="289" y="386" type="line" smooth="yes"/>
      <point x="289" y="371"/>
      <point x="269" y="371"/>
      <point x="269" y="386" type="curve" smooth="yes"/>
      <point x="269" y="404" type="line"/>
      <point x="269" y="404" type="line"/>
      <point x="269" y="564" type="line" smooth="yes"/>
      <point x="269" y="579"/>
      <point x="289" y="579"/>
    </contour>
  </outline>
</glyph>
<glyph name="underscore" format="2">
  <advance width="615"/>
  <unicode hex="005F"/>
  <outline>
    <contour>
      <point x="10.0" y="-25.16504294495536" type="line" smooth="yes"/>
      <point x="4.477152501692066" y="-25.16504294495536"/>
      <point x="-1.6908843777454448e-15" y="-20.687890443263292"/>
      <point x="0.0" y="-15.165042944955358" type="curve"/>
      <point x="0.0" y="73.22330470336311" type="line"/>
      <point x="1.6908843777454448e-15" y="78.74615220167105"/>
      <point x="4.477152501692068" y="83.22330470336311"/>
      <point x="10.000000000000002" y="83.22330470336311" type="curve" smooth="yes"/>
      <point x="605.0" y="83.22330470336311" type="line" smooth="yes"/>
      <point x="610.5228474983079" y="83.22330470336311"/>
      <point x="615.0" y="78.74615220167105"/>
      <point x="615.0" y="73.22330470336311" type="curve" smooth="yes"/>
      <point x="615.0" y="-15.165042944955362" type="line" smooth="yes"/>
      <point x="615.0" y="-20.687890443263292"/>
      <point x="610.5228474983079" y="-25.16504294495536"/>
      <point x="605.0" y="-25.16504294495536" type="curve" smooth="yes"/>
    </contour>
    <contour>
      <point x="10.0" y="-5.16504294495536" type="line"/>
      <point x="605.0" y="-5.16504294495536" type="line"/>
      <point x="595.0" y="-15.165042944955358" type="line"/>
      <point x="595.0" y="73.22330470336311" type="line"/>
      <point x="605.0" y="63.22330470336311" type="line"/>
      <point x="9.999999999999998" y="63.22330470336311" type="line"/>
      <point x="20.0" y="73.22330470336311" type="line"/>
      <point x="20.0" y="-15.165042944955362" type="line"/>
    </contour>
    <contour>
      <point x="543.0" y="-52.035100630044155" type="curve" smooth="yes"/>
      <point x="72.0" y="-52.035100630044155" type="line" smooth="yes"/>
      <point x="57.0" y="-52.03510063004415"/>
      <point x="57.0" y="-32.03510063004415"/>
      <point x="72.0" y="-32.035100630044155" type="curve" smooth="yes"/>
      <point x="543.0" y="-32.035100630044155" type="line" smooth="yes"/>
      <point x="558.0" y="-32.03510063004416"/>
      <point x="558.0" y="-52.03510063004416"/>
    </contour>
    <contour>
      <point x="13.976496872406582" y="-5.9896697850375205" type="curve" smooth="yes"/>
      <point x="75.97649687240659" y="-32.859727470126316" type="line"/>
      <point x="63.19330530880338" y="-46.77241301324724" type="line"/>
      <point x="1.1933053088033816" y="68.48599232016002" type="line" smooth="yes"/>
      <point x="-5.912663266001246" y="81.69603435695495"/>
      <point x="11.70072611639199" y="91.17065912336113"/>
      <point x="18.80669469119662" y="77.9606170865662" type="curve" smooth="yes"/>
      <point x="80.80669469119661" y="-37.29778824684107" type="line" smooth="yes"/>
      <point x="85.30002390488136" y="-45.65091663083004"/>
      <point x="76.72632213781918" y="-54.98217135169835"/>
      <point x="68.02350312759341" y="-51.210473789961995" type="curve" smooth="yes"/>
      <point x="6.023503127593419" y="-24.3404161048732" type="line" smooth="yes"/>
      <point x="-7.73955661228334" y="-18.375670796263325"/>
      <point x="0.21343713252982255" y="-0.024924476427647058"/>
    </contour>
    <contour>
      <point x="613.8066946911966" y="68.48599232016002" type="curve" smooth="yes"/>
      <point x="551.8066946911966" y="-46.772413013247245" type="line"/>
      <point x="539.0235031275935" y="-32.859727470126316" type="line"/>
      <point x="601.0235031275935" y="-5.989669785037519" type="line" smooth="yes"/>
      <point x="614.7865628674703" y="-0.024924476427653275"/>
      <point x="622.7395566122833" y="-18.375670796263336"/>
      <point x="608.9764968724065" y="-24.3404161048732" type="curve" smooth="yes"/>
      <point x="546.9764968724065" y="-51.210473789961995" type="line" smooth="yes"/>
      <point x="538.273677862181" y="-54.98217135169822"/>
      <point x="529.6999760951188" y="-45.65091663082976"/>
      <point x="534.1933053088034" y="-37.297788246841066" type="curve" smooth="yes"/>
      <point x="596.1933053088034" y="77.9606170865662" type="line" smooth="yes"/>
      <point x="603.299273883608" y="91.17065912336113"/>
      <point x="620.9126632660012" y="81.69603435695495"/>
    </contour>
  </outline>
</glyph>
<glyph name="i" format="2">
  <advance width="288"/>
  <unicode hex="0069"/>
  <outline>
    <contour>
      <point x="49.0" y="63.22330470336311" type="line" smooth="yes"/>
      <point x="40.888074527927316" y="63.22330470336311"/>
      <point x="36.15161183577539" y="72.37344798257149"/>
      <point x="40.83503419072274" y="78.99680739525937" type="curve" smooth="yes"/>
      <point x="59.977580955428145" y="106.06845664826695"/>
      <point x="65.99999999999999" y="139.81490877455022"/>
      <point x="66.0" y="284.6482322781408" type="curve" smooth="yes"/>
      <point x="66.00000000000001" y="419.87115413647535"/>
      <point x="60.02821918285546" y="451.10583098587796"/>
      <point x="40.904810179278066" y="477.4743007482532" type="curve" smooth="yes"/>
      <point x="36.11015704870796" y="484.0854476452769"/>
      <point x="40.83324042618422" y="493.3452377915607"/>
      <point x="49.0" y="493.3452377915607" type="curve" smooth="yes"/>
      <point x="239.0" y="493.3452377915607" type="line" smooth="yes"/>
      <point x="247.16675957381585" y="493.3452377915607"/>
      <point x="251.88984295129208" y="484.08544764527693"/>
      <point x="247.09518982072194" y="477.4743007482532" type="curve" smooth="yes"/>
      <point x="227.9717808171446" y="451.10583098587796"/>
      <point x="221.9999999999999" y="419.87115413647535"/>
      <point x="222.0" y="284.6482322781408" type="curve" smooth="yes"/>
      <point x="222.0000000000001" y="139.81490877455022"/>
      <point x="228.02241904457188" y="106.06845664826695"/>
      <point x="247.16496580927725" y="78.99680739525937" type="curve" smooth="yes"/>
      <point x="251.8483881642246" y="72.37344798257149"/>
      <point x="247.1119254720727" y="63.22330470336311"/>
      <point x="239.0" y="63.22330470336311" type="curve" smooth="yes"/>
    </contour>
    <contour>
      <point x="49.0" y="83.22330470336311" type="line"/>
      <point x="239.0" y="83.22330470336311" type="line"/>
      <point x="230.83503419072275" y="67.44980201146686" type="line"/>
      <point x="210.04479591933827" y="96.85163893982696"/>
      <point x="202.0000000000001" y="127.34840471141428"/>
      <point x="202.0" y="284.6482322781408" type="curve" smooth="yes"/>
      <point x="201.9999999999999" y="431.8800714923897"/>
      <point x="210.08308379628548" y="460.50596618808964"/>
      <point x="230.90481017927806" y="489.2161748348682" type="curve"/>
      <point x="239.0" y="473.3452377915607" type="line"/>
      <point x="49.0" y="473.3452377915607" type="line"/>
      <point x="57.095189820721934" y="489.2161748348682" type="line"/>
      <point x="77.9169162037145" y="460.50596618808964"/>
      <point x="86.00000000000001" y="431.8800714923897"/>
      <point x="86.0" y="284.6482322781408" type="curve" smooth="yes"/>
      <point x="85.99999999999999" y="127.34840471141428"/>
      <point x="77.95520408066174" y="96.85163893982696"/>
      <point x="57.16496580927726" y="67.44980201146686" type="curve"/>
    </contour>
  </outline>
</glyph>
<glyph name="s" format="2">
  <advance width="495"/>
  <unicode hex="0073"/>
  <outline>
    <contour>
      <point x="320.0" y="185.65328291202417" type="curve" smooth="yes"/>
      <point x="320.0" y="238.54586782819445"/>
      <point x="19.999999999999993" y="215.70711631443461"/>
      <point x="20.0" y="363.84419177103416" type="curve" smooth="yes"/>
      <point x="20.000000000000004" y="450.8518568997948"/>
      <point x="119.06921768827637" y="500.41630560342617"/>
      <point x="275.0" y="500.41630560342617" type="curve" smooth="yes"/>
      <point x="326.4965704572263" y="500.41630560342617"/>
      <point x="379.00062923533653" y="494.01857097845146"/>
      <point x="437.56535642198594" y="484.73667952127454" type="curve" smooth="yes"/>
      <point x="442.42326063437537" y="483.966752949858"/>
      <point x="446.0" y="479.778494844754"/>
      <point x="446.0" y="474.8599564173221" type="curve" smooth="yes"/>
      <point x="446.0" y="367.3797256769669" type="line" smooth="yes"/>
      <point x="446.0" y="359.9215477734364"/>
      <point x="438.13022765144086" y="355.08799887420446"/>
      <point x="431.4781126388113" y="358.4605029141517" type="curve" smooth="yes"/>
      <point x="379.95987743870677" y="384.5793321907701"/>
      <point x="309.5182352001045" y="398.3919189857866"/>
      <point x="258.0" y="398.3919189857867" type="curve" smooth="yes"/>
      <point x="213.74041481782956" y="398.39191898578673"/>
      <point x="187.0" y="387.154013952291"/>
      <point x="187.0" y="372.32947314527274" type="curve" smooth="yes"/>
      <point x="187.0" y="318.06984543473527"/>
      <point x="475.0" y="338.28361957017256"/>
      <point x="475.0" y="192.0172439427031" type="curve" smooth="yes"/>
      <point x="475.0" y="101.96431053443591"/>
      <point x="368.91350833166354" y="53.4912482979759"/>
      <point x="213.9651673817161" y="54.03097721368682" type="curve" smooth="yes"/>
      <point x="156.4975642988805" y="54.23115313625719"/>
      <point x="96.99680197960116" y="61.138236850048294"/>
      <point x="32.471382508479024" y="71.11900346469078" type="curve" smooth="yes"/>
      <point x="27.596727192486075" y="71.87301323997826"/>
      <point x="24.0" y="76.06885370845822"/>
      <point x="24.0" y="81.00147929641514" type="curve" smooth="yes"/>
      <point x="24.0" y="189.1888168179569" type="line"/>
      <point x="24.000000000000004" y="196.49292923309793"/>
      <point x="31.57613400815398" y="201.33274253522762"/>
      <point x="38.20358097346649" y="198.26239973759292" type="curve" smooth="yes"/>
      <point x="94.86391927184556" y="172.01297631459124"/>
      <point x="172.43205216380167" y="157.4695167279506"/>
      <point x="233.0" y="157.4695167279506" type="curve" smooth="yes"/>
      <point x="285.3107021623346" y="157.4695167279506"/>
      <point x="320.0" y="169.64300955977222"/>
    </contour>
    <contour>
      <point x="340.0" y="185.65328291202417" type="curve" smooth="yes"/>
      <point x="340.0" y="161.3816870828879"/>
      <point x="312.30309448738575" y="137.4695167279506"/>
      <point x="233.0" y="137.4695167279506" type="curve" smooth="yes"/>
      <point x="169.54390980924217" y="137.4695167279506"/>
      <point x="89.15856791466184" y="152.61412415806498"/>
      <point x="29.79641902653351" y="180.1152338983209" type="curve"/>
      <point x="44.0" y="189.1888168179569" type="line"/>
      <point x="44.0" y="81.00147929641514" type="line"/>
      <point x="35.528617491520976" y="90.8839551281395" type="line"/>
      <point x="98.99289333237004" y="81.06732579466743"/>
      <point x="157.51230484775533" y="74.22773984002822"/>
      <point x="214.0348326182839" y="74.03085588218913" type="curve" smooth="yes"/>
      <point x="350.82189142691396" y="73.55438785109283"/>
      <point x="455.0" y="112.51929112509075"/>
      <point x="455.0" y="192.0172439427031" type="curve" smooth="yes"/>
      <point x="455.0" y="309.1951280562798"/>
      <point x="167.0" y="304.59850623900485"/>
      <point x="167.0" y="372.32947314527274" type="curve" smooth="yes"/>
      <point x="167.0" y="395.0748059679895"/>
      <point x="190.09239944300637" y="418.39191898578673"/>
      <point x="258.0" y="418.3919189857867" type="curve" smooth="yes"/>
      <point x="312.49006377197486" y="418.3919189857866"/>
      <point x="386.03182358921384" y="403.9244419646336"/>
      <point x="440.5218873611887" y="376.2989484397822" type="curve"/>
      <point x="426.0" y="367.3797256769669" type="line"/>
      <point x="426.0" y="474.8599564173221" type="line"/>
      <point x="434.43464357801406" y="464.9832333133697" type="line"/>
      <point x="377.00637221853015" y="474.0850085104638"/>
      <point x="325.49727309196" y="480.41630560342617"/>
      <point x="275.0" y="480.41630560342617" type="curve" smooth="yes"/>
      <point x="137.27682325693434" y="480.41630560342617"/>
      <point x="40.0" y="440.69221282805944"/>
      <point x="40.0" y="363.84419177103416" type="curve"/>
      <point x="39.99999999999999" y="245.70212911568657"/>
      <point x="340.0" y="251.97466609566845"/>
    </contour>
  </outline>
</glyph>
<glyph name="braceleft" format="2">
  <advance width="461"/>
  <unicode hex="007B"/>
  <outline>
    <contour>
      <point x="50.0" y="264.04163056034264" type="line" smooth="yes"/>
      <point x="44.47715250169207" y="264.04163056034264"/>
      <point x="40.0" y="268.5187830620347"/>
      <point x="40.0" y="274.04163056034264" type="curve" smooth="yes"/>
      <point x="40.0" y="355.3589103967956" type="line" smooth="yes"/>
      <point x="40.0" y="360.88175789510353"/>
      <point x="44.47715250169207" y="365.3589103967956"/>
      <point x="50.0" y="365.3589103967956" type="curve" smooth="yes"/>
      <point x="115.0" y="365.3589103967956" type="line" smooth="yes"/>
      <point x="128.08512536861807" y="365.3589103967956"/>
      <point x="147.0" y="368.3855637180596"/>
      <point x="147.0" y="379.4005409571382" type="curve" smooth="yes"/>
      <point x="147.0" y="405.5844064123372"/>
      <point x="90.0" y="477.4964707148954"/>
      <point x="90.0" y="541.3279938488577" type="curve" smooth="yes"/>
      <point x="90.0" y="647.3578185259748"/>
      <point x="224.49778659474876" y="689.3846116821352"/>
      <point x="432.52536945855775" y="657.2769887165292" type="curve" smooth="yes"/>
      <point x="437.4015032446553" y="656.5243910899137"/>
      <point x="441.0" y="652.3278821122562"/>
      <point x="441.0" y="647.3940110268397" type="curve" smooth="yes"/>
      <point x="441.0" y="544.1564209736039" type="line" smooth="yes"/>
      <point x="441.0" y="536.9885681708374"/>
      <point x="433.68068654859917" y="532.1484222464935"/>
      <point x="427.0849887505396" y="534.9546446822242" type="curve" smooth="yes"/>
      <point x="325.41028135907794" y="578.213425445681"/>
      <point x="262.0" y="569.0836345471024"/>
      <point x="262.0" y="534.9640328181787" type="curve" smooth="yes"/>
      <point x="262.0" y="497.3339566298432"/>
      <point x="311.0" y="439.3527608021437"/>
      <point x="311.0" y="384.35028842544403" type="curve" smooth="yes"/>
      <point x="311.0" y="345.9715325532046"/>
      <point x="290.8919012014285" y="314.6480432154815"/>
      <point x="225.53945902530415" y="304.4659243106017" type="curve"/>
      <point x="225.4235366225077" y="324.24487567856124" type="line"/>
      <point x="290.84134757891866" y="314.83659546073244"/>
      <point x="311.0" y="283.4673967544948"/>
      <point x="311.0" y="245.05025253169416" type="curve" smooth="yes"/>
      <point x="311.0" y="190.04778015499463"/>
      <point x="262.0" y="132.06658432729498"/>
      <point x="262.0" y="94.43650813895954" type="curve" smooth="yes"/>
      <point x="262.0" y="60.3169064100359"/>
      <point x="325.41028135907794" y="51.18711551145742"/>
      <point x="427.0849887505396" y="94.44589627491415" type="curve" smooth="yes"/>
      <point x="433.68068654859906" y="97.25211871064481"/>
      <point x="441.0" y="92.41197278630071"/>
      <point x="441.0" y="85.2441199835344" type="curve" smooth="yes"/>
      <point x="441.0" y="-17.993470069701516" type="line" smooth="yes"/>
      <point x="441.0" y="-22.927341155117965"/>
      <point x="437.4015032446552" y="-27.123850132775416"/>
      <point x="432.52536945855775" y="-27.876447759390956" type="curve" smooth="yes"/>
      <point x="224.49778659474876" y="-59.984070724996904"/>
      <point x="90.00000000000001" y="-17.957277568836652"/>
      <point x="90.0" y="88.07254710828062" type="curve" smooth="yes"/>
      <point x="89.99999999999999" y="151.9040702422429"/>
      <point x="147.0" y="223.8161345448009"/>
      <point x="147.0" y="250.0" type="curve" smooth="yes"/>
      <point x="147.0" y="261.01497723907863"/>
      <point x="128.08512536861807" y="264.04163056034264"/>
      <point x="115.0" y="264.04163056034264" type="curve" smooth="yes"/>
    </contour>
    <contour>
      <point x="50.0" y="284.04163056034264" type="line"/>
      <point x="115.0" y="284.04163056034264" type="line" smooth="yes"/>
      <point x="143.0009122362185" y="284.04163056034264"/>
      <point x="167.0" y="273.5709939543327"/>
      <point x="167.0" y="250.0" type="curve" smooth="yes"/>
      <point x="167.0" y="219.61922698938042"/>
      <point x="109.99999999999999" y="143.0861713763327"/>
      <point x="110.0" y="88.07254710828062" type="curve" smooth="yes"/>
      <point x="110.00000000000001" y="-6.47039328006488"/>
      <point x="243.9839968851439" y="-36.739692638454734"/>
      <point x="429.47463054144225" y="-8.110492380012074" type="curve"/>
      <point x="421.0" y="-17.993470069701516" type="line"/>
      <point x="421.0" y="85.2441199835344" type="line"/>
      <point x="434.9150112494604" y="76.04234369215466" type="line"/>
      <point x="302.3641971393578" y="19.646935682471398"/>
      <point x="242.0" y="49.9556229482234"/>
      <point x="242.0" y="94.43650813895954" type="curve" smooth="yes"/>
      <point x="242.0" y="137.38364410432771"/>
      <point x="291.0" y="196.85734793961544"/>
      <point x="291.0" y="245.05025253169416" type="curve" smooth="yes"/>
      <point x="291.0" y="275.88883339552626"/>
      <point x="275.08928008802854" y="296.89625297971725"/>
      <point x="222.5764633774923" y="304.4485584973904" type="curve" smooth="yes"/>
      <point x="211.20871740634655" y="306.0834487203741"/>
      <point x="211.11273913268894" y="322.45948614937413"/>
      <point x="222.46054097469585" y="324.22750986535" type="curve" smooth="yes"/>
      <point x="275.02590991282796" y="332.4173619808151"/>
      <point x="291.0" y="353.48084583638354"/>
      <point x="291.0" y="384.35028842544403" type="curve" smooth="yes"/>
      <point x="291.0" y="432.54319301752275"/>
      <point x="242.0" y="492.01689685281065"/>
      <point x="242.0" y="534.9640328181787" type="curve" smooth="yes"/>
      <point x="242.0" y="579.4449180089152"/>
      <point x="302.3641971393578" y="609.7536052746669"/>
      <point x="434.9150112494604" y="553.3581972649836" type="curve"/>
      <point x="421.0" y="544.1564209736039" type="line"/>
      <point x="421.0" y="647.3940110268397" type="line"/>
      <point x="429.47463054144225" y="637.5110333371503" type="line"/>
      <point x="243.9839968851439" y="666.1402335955929"/>
      <point x="110.0" y="635.870934237203"/>
      <point x="110.0" y="541.3279938488577" type="curve" smooth="yes"/>
      <point x="110.0" y="486.3143695808056"/>
      <point x="167.0" y="409.78131396775785"/>
      <point x="167.0" y="379.4005409571382" type="curve" smooth="yes"/>
      <point x="167.0" y="355.8295470028055"/>
      <point x="143.0009122362185" y="345.3589103967956"/>
      <point x="115.0" y="345.3589103967956" type="curve" smooth="yes"/>
      <point x="50.0" y="345.3589103967956" type="line"/>
      <point x="60.0" y="355.3589103967956" type="line"/>
      <point x="60.0" y="274.04163056034264" type="line"/>
    </contour>
    <contour>
      <point x="367.4414399830035" y="527.9146620773365" type="curve" smooth="yes"/>
      <point x="257.2544546012521" y="545.3004227647115"/>
      <point x="186.0" y="521.8779218550674"/>
      <point x="186.0" y="467.78888860545663" type="curve" smooth="yes"/>
      <point x="186.0" y="421.0567795620417"/>
      <point x="239.0" y="353.88732171447526"/>
      <point x="239.0" y="310.8111831820431" type="curve" smooth="yes"/>
      <point x="239.0" y="261.8695441668543"/>
      <point x="205.38387335085864" y="233.63603896932108"/>
      <point x="112.0" y="233.63603896932108" type="curve" smooth="yes"/>
      <point x="98.66666666666667" y="233.63603896932108"/>
      <point x="98.66666666666667" y="253.63603896932108"/>
      <point x="112.0" y="253.63603896932108" type="curve" smooth="yes"/>
      <point x="205.38387335085864" y="253.63603896932108"/>
      <point x="239.0" y="226.1793851847273"/>
      <point x="239.0" y="176.4608947565991" type="curve" smooth="yes"/>
      <point x="239.0" y="134.07638104394792"/>
      <point x="186.0" y="66.90286758449699"/>
      <point x="186.0" y="20.897402895558624" type="curve" smooth="yes"/>
      <point x="186.0" y="-34.5341229959991"/>
      <point x="258.0445633809102" y="-57.34040551720318"/>
      <point x="367.42877133283054" y="-39.937484597760616" type="curve" smooth="yes"/>
      <point x="382.2424572708338" y="-37.58064159700638"/>
      <point x="385.38491460517275" y="-57.3322228476774"/>
      <point x="370.57122866716946" y="-59.68906584843164" type="curve" smooth="yes"/>
      <point x="240.3778459940147" y="-80.40270619303733"/>
      <point x="166.0" y="-45.07937746133351"/>
      <point x="166.0" y="20.89740289555863" type="curve" smooth="yes"/>
      <point x="166.0" y="73.87804503637251"/>
      <point x="219.0" y="139.65652300544835"/>
      <point x="219.0" y="176.4608947565991" type="curve" smooth="yes"/>
      <point x="219.0" y="217.04204887685216"/>
      <point x="188.22164961495693" y="233.63603896932108"/>
      <point x="112.0" y="233.63603896932108" type="curve"/>
      <point x="112.0" y="253.63603896932108" type="line"/>
      <point x="188.18458319026377" y="253.63603896932108"/>
      <point x="219.0" y="270.88353577110803"/>
      <point x="219.0" y="310.8111831820431" type="curve" smooth="yes"/>
      <point x="219.0" y="348.32851016055946"/>
      <point x="166.0" y="414.1326458720762"/>
      <point x="166.0" y="467.78888860545663" type="curve" smooth="yes"/>
      <point x="166.0" y="532.2635464514324"/>
      <point x="239.21459332446778" y="568.3942549732913"/>
      <point x="370.5585600169965" y="547.670257808513" type="curve" smooth="yes"/>
      <point x="385.3752568153789" y="545.3324177830183"/>
      <point x="382.2581367813859" y="525.5768220518418"/>
    </contour>
    <contour>
      <point x="106.66148222801273" y="252.09181971376898" type="curve" smooth="yes"/>
      <point x="218.66148222801272" y="322.80249783242374" type="line" smooth="yes"/>
      <point x="231.34515334468458" y="330.81027449040465"/>
      <point x="242.02218888865914" y="313.89871300150884"/>
      <point x="229.33851777198728" y="305.8909363435279" type="curve" smooth="yes"/>
      <point x="117.33851777198727" y="235.18025822487317" type="line" smooth="yes"/>
      <point x="104.65484665531541" y="227.17248156689226"/>
      <point x="93.97781111134087" y="244.08404305578807"/>
    </contour>
    <contour>
      <point x="58.7438398189171" y="360.2112567592392" type="curve" smooth="yes"/>
      <point x="120.74383981891711" y="248.48838533176468" type="line" smooth="yes"/>
      <point x="125.49428087671807" y="239.92817701685354"/>
      <point x="116.3867390952137" y="230.34693152190994"/>
      <point x="107.59685929053235" y="234.65760080376975" type="curve" smooth="yes"/>
      <point x="45.59685929053235" y="265.0631923947913" type="line" smooth="yes"/>
      <point x="32.12920204220536" y="271.6679034589928"/>
      <point x="40.935483461140656" y="289.62477979009543"/>
      <point x="54.40314070946765" y="283.02006872589396" type="curve" smooth="yes"/>
      <point x="116.40314070946765" y="252.6144771348724" type="line"/>
      <point x="103.25616018108289" y="238.78369260687748" type="line"/>
      <point x="41.2561601810829" y="350.506564034352" type="line" smooth="yes"/>
      <point x="33.97764063741749" y="363.62232376272766"/>
      <point x="51.46532027525169" y="373.32701648761486"/>
    </contour>
    <contour>
      <point x="439.7038827977849" y="642.4703513876665" type="curve" smooth="yes"/>
      <point x="377.7038827977849" y="532.8688003037515" type="line"/>
      <point x="367.9789195791232" y="547.7401930904364" type="line"/>
      <point x="429.9789195791232" y="554.1041541211155" type="line" smooth="yes"/>
      <point x="444.90051930039067" y="555.6357747524306"/>
      <point x="446.94268014214424" y="535.7403084574074"/>
      <point x="432.0210804208768" y="534.2086878260923" type="curve" smooth="yes"/>
      <point x="370.0210804208768" y="527.8447267954132" type="line" smooth="yes"/>
      <point x="361.9442253434314" y="527.015681779876"/>
      <point x="356.2984541400312" y="535.649182931675"/>
      <point x="360.2961172022151" y="542.716119582098" type="curve" smooth="yes"/>
      <point x="422.2961172022151" y="652.317670666013" type="line" smooth="yes"/>
      <point x="429.68160666097504" y="665.3734948626903"/>
      <point x="447.08937225654483" y="655.5261755843438"/>
    </contour>
    <contour>
      <point x="440.08813111165983" y="81.07208536032226" type="curve" smooth="yes"/>
      <point x="378.08813111165983" y="-53.98530984630827" type="line"/>
      <point x="364.43400092253466" y="-40.9165537806441" type="line"/>
      <point x="426.43400092253466" y="-9.09674862724949" type="line" smooth="yes"/>
      <point x="439.7790830862127" y="-2.247750011051478"/>
      <point x="448.9110812411434" y="-20.041192895955533"/>
      <point x="435.56599907746534" y="-26.890191512153542" type="curve" smooth="yes"/>
      <point x="373.56599907746534" y="-58.709996665548154" type="line" smooth="yes"/>
      <point x="365.1182808844676" y="-63.045557099289674"/>
      <point x="355.9503901552697" y="-54.270708323351066"/>
      <point x="359.91186888834017" y="-45.641240599883986" type="curve" smooth="yes"/>
      <point x="421.91186888834017" y="89.41615460674655" type="line" smooth="yes"/>
      <point x="428.1699208231584" y="103.04835127423627"/>
      <point x="446.3461830464781" y="94.70428202781198"/>
    </contour>
  </outline>
</glyph>
<glyph name="exclamdown" format="2">
  <advance width="289"/>
  <unicode hex="00A1"/>
  <outline>
    <contour>
      <point x="188.01646316147105" y="371.75589473412435" type="curve"/>
      <point x="198.0" y="362.32947314527274" type="line"/>
      <point x="91.0" y="362.32947314527274" type="line"/>
      <point x="100.98353683852895" y="371.75589473412435" type="line"/>
      <point x="87.88336109632836" y="143.73809529915715"/>
      <point x="79.40825737668214" y="116.4812734963834"/>
      <point x="60.261846676542824" y="69.4526023629214" type="curve"/>
      <point x="51.0" y="83.22330470336311" type="line"/>
      <point x="238.0" y="83.22330470336311" type="line"/>
      <point x="228.73815332345717" y="69.4526023629214" type="line"/>
      <point x="209.59174262331786" y="116.4812734963834"/>
      <point x="201.11663890367166" y="143.73809529915715"/>
    </contour>
    <contour>
      <point x="225.0" y="564.0559159102154" type="line" smooth="yes"/>
      <point x="230.52284749830793" y="564.0559159102154"/>
      <point x="235.0" y="559.5787634085233"/>
      <point x="235.0" y="554.0559159102154" type="curve" smooth="yes"/>
      <point x="235.0" y="440.2117241391813" type="line" smooth="yes"/>
      <point x="235.0" y="434.68887664087333"/>
      <point x="230.52284749830793" y="430.2117241391813"/>
      <point x="225.0" y="430.2117241391813" type="curve" smooth="yes"/>
      <point x="64.0" y="430.2117241391813" type="line" smooth="yes"/>
      <point x="58.47715250169207" y="430.2117241391813"/>
      <point x="54.0" y="434.68887664087333"/>
      <point x="54.0" y="440.2117241391813" type="curve" smooth="yes"/>
      <point x="54.0" y="554.0559159102154" type="line" smooth="yes"/>
      <point x="54.0" y="559.5787634085233"/>
      <point x="58.47715250169207" y="564.0559159102154"/>
      <point x="64.0" y="564.0559159102154" type="curve" smooth="yes"/>
    </contour>
    <contour>
      <point x="207.98353683852895" y="372.90305155642113" type="curve" smooth="yes"/>
      <point x="220.88761872456698" y="148.2984040092461"/>
      <point x="228.40203468925642" y="123.31871560040966"/>
      <point x="247.26184667654283" y="76.99400704380483" type="curve" smooth="yes"/>
      <point x="249.93935843003274" y="70.41732686688057"/>
      <point x="245.10083032747758" y="63.22330470336311"/>
      <point x="238.0" y="63.22330470336311" type="curve" smooth="yes"/>
      <point x="51.0" y="63.22330470336311" type="line" smooth="yes"/>
      <point x="43.89916967252242" y="63.22330470336311"/>
      <point x="39.06064156996725" y="70.41732686688056"/>
      <point x="41.738153323457176" y="76.99400704380483" type="curve" smooth="yes"/>
      <point x="60.59796531074352" y="123.31871560040966"/>
      <point x="68.11238127543301" y="148.2984040092461"/>
      <point x="81.01646316147105" y="372.90305155642113" type="curve" smooth="yes"/>
      <point x="81.32046184361052" y="378.19436305457725"/>
      <point x="85.69996296529337" y="382.32947314527274"/>
      <point x="91.0" y="382.32947314527274" type="curve" smooth="yes"/>
      <point x="198.0" y="382.32947314527274" type="line" smooth="yes"/>
      <point x="203.30003703470652" y="382.32947314527274"/>
      <point x="207.6795381563895" y="378.1943630545772"/>
    </contour>
    <contour>
      <point x="225.0" y="544.0559159102154" type="line"/>
      <point x="64.0" y="544.0559159102154" type="line"/>
      <point x="74.0" y="554.0559159102154" type="line"/>
      <point x="74.0" y="440.2117241391813" type="line"/>
      <point x="64.0" y="450.2117241391813" type="line"/>
      <point x="225.0" y="450.2117241391813" type="line"/>
      <point x="215.0" y="440.2117241391813" type="line"/>
      <point x="215.0" y="554.0559159102154" type="line"/>
    </contour>
    <contour>
      <point x="226.74077655955696" y="430.36440486083467" type="curve" smooth="yes"/>
      <point x="146.74077655955696" y="416.2222692371037" type="line" smooth="yes"/>
      <point x="142.74563739381972" y="415.51602173813455"/>
      <point x="138.71972018411583" y="417.29359809170865"/>
      <point x="136.55007854784634" y="420.7218013607074" type="curve" smooth="yes"/>
      <point x="55.55007854784634" y="548.7081287554724" type="line" smooth="yes"/>
      <point x="47.52839781573196" y="561.383010933703"/>
      <point x="64.42824072003928" y="572.0785852431889"/>
      <point x="72.44992145215366" y="559.4037030649583" type="curve" smooth="yes"/>
      <point x="153.44992145215366" y="431.4173756701933" type="line"/>
      <point x="143.25922344044304" y="435.91690779379695" type="line"/>
      <point x="223.25922344044304" y="450.0590434175279" type="line" smooth="yes"/>
      <point x="238.03020235796296" y="452.67020825686336"/>
      <point x="241.5117554770769" y="432.9755697001701"/>
    </contour>
    <contour>
      <point x="233.47972857020233" y="548.7555193801721" type="curve" smooth="yes"/>
      <point x="153.47972857020233" y="420.76919198540713" type="line" smooth="yes"/>
      <point x="151.3225914179565" y="417.3181412128728"/>
      <point x="147.28919393052328" y="415.5186367443225"/>
      <point x="143.28007491830488" y="416.2186059394148" type="curve" smooth="yes"/>
      <point x="62.28007491830488" y="430.3607415631457" type="line" smooth="yes"/>
      <point x="47.50360105425155" y="432.9406291856884"/>
      <point x="50.943451217641794" y="452.64259433775953"/>
      <point x="65.71992508169512" y="450.06270671521685" type="curve" smooth="yes"/>
      <point x="146.71992508169512" y="435.9205710914859" type="line"/>
      <point x="136.52027142979767" y="431.36998504549354" type="line"/>
      <point x="216.52027142979767" y="559.3563124402586" type="line" smooth="yes"/>
      <point x="224.4708662248625" y="572.0759052955622"/>
      <point x="241.43032336526716" y="561.4751122354756"/>
    </contour>
    <contour>
      <point x="155.0" y="269.0918830920368" type="curve" smooth="yes"/>
      <point x="155.0" y="46.35324701827432" type="line" smooth="yes"/>
      <point x="155.0" y="31.353247018274317"/>
      <point x="135.0" y="31.353247018274317"/>
      <point x="135.0" y="46.35324701827432" type="curve" smooth="yes"/>
      <point x="135.0" y="269.0918830920368" type="line" smooth="yes"/>
      <point x="135.0" y="284.0918830920368"/>
      <point x="155.0" y="284.0918830920368"/>
    </contour>
    <contour>
      <point x="99.86102446282148" y="376.96436747732383" type="curve" smooth="yes"/>
      <point x="153.86102446282146" y="273.7267774240879" type="line"/>
      <point x="136.10384322272776" y="273.65898223637265" type="line"/>
      <point x="189.10384322272776" y="376.89657228960857" type="line" smooth="yes"/>
      <point x="195.95449193923153" y="390.2408074555169"/>
      <point x="213.746805493776" y="381.10660916684526"/>
      <point x="206.89615677727224" y="367.7623740009369" type="curve" smooth="yes"/>
      <point x="153.89615677727224" y="264.524783947701" type="line" smooth="yes"/>
      <point x="150.19324920597876" y="257.3119678373195"/>
      <point x="139.8968500154636" y="257.27265718849105"/>
      <point x="136.13897553717854" y="264.45698875998573" type="curve" smooth="yes"/>
      <point x="82.13897553717852" y="367.69457881322165" type="line" smooth="yes"/>
      <point x="75.18663403910188" y="380.98611550745386"/>
      <point x="92.90868296474483" y="390.25590417155604"/>
    </contour>
    <contour>
      <point x="240.77571984143552" y="63.616256282445214" type="curve" smooth="yes"/>
      <point x="147.77571984143552" y="36.74619859735642" type="line" smooth="yes"/>
      <point x="145.9715993773822" y="36.22494245821704"/>
      <point x="144.05716056470277" y="36.2222247396168"/>
      <point x="142.25156743484928" y="36.7383565646696" type="curve" smooth="yes"/>
      <point x="48.25156743484928" y="63.6084142497584" type="line" smooth="yes"/>
      <point x="33.82923175444221" y="67.73106309748448"/>
      <point x="39.326096884743656" y="86.96084400469391"/>
      <point x="53.74843256515072" y="82.83819515696783" type="curve" smooth="yes"/>
      <point x="147.74843256515072" y="55.96813747187903" type="line"/>
      <point x="142.22428015856448" y="55.960295439192215" type="line"/>
      <point x="235.22428015856448" y="82.83035312428102" type="line" smooth="yes"/>
      <point x="249.63485278994133" y="86.99393288643435"/>
      <point x="255.18629247281237" y="67.77983604459854"/>
    </contour>
  </outline>
</glyph>
<glyph name="currency" format="2">
  <advance width="646"/>
  <unicode hex="00A4"/>
  <outline>
    <contour>
      <point x="537.1217673284295" y="232.85217670416256" type="curve"/>
      <point x="525.6666666666666" y="248.11438191683587" type="line"/>
      <point x="527.6666666666666" y="248.82148869802242" type="line" smooth="yes"/>
      <point x="530.7439935147898" y="249.9094880391401"/>
      <point x="534.1586392798438" y="249.42717528771072"/>
      <point x="536.8142322343762" y="247.5294110356788" type="curve" smooth="yes"/>
      <point x="630.8142322343762" y="180.3542668229568" type="line" smooth="yes"/>
      <point x="636.4124064163734" y="176.35364812079084"/>
      <point x="636.3915987022365" y="168.02588204647114"/>
      <point x="630.7735026918963" y="164.05328826020252" type="curve" smooth="yes"/>
      <point x="534.7735026918963" y="96.17103726629394" type="line" smooth="yes"/>
      <point x="531.3282449575624" y="93.73487215941105"/>
      <point x="526.7245729126337" y="93.72340994975787"/>
      <point x="523.2672268541587" y="96.14238897321562" type="curve" smooth="yes"/>
      <point x="428.26722685415865" y="162.61042640475108" type="line"/>
      <point x="437.1025261399701" y="161.29749899345396" type="line"/>
      <point x="370.00638608774744" y="139.40020562928365"/>
      <point x="277.8085073773938" y="138.70991072292247"/>
      <point x="210.7123673251712" y="162.06702364470416" type="curve"/>
      <point x="219.77350269189625" y="163.34618147901597" type="line"/>
      <point x="124.77350269189625" y="96.17103726629394" type="line" smooth="yes"/>
      <point x="121.31332903864502" y="93.72432501199695"/>
      <point x="116.68667096135498" y="93.72432501199695"/>
      <point x="113.22649730810375" y="96.17103726629394" type="curve" smooth="yes"/>
      <point x="17.226497308103742" y="164.05328826020252" type="line" smooth="yes"/>
      <point x="11.59116756396541" y="168.038068136505"/>
      <point x="11.591167563965406" y="176.39844000245455"/>
      <point x="17.22649730810374" y="180.38321987875702" type="curve" smooth="yes"/>
      <point x="112.22649730810375" y="247.55836409147904" type="line"/>
      <point x="109.79316479331548" y="233.67956805280895" type="line"/>
      <point x="75.33475280977765" y="283.1725521422202"/>
      <point x="73.41982068803267" y="351.40666833721554"/>
      <point x="107.8782326715705" y="399.3767913777218" type="curve"/>
      <point x="110.1857677656238" y="385.40666382739215" type="line"/>
      <point x="16.185767765623787" y="452.58180804011414" type="line" smooth="yes"/>
      <point x="10.587593583626408" y="456.58242674228023"/>
      <point x="10.608401297763407" y="464.91019281659965"/>
      <point x="16.22649730810374" y="468.8827866028684" type="curve" smooth="yes"/>
      <point x="112.22649730810375" y="536.765037596777" type="line" smooth="yes"/>
      <point x="115.67175504243778" y="539.20120270366"/>
      <point x="120.27542708736621" y="539.2126649133131"/>
      <point x="123.73277314584135" y="536.7936858898553" type="curve" smooth="yes"/>
      <point x="218.73277314584135" y="470.32564845831985" type="line"/>
      <point x="209.8974738600299" y="471.63857586961694" type="line"/>
      <point x="276.99361391225256" y="493.53586923378725"/>
      <point x="369.1914926226062" y="494.22616414014846"/>
      <point x="436.28763267482884" y="470.8690512183668" type="curve"/>
      <point x="427.2264973081037" y="469.58989338405496" type="line"/>
      <point x="522.2264973081037" y="536.765037596777" type="line" smooth="yes"/>
      <point x="525.6866709613548" y="539.2117498510739"/>
      <point x="530.3133290386452" y="539.2117498510739"/>
      <point x="533.7735026918963" y="536.765037596777" type="curve" smooth="yes"/>
      <point x="629.7735026918963" y="468.8827866028684" type="line" smooth="yes"/>
      <point x="635.4088324360347" y="464.8980067265659"/>
      <point x="635.4088324360347" y="456.53763486061644"/>
      <point x="629.7735026918963" y="452.5528549843139" type="curve" smooth="yes"/>
      <point x="534.7735026918963" y="385.3777107715919" type="line"/>
      <point x="537.2068352066846" y="399.256506810262" type="line"/>
      <point x="571.6652471902223" y="349.76352272085074"/>
      <point x="571.5801793119673" y="280.82229974466884"/>
    </contour>
    <contour>
      <point x="435.0" y="316.4680374315355" type="curve" smooth="yes"/>
      <point x="435.0" y="265.60901676644636"/>
      <point x="393.6058775569556" y="230.8076118445749"/>
      <point x="325.0" y="230.8076118445749" type="curve" smooth="yes"/>
      <point x="256.2902145656412" y="230.8076118445749"/>
      <point x="212.0" y="265.5319876098741"/>
      <point x="212.0" y="316.4680374315355" type="curve" smooth="yes"/>
      <point x="212.0" y="367.32705809662457"/>
      <point x="253.39412244304424" y="402.12846301849606"/>
      <point x="322.0" y="402.12846301849606" type="curve" smooth="yes"/>
      <point x="390.70978543435876" y="402.12846301849606"/>
      <point x="435.0" y="367.40408725319685"/>
    </contour>
    <contour>
      <point x="449.7735026918963" y="338.7751388645437" type="curve" smooth="yes"/>
      <point x="513.3661039152701" y="293.80837930620396"/>
      <point x="513.7657979705658" y="198.81619846250052"/>
      <point x="450.90395619507734" y="152.8334055489982" type="curve" smooth="yes"/>
      <point x="388.75186929456174" y="107.36979105142261"/>
      <point x="260.7754657048855" y="107.80367327044378"/>
      <point x="197.22649730810375" y="152.73957976121778" type="curve" smooth="yes"/>
      <point x="133.63389608472977" y="197.70633931955746"/>
      <point x="133.23420202943404" y="292.69852016326104"/>
      <point x="196.09604380492263" y="338.6813130767633" type="curve" smooth="yes"/>
      <point x="258.24813070543826" y="384.1449275743388"/>
      <point x="386.2245342951145" y="383.7110453553177"/>
    </contour>
    <contour>
      <point x="122.77350269189625" y="398.8792152654002" type="curve" smooth="yes"/>
      <point x="207.77350269189625" y="338.7751388645437" type="line" smooth="yes"/>
      <point x="220.02095140581216" y="330.1148848266993"/>
      <point x="208.47394602201965" y="313.7849532081448"/>
      <point x="196.22649730810375" y="322.4452072459892" type="curve" smooth="yes"/>
      <point x="111.22649730810375" y="382.5492836468457" type="line" smooth="yes"/>
      <point x="98.97904859418786" y="391.2095376846901"/>
      <point x="110.52605397798037" y="407.5394693032446"/>
    </contour>
    <contour>
      <point x="438.2264973081037" y="338.7751388645437" type="curve" smooth="yes"/>
      <point x="523.2264973081037" y="398.8792152654002" type="line" smooth="yes"/>
      <point x="535.4739460220196" y="407.5394693032446"/>
      <point x="547.0209514058122" y="391.2095376846901"/>
      <point x="534.7735026918963" y="382.5492836468457" type="curve" smooth="yes"/>
      <point x="449.7735026918963" y="322.4452072459892" type="line" smooth="yes"/>
      <point x="437.5260539779804" y="313.7849532081448"/>
      <point x="425.9790485941878" y="330.1148848266993"/>
    </contour>
    <contour>
      <point x="27.932186523853566" y="468.7682346367554" type="curve" smooth="yes"/>
      <point x="122.93218652385356" y="398.7646632992872" type="line"/>
      <point x="107.00026297450466" y="390.78677132136204" type="line"/>
      <point x="108.00026297450466" y="528.6725936527388" type="line" smooth="yes"/>
      <point x="108.10904577236327" y="543.6721991909818"/>
      <point x="128.10851982335396" y="543.5271554605036"/>
      <point x="127.99973702549534" y="528.5275499222606" type="curve" smooth="yes"/>
      <point x="126.99973702549534" y="390.6417275908839" type="line" smooth="yes"/>
      <point x="126.94049902959483" y="382.47364781288064"/>
      <point x="117.64362865501107" y="377.81825090795184"/>
      <point x="111.06781347614644" y="382.66383561295874" type="curve" smooth="yes"/>
      <point x="16.067813476146434" y="452.66740695042694" type="line" smooth="yes"/>
      <point x="3.992192711400108" y="461.5656867362073"/>
      <point x="15.85656575910724" y="477.6665144225357"/>
    </contour>
    <contour>
      <point x="537.9997370254953" y="528.6725936527388" type="curve" smooth="yes"/>
      <point x="538.9997370254953" y="390.78677132136204" type="line"/>
      <point x="523.0678134761464" y="398.7646632992872" type="line"/>
      <point x="618.0678134761464" y="468.7682346367554" type="line" smooth="yes"/>
      <point x="630.1434342408927" y="477.6665144225357"/>
      <point x="642.0078072885999" y="461.5656867362073"/>
      <point x="629.9321865238536" y="452.66740695042694" type="curve" smooth="yes"/>
      <point x="534.9321865238536" y="382.66383561295874" type="line" smooth="yes"/>
      <point x="528.3563713449882" y="377.81825090795127"/>
      <point x="519.0595009704052" y="382.4736478128797"/>
      <point x="519.0002629745047" y="390.6417275908839" type="curve" smooth="yes"/>
      <point x="518.0002629745047" y="528.5275499222606" type="line" smooth="yes"/>
      <point x="517.8914801766462" y="543.5271554605036"/>
      <point x="537.8909542276367" y="543.6721991909818"/>
    </contour>
    <contour>
      <point x="121.90544672832347" y="401.61272608127086" type="curve" smooth="yes"/>
      <point x="207.90544672832348" y="338.68022255566814" type="line"/>
      <point x="192.0347927156421" y="331.44362598122007" type="line"/>
      <point x="203.0347927156421" y="462.9654872819179" type="line" smooth="yes"/>
      <point x="204.2849721045726" y="477.9132982084547"/>
      <point x="224.21538667328838" y="476.24639235654746"/>
      <point x="222.9652072843579" y="461.29858143001064" type="curve" smooth="yes"/>
      <point x="211.9652072843579" y="329.7767201293128" type="line" smooth="yes"/>
      <point x="211.3144353167019" y="321.99574372309166"/>
      <point x="202.39576336875362" y="317.9290662682384"/>
      <point x="196.09455327167652" y="322.54012355486475" type="curve" smooth="yes"/>
      <point x="110.09455327167653" y="385.4726270804675" type="line" smooth="yes"/>
      <point x="97.98947902107399" y="394.33079717295266"/>
      <point x="109.80037247772093" y="410.47089617375605"/>
    </contour>
    <contour>
      <point x="442.9648321175403" y="462.2628541045148" type="curve" smooth="yes"/>
      <point x="453.9648321175403" y="331.44809958500355" type="line"/>
      <point x="438.0495842883553" y="338.6471222810991" type="line"/>
      <point x="523.0495842883553" y="401.5796258067018" type="line" smooth="yes"/>
      <point x="535.1050081271042" y="410.5052493741689"/>
      <point x="547.0058395503936" y="394.4313509225036"/>
      <point x="534.9504157116447" y="385.5057273550365" type="curve" smooth="yes"/>
      <point x="449.9504157116447" y="322.5732238294338" type="line" smooth="yes"/>
      <point x="443.6565632042268" y="317.91336623987263"/>
      <point x="434.6913604055214" y="321.9686407235427"/>
      <point x="434.0351678824597" y="329.77224652552934" type="curve" smooth="yes"/>
      <point x="423.0351678824597" y="460.5870010450406" type="line" smooth="yes"/>
      <point x="421.77827808785406" y="475.53424922135105"/>
      <point x="441.7079423229347" y="477.21010228082525"/>
    </contour>
    <contour>
      <point x="520.8782326715705" y="244.5204062978679" type="curve" smooth="yes"/>
      <point x="550.4283147486118" y="285.6575624085421"/>
      <point x="550.3432468703568" y="345.38574877697124"/>
      <point x="520.7931647933154" y="387.82884635147633" type="curve" smooth="yes"/>
      <point x="517.653757250315" y="392.338010837934"/>
      <point x="518.7403375482068" y="398.535448402437"/>
      <point x="523.2264973081037" y="401.7076423901464" type="curve" smooth="yes"/>
      <point x="618.2264973081037" y="468.8827866028684" type="line"/>
      <point x="618.2264973081037" y="452.5528549843139" type="line"/>
      <point x="522.2264973081037" y="520.4351059782224" type="line"/>
      <point x="533.7735026918963" y="520.4351059782224" type="line"/>
      <point x="438.7735026918963" y="453.25996176550046" type="line" smooth="yes"/>
      <point x="436.13682941212204" y="451.3955522095987"/>
      <point x="432.7621129142638" y="450.91914446684837"/>
      <point x="429.71236732517116" y="451.98080393118863" type="curve" smooth="yes"/>
      <point x="366.812518113852" y="473.87712881140277"/>
      <point x="279.0023753512893" y="473.1532974175124"/>
      <point x="216.1025261399701" y="452.6254928423116" type="curve" smooth="yes"/>
      <point x="213.1147430832845" y="451.65040899919006"/>
      <point x="209.84237380459066" y="452.1366837915769"/>
      <point x="207.26722685415865" y="453.9384202536087" type="curve" smooth="yes"/>
      <point x="112.26722685415865" y="520.4064576851441" type="line"/>
      <point x="123.77350269189625" y="520.4351059782224" type="line"/>
      <point x="27.77350269189626" y="452.5528549843139" type="line"/>
      <point x="27.814232234376213" y="468.8538335470682" type="line"/>
      <point x="121.8142322343762" y="401.6786893343462" type="line" smooth="yes"/>
      <point x="126.31540139567306" y="398.46202244566564"/>
      <point x="127.34943404955605" y="392.201849803794"/>
      <point x="124.1217673284295" y="387.7085617840165" type="curve" smooth="yes"/>
      <point x="94.57168525138839" y="346.57140567334227"/>
      <point x="96.6567531296434" y="287.5503260860997"/>
      <point x="126.20683520668452" y="245.10722851159463" type="curve" smooth="yes"/>
      <point x="129.34624274968485" y="240.59806402513706"/>
      <point x="128.25966245179316" y="234.40062646063387"/>
      <point x="123.77350269189625" y="231.22843247292454" type="curve" smooth="yes"/>
      <point x="28.77350269189626" y="164.05328826020252" type="line"/>
      <point x="28.773502691896258" y="180.38321987875702" type="line"/>
      <point x="124.77350269189625" y="112.50096888484846" type="line"/>
      <point x="113.22649730810375" y="112.50096888484846" type="line"/>
      <point x="208.22649730810375" y="179.67611309757046" type="line" smooth="yes"/>
      <point x="210.863170587878" y="181.5405226534722"/>
      <point x="214.23788708573616" y="182.01693039622253"/>
      <point x="217.2876326748288" y="180.95527093188227" type="curve" smooth="yes"/>
      <point x="280.187481886148" y="159.05894605166804"/>
      <point x="367.9976246487107" y="159.78277744555857"/>
      <point x="430.8974738600299" y="180.31058202075937" type="curve" smooth="yes"/>
      <point x="433.88525691671555" y="181.28566586388092"/>
      <point x="437.15762619540925" y="180.79939107149409"/>
      <point x="439.73277314584135" y="178.99765460946224" type="curve" smooth="yes"/>
      <point x="534.7327731458413" y="112.52961717792678" type="line"/>
      <point x="523.2264973081037" y="112.50096888484846" type="line"/>
      <point x="619.2264973081037" y="180.38321987875702" type="line"/>
      <point x="619.1857677656238" y="164.08224131600275" type="line"/>
      <point x="525.1857677656238" y="231.25738552872477" type="line"/>
      <point x="534.3333333333334" y="229.96530786638115" type="line"/>
      <point x="532.3333333333334" y="229.2582010851946" type="line" smooth="yes"/>
      <point x="523.1023749671489" y="225.9945644564047"/>
      <point x="515.1661034472984" y="236.56845709479646"/>
    </contour>
    <contour>
      <point x="415.0" y="316.4680374315355" type="curve" smooth="yes"/>
      <point x="415.0" y="357.396823378572"/>
      <point x="377.2105652157137" y="382.12846301849606"/>
      <point x="322.0" y="382.12846301849606" type="curve" smooth="yes"/>
      <point x="266.7065360515499" y="382.12846301849606"/>
      <point x="232.0" y="357.45827800187084"/>
      <point x="232.0" y="316.4680374315355" type="curve" smooth="yes"/>
      <point x="232.0" y="275.53925148449895"/>
      <point x="269.7894347842863" y="250.8076118445749"/>
      <point x="325.0" y="250.8076118445749" type="curve" smooth="yes"/>
      <point x="380.2934639484501" y="250.8076118445749"/>
      <point x="415.0" y="275.4777968612001"/>
    </contour>
    <contour>
      <point x="438.2264973081037" y="322.4452072459892" type="curve" smooth="yes"/>
      <point x="381.7601353773006" y="362.37295467619396"/>
      <point x="263.12912069762126" y="362.9356747994386"/>
      <point x="207.90395619507737" y="322.5390330337696" type="curve" smooth="yes"/>
      <point x="156.0834839663011" y="284.6328887676489"/>
      <point x="156.35062527412938" y="206.13808349118634"/>
      <point x="208.77350269189625" y="169.06951137977228" type="curve" smooth="yes"/>
      <point x="265.2398646226994" y="129.14176394956752"/>
      <point x="383.87087930237874" y="128.57904382632287"/>
      <point x="439.09604380492266" y="168.97568559199186" type="curve" smooth="yes"/>
      <point x="490.9165160336989" y="206.8818298581124"/>
      <point x="490.6493747258707" y="285.37663513457517"/>
    </contour>
    <contour>
      <point x="524.2264973081037" y="92.6355033603612" type="curve" smooth="yes"/>
      <point x="439.2264973081037" y="152.73957976121778" type="line" smooth="yes"/>
      <point x="426.9790485941878" y="161.39983379906218"/>
      <point x="438.5260539779804" y="177.72976541761668"/>
      <point x="450.7735026918963" y="169.06951137977228" type="curve" smooth="yes"/>
      <point x="535.7735026918963" y="108.96543497891572" type="line" smooth="yes"/>
      <point x="548.0209514058122" y="100.30518094107134"/>
      <point x="536.4739460220196" y="83.97524932251682"/>
    </contour>
    <contour>
      <point x="208.77350269189625" y="152.73957976121778" type="curve" smooth="yes"/>
      <point x="123.77350269189625" y="92.6355033603612" type="line" smooth="yes"/>
      <point x="111.52605397798037" y="83.97524932251682"/>
      <point x="99.97904859418786" y="100.30518094107134"/>
      <point x="112.22649730810375" y="108.96543497891572" type="curve" smooth="yes"/>
      <point x="197.22649730810375" y="169.06951137977228" type="line" smooth="yes"/>
      <point x="209.47394602201965" y="177.72976541761665"/>
      <point x="221.02095140581216" y="161.39983379906215"/>
    </contour>
    <contour>
      <point x="631.0090312312243" y="164.22503546480172" type="curve" smooth="yes"/>
      <point x="536.0090312312243" y="92.80725056496041" type="line" smooth="yes"/>
      <point x="530.3933829955948" y="88.58559627269348"/>
      <point x="522.2895986811425" y="91.31850831905986"/>
      <point x="520.3774955135062" y="98.07881389987938" type="curve" smooth="yes"/>
      <point x="519.3774955135062" y="101.61434780581212" type="line" smooth="yes"/>
      <point x="515.2950126088676" y="116.04810453555277"/>
      <point x="534.5400215818552" y="121.49141507507093"/>
      <point x="538.6225044864938" y="107.05765834533028" type="curve" smooth="yes"/>
      <point x="539.6225044864938" y="103.52212443939754" type="line"/>
      <point x="523.9909687687757" y="108.79368777431651" type="line"/>
      <point x="618.9909687687757" y="180.21147267415782" type="line" smooth="yes"/>
      <point x="630.9807966757927" y="189.22501952099424"/>
      <point x="642.9988591382413" y="173.23858231163814"/>
    </contour>
    <contour>
      <point x="128.62250448649377" y="101.61434780581212" type="curve" smooth="yes"/>
      <point x="127.62250448649377" y="98.07881389987938" type="line" smooth="yes"/>
      <point x="125.7104013188575" y="91.31850831906"/>
      <point x="117.60661700440508" y="88.58559627269355"/>
      <point x="111.99096876877573" y="92.80725056496041" type="curve" smooth="yes"/>
      <point x="16.990968768775723" y="164.22503546480172" type="line" smooth="yes"/>
      <point x="5.001140861758662" y="173.23858231163814"/>
      <point x="17.01920332420722" y="189.22501952099424"/>
      <point x="29.009031231224277" y="180.21147267415782" type="curve" smooth="yes"/>
      <point x="124.00903123122427" y="108.79368777431651" type="line"/>
      <point x="108.37749551350623" y="103.52212443939754" type="line"/>
      <point x="109.37749551350623" y="107.05765834533028" type="line" smooth="yes"/>
      <point x="113.45997841814489" y="121.49141507507092"/>
      <point x="132.70498739113242" y="116.04810453555275"/>
    </contour>
    <contour>
      <point x="537.7411531175776" y="232.00713707335106" type="curve" smooth="yes"/>
      <point x="451.74115311757765" y="153.5182843616443" type="line" smooth="yes"/>
      <point x="447.94241130948853" y="150.05132056786627"/>
      <point x="442.133377905034" y="150.03105693820478"/>
      <point x="438.31054124405506" y="153.47143440810066" type="curve" smooth="yes"/>
      <point x="427.31054124405506" y="163.3709293447123" type="line" smooth="yes"/>
      <point x="416.16087450046354" y="173.4051174786297"/>
      <point x="429.5397920123534" y="188.27133980341844"/>
      <point x="440.68945875594494" y="178.23715166950103" type="curve" smooth="yes"/>
      <point x="451.68945875594494" y="168.3376567328894" type="line"/>
      <point x="438.25884688242235" y="168.29080677934576" type="line"/>
      <point x="524.2588468824224" y="246.7796594910525" type="line" smooth="yes"/>
      <point x="535.3382386956985" y="256.891389167419"/>
      <point x="548.8205449308537" y="242.11886674971754"/>
    </contour>
    <contour>
      <point x="220.9411722007412" y="164.31252738725263" type="curve" smooth="yes"/>
      <point x="209.9411722007412" y="153.70592566945444" type="line" smooth="yes"/>
      <point x="206.12760294768682" y="150.02874292487363"/>
      <point x="200.1080246351098" y="149.96372924474707"/>
      <point x="196.21592435605015" y="153.55768789818597" type="curve" smooth="yes"/>
      <point x="111.21592435605014" y="232.04654060989273" type="line" smooth="yes"/>
      <point x="100.19563784758657" y="242.2226540758175"/>
      <point x="113.76378913548629" y="256.9163694204356"/>
      <point x="124.78407564394986" y="246.74025595451084" type="curve" smooth="yes"/>
      <point x="209.78407564394985" y="168.2514032428041" type="line"/>
      <point x="196.0588277992588" y="168.10316547153562" type="line"/>
      <point x="207.0588277992588" y="178.7097671893338" type="line" smooth="yes"/>
      <point x="217.8567576508197" y="189.1215254904456"/>
      <point x="231.7391020523021" y="174.72428568836443"/>
    </contour>
  </outline>
</glyph>
<glyph name="brokenbar" format="2">
  <advance width="385"/>
  <unicode hex="00A6"/>
  <outline>
    <contour>
      <point x="123.0" y="324.8528137423857" type="line" smooth="yes"/>
      <point x="117.47715250169206" y="324.8528137423857"/>
      <point x="113.0" y="329.32996624407775"/>
      <point x="113.0" y="334.8528137423857" type="curve" smooth="yes"/>
      <point x="113.0" y="603.5533905932738" type="line" smooth="yes"/>
      <point x="113.0" y="609.0762380915817"/>
      <point x="117.47715250169206" y="613.5533905932738"/>
      <point x="123.0" y="613.5533905932738" type="curve" smooth="yes"/>
      <point x="262.0" y="613.5533905932738" type="line" smooth="yes"/>
      <point x="267.52284749830795" y="613.5533905932738"/>
      <point x="272.0" y="609.0762380915817"/>
      <point x="272.0" y="603.5533905932738" type="curve" smooth="yes"/>
      <point x="272.0" y="334.8528137423857" type="line" smooth="yes"/>
      <point x="272.0" y="329.32996624407775"/>
      <point x="267.52284749830795" y="324.8528137423857"/>
      <point x="262.0" y="324.8528137423857" type="curve" smooth="yes"/>
    </contour>
    <contour>
      <point x="123.0" y="278.8908729652601" type="line"/>
      <point x="133.0" y="288.8908729652601" type="line"/>
      <point x="133.0" y="20.190296114372046" type="line"/>
      <point x="123.0" y="30.190296114372046" type="line"/>
      <point x="262.0" y="30.190296114372046" type="line"/>
      <point x="252.0" y="20.19029611437205" type="line"/>
      <point x="252.0" y="288.8908729652601" type="line"/>
      <point x="262.0" y="278.8908729652601" type="line"/>
    </contour>
    <contour>
      <point x="123.0" y="344.8528137423857" type="line"/>
      <point x="262.0" y="344.8528137423857" type="line"/>
      <point x="252.0" y="334.8528137423857" type="line"/>
      <point x="252.0" y="603.5533905932738" type="line"/>
      <point x="262.0" y="593.5533905932738" type="line"/>
      <point x="123.0" y="593.5533905932738" type="line"/>
      <point x="133.0" y="603.5533905932738" type="line"/>
      <point x="133.0" y="334.8528137423857" type="line"/>
    </contour>
    <contour>
      <point x="123.0" y="298.8908729652601" type="curve" smooth="yes"/>
      <point x="262.0" y="298.8908729652601" type="line" smooth="yes"/>
      <point x="267.52284749830795" y="298.8908729652601"/>
      <point x="272.0" y="294.41372046356804"/>
      <point x="272.0" y="288.8908729652601" type="curve" smooth="yes"/>
      <point x="272.0" y="20.190296114372043" type="line" smooth="yes"/>
      <point x="272.0" y="14.667448616064108"/>
      <point x="267.52284749830795" y="10.190296114372044"/>
      <point x="262.0" y="10.190296114372046" type="curve" smooth="yes"/>
      <point x="123.0" y="10.190296114372046" type="line" smooth="yes"/>
      <point x="117.47715250169206" y="10.190296114372048"/>
      <point x="113.0" y="14.667448616064112"/>
      <point x="113.0" y="20.190296114372046" type="curve" smooth="yes"/>
      <point x="113.0" y="288.8908729652601" type="line" smooth="yes"/>
      <point x="113.0" y="294.41372046356804"/>
      <point x="117.47715250169206" y="298.8908729652601"/>
    </contour>
    <contour>
      <point x="202.0" y="489.00209204105306" type="curve" smooth="yes"/>
      <point x="202.0" y="307.9827560572969" type="line" smooth="yes"/>
      <point x="202.0" y="292.9827560572969"/>
      <point x="182.0" y="292.9827560572969"/>
      <point x="182.0" y="307.9827560572969" type="curve" smooth="yes"/>
      <point x="182.0" y="489.00209204105306" type="line" smooth="yes"/>
      <point x="182.0" y="504.00209204105306"/>
      <point x="202.0" y="504.00209204105306"/>
    </contour>
    <contour>
      <point x="182.0" y="-6.679761570716777" type="curve" smooth="yes"/>
      <point x="182.0" y="174.33957441303943" type="line" smooth="yes"/>
      <point x="182.0" y="189.33957441303943"/>
      <point x="202.0" y="189.33957441303943"/>
      <point x="202.0" y="174.33957441303943" type="curve" smooth="yes"/>
      <point x="202.0" y="-6.679761570716779" type="line" smooth="yes"/>
      <point x="202.0" y="-21.679761570716778"/>
      <point x="182.0" y="-21.679761570716778"/>
    </contour>
    <contour>
      <point x="265.5836301201625" y="10.854472896151591" type="curve" smooth="yes"/>
      <point x="195.5836301201625" y="-16.015584788937232" type="line" smooth="yes"/>
      <point x="193.26102582243837" y="-16.907134952644125"/>
      <point x="190.68949202664396" y="-16.900912253002144"/>
      <point x="188.37122972110313" y="-15.99813193591448" type="curve" smooth="yes"/>
      <point x="119.37122972110313" y="10.871925749174345" type="line" smooth="yes"/>
      <point x="105.39367417330658" y="16.31508116751965"/>
      <point x="112.65121473110031" y="34.95182189791505"/>
      <point x="126.62877027889687" y="29.508666479569747" type="curve" smooth="yes"/>
      <point x="195.62877027889687" y="2.6386087944809233" type="line"/>
      <point x="188.4163698798375" y="2.6560616475036767" type="line"/>
      <point x="258.4163698798375" y="29.5261193325925" type="line" smooth="yes"/>
      <point x="272.42010470716815" y="34.90156451283626"/>
      <point x="279.5873649474932" y="16.22991807639535"/>
    </contour>
    <contour>
      <point x="131.56603468217034" y="608.7131434772649" type="curve" smooth="yes"/>
      <point x="200.56603468217034" y="494.1618449250442" type="line"/>
      <point x="183.46706329760602" y="494.2163984410393" type="line"/>
      <point x="253.46706329760602" y="608.7676969932601" type="line" smooth="yes"/>
      <point x="261.2885228975854" y="621.5671020468511"/>
      <point x="278.3543963023734" y="611.1384892468785"/>
      <point x="270.532936702394" y="598.3390841932875" type="curve" smooth="yes"/>
      <point x="200.53293670239398" y="483.7877856410668" type="line" smooth="yes"/>
      <point x="196.61908930250016" y="477.3829813268801"/>
      <point x="187.30686496353457" y="477.41269156897596"/>
      <point x="183.43396531782966" y="483.84233915706193" type="curve" smooth="yes"/>
      <point x="114.43396531782967" y="598.3936377092826" type="line" smooth="yes"/>
      <point x="106.69433599184293" y="611.2426897325381"/>
      <point x="123.8264053561836" y="621.5621955005204"/>
    </contour>
    <contour>
      <point x="265.58363012016247" y="325.51699052416524" type="curve" smooth="yes"/>
      <point x="195.5836301201625" y="298.64693283907644" type="line" smooth="yes"/>
      <point x="193.2610258224384" y="297.75538267536956"/>
      <point x="190.68949202664393" y="297.7616053750115"/>
      <point x="188.37122972110313" y="298.6643856920992" type="curve" smooth="yes"/>
      <point x="119.37122972110313" y="325.534443377188" type="line" smooth="yes"/>
      <point x="105.39367417330658" y="330.9775987955333"/>
      <point x="112.65121473110031" y="349.61433952592876"/>
      <point x="126.62877027889687" y="344.17118410758343" type="curve" smooth="yes"/>
      <point x="195.62877027889687" y="317.30112642249463" type="line"/>
      <point x="188.4163698798375" y="317.3185792755174" type="line"/>
      <point x="258.41636987983753" y="344.1886369606062" type="line" smooth="yes"/>
      <point x="272.4201047071682" y="349.5640821408499"/>
      <point x="279.58736494749314" y="330.89243570440897"/>
    </contour>
    <contour>
      <point x="131.56603468217034" y="294.0506258492512" type="curve" smooth="yes"/>
      <point x="200.56603468217034" y="179.4993272970306" type="line"/>
      <point x="183.46706329760602" y="179.55388081302567" type="line"/>
      <point x="253.46706329760602" y="294.10517936524633" type="line" smooth="yes"/>
      <point x="261.2885228975854" y="306.9045844188373"/>
      <point x="278.3543963023734" y="296.47597161886483"/>
      <point x="270.532936702394" y="283.67656656527384" type="curve" smooth="yes"/>
      <point x="200.53293670239398" y="169.1252680130532" type="line" smooth="yes"/>
      <point x="196.6190893025003" y="162.7204636988667"/>
      <point x="187.30686496353442" y="162.75017394096255"/>
      <point x="183.43396531782966" y="169.17982152904827" type="curve" smooth="yes"/>
      <point x="114.43396531782967" y="283.73112008126895" type="line" smooth="yes"/>
      <point x="106.69433599184293" y="296.5801721045244"/>
      <point x="123.8264053561836" y="306.8996778725067"/>
    </contour>
  </outline>
</glyph>
